<?xml version="1.0" encoding="utf-8"?>
<!-- Generator: Adobe Illustrator 25.3.1, SVG Export Plug-In . SVG Version: 6.00 Build 0)  -->
<svg version="1.1" id="圖層_1" xmlns="http://www.w3.org/2000/svg" xmlns:xlink="http://www.w3.org/1999/xlink" x="0px" y="0px"
	 viewBox="0 0 42.52 42.52" style="enable-background:new 0 0 42.52 42.52;" xml:space="preserve">
<style type="text/css">
	.st0{fill:#3E3A39;}
	.st1{fill:#FFFFFF;}
	.st2{fill:#FFFFFF;stroke:#E61629;stroke-width:3;stroke-miterlimit:10;}
</style>
<path class="st0" d="M24.92,41.67H17.6c-9.25,0-16.75-7.5-16.75-16.75V17.6c0-9.25,7.5-16.75,16.75-16.75h7.31
	c9.25,0,16.75,7.5,16.75,16.75v7.31C41.67,34.17,34.17,41.67,24.92,41.67z"/>
<g>
	<path class="st1" d="M19.29,11.97c0.49-0.24,0.98,0.49,1.47,0.57c0.73,0.08,1.46,0.08,2.03,0.24c0.73-0.16,0.24,0.57,0.57,0.9
		c0.81-0.33,1.87-0.57,2.77-0.73c0.24-0.08,0.33-0.16,0.41-0.41c0.08,0.08,0.16,0,0.24,0.08c0.49,0.16,0.73-0.41,1.14-0.49
		c0.41-0.65,0.81-1.3,0.9-2.03c0-0.49-0.57-0.49-0.65-0.98c-0.49-0.16-0.81-0.57-1.3-0.65c-1.22-0.16-2.52-0.24-3.58,0.08
		c-0.41,0.41-0.89-0.33-1.22,0.16c-0.49-0.16-0.73,0.65-1.22,0.41c-0.41-0.16-0.57,0.33-0.98,0.16c-0.65,0.33-1.46,0.41-1.87,1.06
		c0,0.32-0.49,0.41-0.33,0.81C18.32,11.16,18.64,11.89,19.29,11.97z"/>
	<path class="st1" d="M35.32,14.41c-0.16-0.57-0.65-0.81-1.06-1.06c-1.47-0.57-2.52,0.73-3.91,0.73c-0.81,0.57-1.87,0.49-2.77,0.81
		c-0.24,0.16-0.57-0.08-0.73,0.24c-0.49,0-1.22,0.16-1.79,0.24c-0.33,0.08-0.57,0.08-0.89,0.33c-1.14-0.16-2.03,1.3-3.17,0.49
		l-0.16,0.16c-0.08,0.16-0.24,0-0.24-0.08c-0.73,0.08-1.63,0-2.2,0.49c-0.65-0.16-1.22,0.08-1.87,0.08
		c-0.81,0.49-1.87,0.16-2.77,0.49c-0.57,0.16-1.14-0.24-1.55,0.24c-0.81-0.08-1.63,0.16-2.52,0.24c-0.16,0.16-0.33-0.24-0.41,0.08
		c-0.65-0.16-1.46-0.24-2.12-0.41c-0.16,0.16,0.08,0.24,0,0.41c0.41,0.49,0.57,1.06,0.9,1.63c0.73,0.49,1.46,1.47,2.52,1.14
		c0.49-0.08,0.98,0.16,1.46-0.16c0.57-0.16,1.14-0.41,1.71-0.32c0.81-0.16,1.55-0.73,2.44-0.81c0.57-0.16,1.22-0.41,1.87-0.65
		c0.98-0.08,1.87-0.57,2.93-0.81c0.65,0,1.3-0.49,1.79-0.16c-1.06,1.46-2.44,3.09-3.58,4.56h-0.08c-0.41,0.57-0.98,1.14-1.47,1.63
		c-0.81,1.14-1.63,1.87-2.52,2.85c-0.08,0.57-0.65,0.57-0.89,1.06c-0.65,0.73-1.22,1.46-1.87,2.12l0.16,0.16l0.9-0.24
		c0.49-0.65,1.3-0.49,1.79-1.06c0.41-0.57,1.14-0.81,1.55-1.38c0.73-0.41,1.22-0.9,1.71-1.55c1.14-0.73,2.28-1.87,3.25-2.85
		c0.49-0.57,0.89-1.14,1.38-1.71c0.73-0.49,1.38-1.38,2.03-2.03c0.73-0.57-0.08-1.14-0.16-1.79c-0.33-0.57,0.57-0.49,0.81-0.81
		c0.81,0.08,1.14-0.33,1.87-0.08c0.98-0.16,1.79-0.08,2.77,0c0.41-0.08,0.9-0.24,1.3-0.16c0.57-0.16,1.06-0.16,1.63-0.16
		c0.65-0.33,1.3-0.24,1.87-0.73C35.4,15.23,35.48,14.74,35.32,14.41z"/>
	<path class="st1" d="M28.89,18.89c-0.81,0.32-1.79,0-2.44,0.32v0.24c0.08,0.08,0.24,0.41,0.41,0.24c0.08,0.41,0.57,0.57,0.73,0.9
		c1.06,1.22-0.41,2.6-0.73,3.82c-0.65,0.89-1.14,1.95-1.63,2.85c-0.9,0.89-1.22,2.2-2.28,2.93c-0.57,0.41-1.46,0.24-2.12,0.33
		c-0.41-0.41-1.22-0.16-1.63-0.57c-0.08,0-0.33,0-0.24,0.16c0.65,0.49,0.73,1.38,1.3,2.03c0.16,0.41,0.16,0.81,0.41,1.14
		c0,0.41,0.32,0.41,0.57,0.73c0.33,0.41,0.89-0.08,1.3,0.08c0.57-0.33,1.06-0.73,1.71-1.06c0.41-0.65,0.73-1.22,1.14-1.95
		c0.24-0.41,0.57-0.65,0.65-1.14c0.81-0.57,0.98-1.63,1.46-2.44c0.57-1.22,1.38-2.2,2.03-3.42c0.49-0.73,1.06-1.55,1.47-2.36
		c0.16-0.73,0.49-1.55-0.16-2.2C30.36,18.89,29.54,18.89,28.89,18.89z"/>
</g>
</svg>
