<?xml version="1.0" standalone="no"?>
<!DOCTYPE svg PUBLIC "-//W3C//DTD SVG 20010904//EN"
 "http://www.w3.org/TR/2001/REC-SVG-20010904/DTD/svg10.dtd">
<svg version="1.0" xmlns="http://www.w3.org/2000/svg"
 width="2363.000000pt" height="2364.000000pt" viewBox="0 0 2363.000000 2364.000000"
 preserveAspectRatio="xMidYMid meet">

<g transform="translate(0.000000,2364.000000) scale(0.100000,-0.100000)"
fill="#000000" stroke="none">
<path d="M11478 19300 c-951 -44 -1795 -193 -2598 -459 -1197 -397 -2271
-1054 -3135 -1916 -722 -720 -1213 -1518 -1501 -2440 -87 -278 -145 -530 -209
-914 l-26 -154 3 -586 3 -586 38 -209 c114 -639 250 -1067 502 -1581 567
-1156 1441 -2080 2662 -2813 962 -579 2003 -947 3173 -1123 126 -18 217 -37
235 -48 62 -36 59 6 65 -936 l6 -860 23 -63 c46 -125 132 -213 260 -264 51
-21 71 -23 236 -22 153 1 199 5 312 28 260 53 575 160 1026 351 1085 457 2126
1055 3095 1776 1108 827 1916 1604 2566 2469 750 999 1199 1982 1365 2990 267
1621 -134 3114 -1197 4451 -292 369 -672 755 -1037 1054 -631 519 -1407 957
-2260 1278 -871 327 -1688 504 -2625 567 -214 14 -768 20 -982 10z m-3796
-4559 c122 -33 204 -97 246 -189 16 -34 17 -145 22 -1387 4 -1098 7 -1354 18
-1373 31 -54 45 -56 587 -58 557 -2 572 -3 656 -68 51 -39 100 -122 119 -205
16 -67 8 -229 -14 -291 -25 -68 -84 -139 -146 -174 l-55 -31 -205 -6 c-280
-10 -1031 -9 -1330 0 -218 7 -251 10 -302 30 -75 29 -139 93 -170 169 l-23 57
-3 1614 c-3 1758 -5 1679 53 1771 41 65 120 116 225 146 71 19 244 17 322 -5z
m2570 -11 c84 -26 156 -87 188 -162 19 -43 25 -82 32 -208 5 -85 8 -821 6
-1635 -4 -1391 -5 -1483 -22 -1534 -36 -109 -98 -171 -207 -208 -78 -26 -330
-26 -410 0 -87 29 -148 81 -189 161 l-35 69 -3 1606 c-2 1173 0 1622 8 1666
29 147 117 229 285 261 95 18 261 11 347 -16z m1337 15 c153 -37 287 -148 377
-315 29 -52 192 -365 363 -696 171 -331 323 -612 337 -625 25 -24 26 -24 40
-5 8 11 14 29 14 40 0 12 2 314 3 671 2 580 4 655 19 700 37 109 103 173 223
217 82 30 255 37 346 14 137 -35 243 -117 268 -208 9 -32 11 -450 9 -1698 l-3
-1655 -22 -40 c-23 -45 -95 -115 -139 -138 -120 -61 -302 -78 -425 -38 -139
44 -243 138 -331 297 -111 200 -662 1231 -694 1300 -38 80 -60 95 -99 70 l-24
-16 -3 -708 -3 -707 -26 -55 c-65 -136 -177 -190 -395 -190 -187 0 -297 41
-371 138 -73 96 -67 -30 -71 1702 -2 1032 1 1581 7 1633 18 130 66 210 160
265 100 59 299 80 440 47z m4702 5 c115 -22 192 -82 243 -189 30 -63 31 -72
31 -191 0 -117 -2 -129 -29 -188 -19 -42 -47 -79 -82 -111 -97 -89 -65 -85
-766 -91 -606 -5 -617 -5 -645 -26 -51 -38 -53 -47 -53 -357 0 -315 3 -334 57
-355 18 -7 135 -13 313 -14 269 -3 288 -5 342 -26 76 -30 150 -99 185 -170 26
-52 28 -66 28 -172 0 -110 -1 -118 -33 -182 -39 -79 -92 -128 -171 -160 -52
-21 -76 -23 -358 -28 l-303 -5 -27 -28 -28 -27 -3 -293 c-4 -328 0 -357 51
-384 29 -17 79 -18 627 -19 650 -1 666 -2 744 -58 75 -53 115 -120 142 -233
48 -203 -54 -430 -212 -475 -61 -18 -1887 -16 -1977 1 -119 23 -200 97 -233
211 -15 49 -17 217 -20 1490 -2 789 0 1528 4 1642 9 206 9 207 41 273 48 98
127 147 271 169 61 9 1811 5 1861 -4z"/>
</g>
</svg>
