<?xml version="1.0" encoding="utf-8"?>
<!-- Generator: Adobe Illustrator 25.0.0, SVG Export Plug-In . SVG Version: 6.00 Build 0)  -->
<svg version="1.1" id="圖層_1" xmlns="http://www.w3.org/2000/svg" xmlns:xlink="http://www.w3.org/1999/xlink" x="0px" y="0px"
	 viewBox="0 0 616.48 252.66" style="enable-background:new 0 0 616.48 252.66;" xml:space="preserve">
<style type="text/css">
	.st0{fill:#1D3052;}
	.st1{fill:#6DBA96;}
	.st2{fill:#6CBA95;}
	.st3{fill:#6DBA95;}
	.st4{fill:#2A445A;}
	.st5{fill:#374636;}
	.st6{fill:#040000;}
	.st7{fill:#231611;}
	.st8{fill:#351D16;}
	.st9{fill:#3B666C;}
	.st10{fill:#6CB995;}
	.st11{fill:#3B5B5C;}
	.st12{fill:#2C281F;}
	.st13{fill:#619E7D;}
	.st14{fill:#619979;}
	.st15{fill:#6BB794;}
	.st16{fill:#6CB794;}
	.st17{fill:#66AE91;}
	.st18{fill:#563D2D;}
	.st19{fill:#65AD90;}
	.st20{fill:#66AC91;}
	.st21{fill:#2E3F39;}
	.st22{fill:#406F71;}
	.st23{fill:#5B9B89;}
	.st24{fill:#61A58D;}
	.st25{fill:#355B66;}
	.st26{fill:#1F3254;}
	.st27{fill:#1E3253;}
	.st28{fill:#1E3153;}
	.st29{fill:#2C4C5E;}
	.st30{fill:#301610;}
	.st31{fill:#262F2E;}
	.st32{fill:#3D5E55;}
	.st33{fill:#69AE8A;}
	.st34{fill:#3D503C;}
	.st35{fill:#467975;}
	.st36{fill:#355B62;}
	.st37{fill:#2D4C5F;}
	.st38{fill:#335763;}
	.st39{fill:#457475;}
	.st40{fill:#2E4F5F;}
	.st41{fill:#35545E;}
	.st42{fill:#212821;}
	.st43{fill:#3F5643;}
	.st44{fill:#252E28;}
	.st45{fill:#547559;}
	.st46{fill:#311810;}
	.st47{fill:#3F5B47;}
	.st48{fill:#5D6A4E;}
	.st49{fill:#283C30;}
	.st50{fill:#49644D;}
	.st51{fill:#56392A;}
	.st52{fill:#533225;}
	.st53{fill:#6CB793;}
	.st54{fill:#486B52;}
	.st55{fill:#386069;}
	.st56{fill:#3C666D;}
	.st57{fill:#4B684F;}
	.st58{fill:#060001;}
	.st59{fill:#6BB795;}
	.st60{fill:#6CB894;}
	.st61{fill:#6CB895;}
	.st62{fill:#6BB693;}
	.st63{fill:#68B392;}
	.st64{fill:#5EA28B;}
	.st65{fill:#29465C;}
	.st66{fill:#6BB391;}
	.st67{fill:#599987;}
	.st68{fill:#599786;}
	.st69{fill:#2B485E;}
	.st70{fill:#457674;}
	.st71{fill:#1A2C48;}
	.st72{fill:#66A988;}
	.st73{fill:#5E9675;}
	.st74{fill:#6DB995;}
	.st75{fill:#6CB994;}
	.st76{fill:#243A2F;}
	.st77{fill:#263128;}
	.st78{fill:#243C57;}
	.st79{fill:#64A27F;}
	.st80{fill:#588466;}
	.st81{fill:#578161;}
	.st82{fill:#2D4D5F;}
	.st83{fill:#3C696D;}
	.st84{fill:#5B9D87;}
	.st85{fill:#325563;}
	.st86{fill:#5B9C85;}
	.st87{fill:#2D1710;}
	.st88{fill:#FFFFFF;}
	.st89{fill:none;}
</style>
<g>
	<g>
		<g>
			<path class="st88" d="M183.33,59.96c0.3,1.26-2.44,6.31,1.93,5.3c4.37-1.01,6.17-4.57,7.67-1.66s1.97,6.96,3.82,10.24
				c0.59,1.05,1.24,2.37,1.85,3.7V0h-9.43h-5.87h-14.85v55.16C168.45,55.16,183.03,58.7,183.33,59.96z"/>
			<path class="st88" d="M196.75,87.74c-1.85-3.9-2.32-8.7-3.82-12.17s-3.3,0.77-7.67,1.97s-1.63-4.8-1.93-6.3
				c-0.3-1.5-14.88-5.7-14.88-5.7v33.79h-29.1V0h-11.49h-5.31h-15.41v252.35h15.41h5.31h11.49V142.01h29.1v110.34h14.85h5.87h9.43
				V92.13C197.98,90.56,197.34,88.98,196.75,87.74z"/>
		</g>
		<polygon class="st88" points="274.65,0 232.8,0 219.75,0 203.55,0 203.55,252.35 285.45,252.35 285.45,209.83 232.8,209.83 
			232.8,145.85 279.6,145.85 279.6,126.18 279.35,126.18 279.35,98.63 232.8,98.63 232.8,42.69 274.65,42.69 274.65,42.95 
			286.57,42.95 286.57,0 283.39,0 		"/>
		<g>
			<path class="st88" d="M34.13,33.14c0.9-3.3,1.8-12.3,1.71-14.7c-0.09-2.4-4.41-10.2-6.51-10.66C27.86,7.46,22.41,3.25,18.14,0
				H5.4H0v42.95h18.88c5.77-1.72,6.78-1.77,8.95-2.02C30.53,40.64,33.23,36.44,34.13,33.14z"/>
			<path class="st88" d="M90.94,0H22.14c4.27,3.25,9.71,7.46,11.19,7.78c2.1,0.46,6.43,8.26,6.51,10.66
				c0.09,2.4-0.81,11.4-1.71,14.7c-0.9,3.3-3.6,7.5-6.3,7.8c-2.17,0.24-3.19,0.29-8.95,2.02h16.97v66.98c0,0,1.89,12.9,5.19,15
				c3.3,2.1,3.9,0.38,6,1.24c2.1,0.86,6.9-1.46,8.4,0s3.9,2.5,6.3,1.98c2.4-0.52,4.2-1.98,4.2-1.98l1.62-2.98V42.95h31.5V0H90.94z"
				/>
			<path class="st88" d="M65.73,133.65c-2.4,0.5-4.8-0.5-6.3-1.89s-6.3,0.82-8.4,0c-2.1-0.82-2.7,0.82-6-1.18
				c-3.3-2.01-5.19-14.34-5.19-14.34v136.12h10.32h10.39h10.98V128.91l-1.62,2.85C69.93,131.76,68.13,133.15,65.73,133.65z"/>
		</g>
		<g>
			<path class="st88" d="M332.91,39.94c1.24-0.19,8.44-1.92,8.44-1.92l4.72-4.86c0,0,5.62,0.52,6.75,0c1.12-0.52,8.1-3.22,8.1-3.22
				l1.95-1.29L357.28,0h-3.02h-3.42h-19.05l-7.33,38.58C327.49,39.19,332.09,40.07,332.91,39.94z"/>
			<path class="st88" d="M362.88,33.51l-1.95,1.51c0,0-6.97,3.15-8.1,3.76s-6.75,0-6.75,0l-4.72,5.69c0,0-7.2,2.03-8.44,2.25
				c-0.82,0.15-5.43-0.88-8.45-1.6L290.8,252.35h16.85h5.69h4.51l10.01-50.28c12.98-0.26,29.54-0.53,37.27-0.66l8.16,50.93h16.86
				h6.26h3.04L362.88,33.51z M332.91,152.51l12.45-76.94l11.92,76.94H332.91z"/>
		</g>
		<g>
			<path class="st88" d="M474.45,139.52c5.94-3.39,12.41-9.83,16.96-21.94l-8.98-10.86l-14.3-10.25l0,0
				c-1.16,3.22-2.6,5.6-4.32,7.15c-2.3,2.07-8.07,3.1-17.31,3.1h-14.25V76.23c-7.12-2.28-21-7.22-24.97-12.09
				c-0.99-1.22-2.02-2.44-3.03-3.63v191.83h8.74h11.96h7.3V147h3.9c4.42,0,7.66,0.95,9.7,2.84c2.04,1.89,3.97,5.4,5.79,10.5
				c1.82,5.11,5.21,17.47,10.15,37.1l13.92,54.91h19.13h3.9h4.2L474.45,139.52z"/>
			<path class="st88" d="M432.25,66.9V37.46h15.03c7.81,0,12.49,0.25,14.06,0.75c3.12,1.21,5.54,4.11,7.25,8.69
				c1.71,4.58,2.57,10.6,2.57,18.05c0,6.65-0.65,12.19-1.95,16.62c-0.33,1.11-0.68,2.14-1.07,3.09l0,0l14.3,9l8.98,9.53
				c3.14-7.35,5.36-17.07,5.83-29.95c1.4-37.86-10.74-56.45-18.93-64.62c-0.82-1-1.68-1.88-2.57-2.65C471.12,1.99,463.72,0,453.52,0
				h-32.48h-8.06h-8.74v53.11c1.02,1.04,2.04,2.11,3.03,3.18C411.24,60.57,425.13,64.9,432.25,66.9z"/>
		</g>
		<g>
			<path class="st88" d="M569.5,44.68c0,0,2.48-4.46,3.83-4.46s9.2-2.6,9.2-2.6l9.99-1.14L608.55,0h-3.05h-7.97h-20.6l-18.03,38.84
				l4.13,3.73L569.5,44.68z"/>
			<path class="st88" d="M592.52,44.21l-9.99,1.38c0,0-7.85,3.15-9.2,3.15s-3.83,5.4-3.83,5.4l-6.49-2.54l-4.13-4.52L540.6,94.8
				V38.17l-4.62-4.67l-10.36-2.32l-9.15-3.15l-6.93-5.53v229.85h3.19H528h5.99h2.11h4.5v-77.18c0,0,8.11-20.22,12.86-32.09
				l26.7,109.27h24.12h3.38h8.83l-46.63-145.63L592.52,44.21z"/>
			<polygon class="st88" points="525.62,25.74 535.98,27.65 540.6,31.5 540.6,0 536.1,0 533.98,0 523.95,0 512.73,0 509.55,0 
				509.55,18.57 516.47,23.14 			"/>
		</g>
	</g>
	<path class="st89" d="M198.23,219.69c1.77,1.68,3.42,3.34,4.95,4.96v-12.32h-4.95V219.69z"/>
	<polygon class="st89" points="556.11,239.14 576.55,239.14 573.81,227.9 556.11,227.9 	"/>
	<path class="st89" d="M454.99,180.79h-5.25c-3.21,14.9-9.17,27.77-17.86,38.62v13.88c5.32-5.99,9.63-12.04,12.93-18.16
		C450,205.5,453.39,194.05,454.99,180.79z"/>
	<polygon class="st89" points="556.11,193.71 556.11,203.47 567.84,203.47 565.46,193.71 	"/>
	<polygon class="st89" points="556.11,219.25 571.7,219.25 569.9,211.91 556.11,211.91 	"/>
	<polygon class="st89" points="551.2,177.09 551.2,185.32 563.41,185.32 561.4,177.09 	"/>
	<path class="st89" d="M434.92,180.79c-0.96,2.15-1.97,4.21-3.03,6.2v14.95c3.56-6.44,6.21-13.49,7.94-21.15H434.92z"/>
	<path class="st89" d="M397.4,209.86v-21.31h-8.04c-0.14,0.88-0.31,1.79-0.49,2.73l3.34,20.01
		C393.92,210.82,395.65,210.35,397.4,209.86z"/>
	<path class="st89" d="M557.02,159.26l0.02-0.01l-3.95-16.17c-3.05,7.64-7.5,18.73-10.28,25.67h16.55l-2.3-9.43
		C557.04,159.31,557.03,159.29,557.02,159.26z"/>
	<path class="st89" d="M397.4,219.46c-1.06,0.31-2.29,0.65-3.64,1.02l3.64,21.8V219.46z"/>
	<path class="st89" d="M442.5,159.16c-1.1,4.36-2.43,8.51-3.99,12.45h16.16c-1.45-5.21-2.58-8.97-3.4-11.26
		c-1.82-5.1-3.75-8.61-5.79-10.5c-2.04-1.89-5.27-2.84-9.7-2.84h-3.9v12.64c0.2-0.7,0.39-1.4,0.58-2.12L442.5,159.16z"/>
	<path class="st89" d="M71.18,163.01v10.28h6.49C75.78,169.81,73.61,166.39,71.18,163.01z"/>
	<path class="st89" d="M199.72,201.1c-0.48-0.62-0.97-1.24-1.49-1.85v3.7h4.95v-4.29L199.72,201.1z"/>
	<path class="st89" d="M198.23,185.11c1.76,1.6,3.41,3.2,4.95,4.82v-10.99h-4.95V185.11z"/>
	<path class="st89" d="M71.18,193.5v5.01h35.59v-15.88H71.86C71.69,186.67,71.46,190.29,71.18,193.5z"/>
	<rect x="509.07" y="196.24" class="st89" width="0.11" height="5.49"/>
	<rect x="509.07" y="208.64" class="st89" width="0.11" height="6.59"/>
	<path class="st89" d="M509.07,239.77c0.04-0.01,0.08-0.02,0.11-0.04v-16.37h-0.11V239.77z"/>
	<path class="st88" d="M464.91,180.79c-0.81,6.17-1.92,11.94-3.3,17.36l5.24,20.66c0.54-11.1,0.94-23.76,1.2-38.02H464.91z"/>
	<polygon class="st88" points="577.94,193.71 565.46,193.71 567.84,203.47 577.94,203.47 	"/>
	<rect x="509.18" y="196.24" class="st88" width="16.08" height="5.49"/>
	<polygon class="st88" points="594.76,185.68 594.76,187.91 588.21,187.91 588.21,211.91 569.9,211.91 571.7,219.25 592.2,219.25 
		592.2,247.52 578.6,247.52 579.78,252.35 603.91,252.35 607.28,252.35 616.12,252.35 	"/>
	<rect x="509.18" y="208.64" class="st88" width="16.08" height="6.59"/>
	<polygon class="st88" points="582.16,239.14 582.16,227.9 573.81,227.9 576.55,239.14 	"/>
	<path class="st88" d="M557.06,159.33l2.3,9.43h2.33C560.98,166.66,559.43,163.52,557.06,159.33z"/>
	<path class="st88" d="M510.78,175.46h16.25c-2.62-2.29-5.66-4.62-9.12-7.02C515.97,170.66,513.59,173,510.78,175.46z"/>
	<polygon class="st88" points="584.62,177.09 561.4,177.09 563.41,185.32 584.62,185.32 	"/>
	<path class="st88" d="M70.66,198.51h0.52v-5.01C71.03,195.3,70.85,196.97,70.66,198.51z"/>
	<path class="st88" d="M198.23,169.65v-1.53c-0.28,0.51-0.55,1.02-0.85,1.53H198.23z"/>
	<path class="st88" d="M184.9,186.48l8.15-5.8c1.83,1.47,3.55,2.94,5.18,4.43v-6.17h-25.37v24h25.37v-3.7
		C194.63,194.93,190.19,190.67,184.9,186.48z"/>
	<g>
		<g>
			<path class="st88" d="M39.48,250.9v1.45H49.8H60.2h10.98v-44.66h-1.32C67.48,224.85,57.34,239.25,39.48,250.9z"/>
			<path class="st88" d="M47.74,230.85c5.21-5.49,8.62-11.74,10.23-18.76c1.62-7.02,2.58-16.84,2.88-29.47H39.48v55.7
				C42.4,236.07,45.16,233.58,47.74,230.85z"/>
		</g>
		<path class="st88" d="M109.66,207.69h-2.88v28.76c0.26-1.13,0.51-2.42,0.75-3.91C108.34,227.41,109.05,219.12,109.66,207.69z"/>
	</g>
	<path class="st88" d="M183.93,220.09l8.21-5.91c2.17,1.87,4.2,3.7,6.1,5.51v-7.35h-25.25c0.15,10.01-1.49,18.58-4.89,25.72v14.29
		h14.85h5.87h9.43v-18.65C194.05,229.04,189.29,224.5,183.93,220.09z"/>
	<path class="st88" d="M284.13,252.17h-10.15v-42.33h-25.46v2.5h-14.71v29.39c0,3.1-0.99,5.51-2.96,7.25
		c-1.98,1.74-5.02,2.64-9.12,2.69s-9.39,0.08-15.85,0.08l-2.7-6.78v7.38h81.9v-42.52h-0.95V252.17z"/>
	<path class="st88" d="M223.21,239.45v-27.12h-20.03v12.32c2.4,2.55,4.53,5.05,6.35,7.47l-6.35,4.25v5.78h17.92
		C222.51,242.14,223.21,241.25,223.21,239.45z"/>
	<path class="st88" d="M207.87,195.35l-4.69,3.31v4.29h20.03v-24h-20.03v10.99C204.88,191.72,206.45,193.53,207.87,195.35z"/>
	<rect x="306.88" y="194.93" class="st88" width="15.45" height="4.43"/>
	<rect x="306.88" y="184.11" class="st88" width="15.45" height="4.43"/>
	<path class="st88" d="M290.43,252.35h16.85h5.69h4.51l1.44-7.25l-3.83,3.43c-4.11-3.48-8.63-6.65-13.57-9.5l5.99-6.17
		c4.52,2.39,8.61,5.02,12.28,7.9l1.82-9.12H293.8L290.43,252.35z"/>
	<polygon class="st88" points="322.33,205.74 306.88,205.74 306.88,218.46 296.74,218.46 296.74,213.55 295.07,223.78 
		323.17,223.78 324.53,216.98 322.33,216.98 	"/>
	<polygon class="st88" points="322.33,172.35 303.43,172.35 302.73,176.67 322.33,176.67 	"/>
	<rect x="332.6" y="194.93" class="st88" width="15.74" height="4.43"/>
	<rect x="332.6" y="184.11" class="st88" width="15.74" height="4.43"/>
	<rect x="71.18" y="198.51" class="st3" width="35.59" height="9.18"/>
	<path class="st3" d="M77.67,173.29h-6.49v20.2c0.28-3.21,0.51-6.83,0.68-10.87h34.92v-9.34H89.59c-2.13-4.33-5.28-9.72-9.46-16.2
		l-8.94,2.47v3.44C73.61,166.39,75.78,169.81,77.67,173.29z"/>
	<path class="st3" d="M104.67,241.56c-1.08,0.88-3.93,1.32-8.52,1.32c-4.45,0-9.64-0.21-15.57-0.63l2.74,9.39
		c4.68,0.32,9.07,0.47,13.17,0.47c4.35,0,7.77-0.27,10.29-0.8v-14.86C106.14,239.22,105.44,240.94,104.67,241.56z"/>
	<path class="st3" d="M30.07,244.52l6.5,8.23c1-0.61,1.96-1.23,2.92-1.85v-12.57C36.52,240.63,33.38,242.69,30.07,244.52z"/>
	<rect x="31.66" y="173.29" class="st3" width="7.82" height="9.34"/>
	<path class="st88" d="M71.18,163.01v-3.44l-2.12,0.59C69.79,161.11,70.49,162.06,71.18,163.01z"/>
	<path class="st3" d="M70.66,198.51c0.19-1.54,0.36-3.22,0.52-5.01v-20.2h-31.7v9.34h21.37c-0.3,12.63-1.26,22.45-2.88,29.47
		c-1.62,7.02-5.03,13.27-10.23,18.76c-2.58,2.72-5.34,5.21-8.26,7.48v12.57c17.86-11.65,28-26.05,30.38-43.21h1.32v-9.18H70.66z"/>
	<path class="st3" d="M115.13,245.81c1.25-2.02,2.37-7.18,3.34-15.48c0.97-8.3,1.78-18.9,2.42-31.81h-14.12v9.18h2.88
		c-0.61,11.43-1.32,19.71-2.14,24.85c-0.24,1.49-0.49,2.78-0.75,3.91v14.86c1.09-0.23,2.03-0.5,2.77-0.83
		C112.02,249.39,113.88,247.83,115.13,245.81z"/>
	<rect x="106.78" y="173.29" class="st3" width="26.15" height="9.34"/>
	<path class="st3" d="M198.23,219.69v14.02c1.12,1.26,2.22,2.52,3.26,3.79l1.69-1.13v-11.71C201.65,223.02,200,221.37,198.23,219.69
		z"/>
	<polygon class="st3" points="202.06,242.14 203.18,244.97 203.18,242.14 	"/>
	<path class="st3" d="M199.72,201.1l3.46-2.44v-8.72c-1.54-1.62-3.19-3.23-4.95-4.82v14.14
		C198.74,199.86,199.24,200.48,199.72,201.1z"/>
	<polygon class="st3" points="248.53,209.83 248.53,202.94 233.82,202.94 233.82,169.65 232.43,169.65 232.43,209.83 	"/>
	<rect x="198.23" y="169.65" class="st3" width="4.95" height="9.29"/>
	<rect x="198.23" y="202.94" class="st3" width="4.95" height="9.39"/>
	<path class="st3" d="M162.09,169.65v33.29h-14.82v9.39h14.82c0.49,14.56-4.45,26.01-14.82,34.35l8.89,6.07
		c5.17-3.93,9.14-8.83,11.93-14.69v-68.4H162.09z"/>
	<path class="st3" d="M202.51,159.05l-4.28-0.79v9.86C199.9,165.09,201.34,162.06,202.51,159.05z"/>
	<path class="st3" d="M192.14,214.18l-8.21,5.91c5.36,4.41,10.12,8.95,14.31,13.62v-14.02
		C196.33,217.88,194.31,216.05,192.14,214.18z"/>
	<path class="st3" d="M184.9,186.48c5.29,4.19,9.74,8.44,13.34,12.76v-14.14c-1.64-1.49-3.36-2.96-5.18-4.43L184.9,186.48z"/>
	<path class="st88" d="M198.23,212.34v-9.39h-25.37v-24h25.37v-9.29h-0.85c0.3-0.51,0.57-1.02,0.85-1.53v-9.86l-6.32-1.16
		c-2.09,5.17-4.12,9.36-6.1,12.56h-17.72v68.4c3.4-7.14,5.04-15.71,4.89-25.72H198.23z"/>
	<path class="st3" d="M221.73,251.67c4.11-0.05,7.15-0.95,9.12-2.69c1.98-1.74,2.96-4.16,2.96-7.25v-29.39h14.71v-2.5h-16.09v-40.18
		h-29.25v9.29h20.03v24h-20.03v9.39h20.03v27.12c0,1.79-0.7,2.69-2.11,2.69h-17.92v2.83l2.7,6.78
		C212.34,251.75,217.62,251.72,221.73,251.67z"/>
	<path class="st3" d="M203.18,224.65v11.71l6.35-4.25C207.71,229.7,205.58,227.2,203.18,224.65z"/>
	<path class="st3" d="M207.87,195.35c-1.43-1.82-2.99-3.62-4.69-5.42v8.72L207.87,195.35z"/>
	<polygon class="st3" points="284.13,192.76 292.57,192.76 292.57,183.69 284.13,183.69 284.13,157.63 273.99,157.63 273.99,183.69 
		262.3,183.69 262.3,192.76 273.99,192.76 273.99,209.83 284.13,209.83 	"/>
	<path class="st3" d="M321.88,242.46c-0.68-0.58-1.38-1.14-2.09-1.7l-0.86,4.34L321.88,242.46z"/>
	<polygon class="st3" points="296.74,176.67 296.74,213.55 302.73,176.67 	"/>
	<path class="st3" d="M341.61,231.64v9.55c0,0.88-0.32,1.48-0.97,1.79s-2.95,0.47-6.9,0.47c-1.6,0-3.69-0.03-6.27-0.11l3.36,8.71
		c4.03,0,7.61-0.02,10.75-0.05c3.13-0.04,5.62-0.77,7.44-2.22c1.83-1.44,2.74-3.96,2.74-7.54v-10.6h12.83v-7.86h-12.83v-3.59h-10.15
		v3.59h-18.43l-1.57,7.86H341.61z"/>
	<polygon class="st3" points="289.38,223.78 289.38,231.64 293.8,231.64 295.07,223.78 	"/>
	<path class="st3" d="M324.53,216.98h8.07v-11.24h15.74v2.69c0,0.95-0.46,1.42-1.37,1.42c-4.56,0-7.79-0.07-9.69-0.21l3.13,7.86
		c0.99,0.14,2.38,0.21,4.16,0.21c5.17,0,8.75-0.6,10.75-1.79c2-1.2,2.99-3.34,2.99-6.44v-7.96c-8.58,0.14-20.77,0.35-30.82,0.55
		L324.53,216.98z"/>
	<polygon class="st3" points="291.49,164.69 291.49,172.35 303.43,172.35 304.67,164.69 	"/>
	<rect x="273.99" y="209.83" class="st3" width="10.15" height="42.33"/>
	<path class="st3" d="M301.52,239.03c4.94,2.85,9.46,6.01,13.57,9.5l3.83-3.43l0.86-4.34c-3.67-2.88-7.76-5.52-12.28-7.9
		L301.52,239.03z"/>
	<path class="st3" d="M332.6,176.67v-4.33h30.62v-7.65h-11.23l3.37-1.95c-3.31-2.95-6.1-4.98-8.38-6.07l-7.24,4.43
		c1.98,1.02,3.72,2.22,5.25,3.59H332.6v-7.07h-10.26v7.07h-17.66l-1.24,7.65h18.91v4.33h-19.61l-5.99,36.88v4.9h10.15v-12.71h15.45
		v11.24h2.19l2.97-14.9c10.05-0.2,22.24-0.41,30.82-0.55v-24.85H332.6z M322.33,199.36h-15.45v-4.43h15.45V199.36z M322.33,188.54
		h-15.45v-4.43h15.45V188.54z M348.33,199.36H332.6v-4.43h15.74V199.36z M332.6,188.54v-4.43h15.74v4.43H332.6z"/>
	<polygon class="st3" points="293.8,231.64 321.61,231.64 323.17,223.78 295.07,223.78 	"/>
	<path class="st3" d="M454.67,171.61h-16.16c1.56-3.94,2.89-8.09,3.99-12.45l-10.04-1.64c-0.19,0.72-0.39,1.42-0.58,2.12v27.35
		c1.06-1.99,2.08-4.05,3.03-6.2h4.9c-1.73,7.67-4.38,14.71-7.94,21.15v17.47c8.69-10.86,14.65-23.73,17.86-38.62h5.25
		c-1.6,13.26-4.99,24.71-10.18,34.34c-3.29,6.12-7.6,12.17-12.93,18.16v15.01c9.73-9.62,17.12-19.43,22.16-29.45
		c3.1-6.16,5.61-13.07,7.56-20.7l-0.18-0.71C458.7,186.62,456.45,178.01,454.67,171.61z"/>
	<path class="st3" d="M466.79,219.93c-0.57,11.36-1.07,17.8-1.51,19.31c-0.44,1.51-1.15,2.6-2.14,3.27s-3.92,1-8.78,1
		c-2.96,0-6.65-0.11-11.06-0.32l3.02,9.07c1.82,0.11,4.07,0.16,6.73,0.16c7.45,0,12.12-0.3,14.03-0.9c1.9-0.6,3.62-1.78,5.16-3.54
		c0.54-0.62,1.02-1.38,1.43-2.28l-6.82-26.91C466.82,219.18,466.81,219.57,466.79,219.93z"/>
	<path class="st3" d="M397.4,158.21v21.37h-6.79c0.49-3.31,0.93-7.33,1.31-12.08l-7.22-1.2l4.17,24.98
		c0.18-0.94,0.34-1.85,0.49-2.73h8.04v21.31c-1.75,0.49-3.48,0.96-5.18,1.42l1.54,9.2c1.35-0.37,2.58-0.72,3.64-1.02v22.83
		l1.62,9.67h4.87v-93.75H397.4z"/>
	<path class="st88" d="M414.79,222.78l8.44,5.96c3.14-2.92,6.02-6.04,8.65-9.33v-17.47C427.54,209.8,421.85,216.75,414.79,222.78z"
		/>
	<path class="st88" d="M477.05,211.7c0.65-14.46,1.06-27.82,1.25-40.1h-23.64c1.78,6.41,4.03,15.01,6.76,25.83l0.18,0.71
		c1.39-5.42,2.5-11.19,3.3-17.36h3.14c-0.26,14.26-0.66,26.92-1.2,38.02l6.82,26.91c0.76-1.65,1.31-3.76,1.65-6.35
		C475.83,235.38,476.41,226.16,477.05,211.7z"/>
	<path class="st88" d="M421.69,243.57l8.67,6.23c0.52-0.5,1.02-1,1.53-1.49v-15.01C428.82,236.74,425.42,240.16,421.69,243.57z"/>
	<path class="st3" d="M414.79,194.82l8.78,4.85c3.06-3.79,5.83-8.03,8.31-12.69v-27.35C427.54,175.24,421.85,186.98,414.79,194.82z"
		/>
	<path class="st3" d="M407.55,216.35c4.83-1.51,8.8-2.85,11.92-4.01l-0.8-9.39c-0.57,0.21-4.28,1.46-11.12,3.75v-18.15h9.58
		l-0.11-8.97h-9.46v-21.37h-3.67v93.75h3.67V216.35z"/>
	<path class="st88" d="M379.78,224.21c5.7-1.48,10.35-2.72,13.98-3.72l-1.54-9.2c-5.12,1.37-10.01,2.59-14.66,3.64L379.78,224.21z"
		/>
	<path class="st3" d="M376.99,201.2l8.95,2.37c1.27-4.58,2.24-8.68,2.94-12.31l-4.17-24.98l-2.01-0.33
		C381.93,179.01,380.03,190.76,376.99,201.2z"/>
	<polygon class="st88" points="397.4,251.96 399.02,251.96 397.4,242.28 	"/>
	<path class="st3" d="M556.11,239.14V227.9h17.7l-2.11-8.65h-15.59v-7.33h13.8l-2.06-8.44h-11.74v-9.76h9.35l-2.05-8.39h-12.2v-8.23
		h10.19l-2.04-8.34h-16.55c-0.84,2.09-1.53,3.81-1.98,4.94v14.21h5.02v64.26h10.26v-4.64h22.5l-2.05-8.39H556.11z"/>
	<path class="st88" d="M557.06,159.33l-0.02-0.08l-0.02,0.01C557.03,159.29,557.04,159.31,557.06,159.33z"/>
	<path class="st3" d="M509.07,239.77v-16.41h0.11v-8.12h-0.11v-6.59h0.11v-6.91h-0.11v-5.49h0.11v-8.12h-9.98v50.86l3.1,12.27
		c2.19-0.56,4.48-1.2,6.88-1.94v-9.57C509.14,239.75,509.1,239.76,509.07,239.77z"/>
	<path class="st3" d="M492.7,176.88l2.91,9.6c4.33-2.5,7.94-4.94,10.83-7.33v4.22h2.74v-19.31
		C504.09,169.33,498.6,173.62,492.7,176.88z"/>
	<polygon class="st3" points="594.76,168.76 589.35,168.76 594.76,185.68 	"/>
	<path class="st88" d="M499.2,239.88c0,1.51-0.72,2.78-2.17,3.8l2.79,8.18c0.81-0.19,1.64-0.39,2.47-0.6l-3.1-12.27V239.88z"/>
	<path class="st88" d="M540.83,168.76v4.94c0.45-1.13,1.14-2.84,1.98-4.94H540.83z"/>
	<polygon class="st3" points="592.2,219.25 571.7,219.25 573.81,227.9 582.16,227.9 582.16,239.14 576.55,239.14 578.6,247.52 
		592.2,247.52 	"/>
	<path class="st3" d="M529.48,249.79l9.24-4.43c-2.78-7.21-6.33-13.98-10.66-20.31l-8.95,3.9c1.63,2.29,2.76,4.24,3.36,5.86
		c-4.9,2.16-9.32,3.8-13.28,4.92v9.57c5.36-1.65,11.23-3.76,17.62-6.32C527.6,244.5,528.49,246.77,529.48,249.79z"/>
	<path class="st3" d="M528.05,176.35c2.2,1.79,4.2,3.73,5.99,5.8l5.47-7.65c-3.54-3.62-8.82-7.88-15.85-12.77
		c0.61-0.56,1.18-1.35,1.71-2.37l-9.46-3.11c-2.16,2.82-4.41,5.41-6.73,7.81v19.31h18.87V176.35z M510.78,175.46
		c2.81-2.46,5.19-4.8,7.13-7.02c3.46,2.39,6.5,4.73,9.12,7.02H510.78z"/>
	<polygon class="st3" points="525.26,196.24 525.26,201.73 509.18,201.73 509.18,208.64 525.26,208.64 525.26,215.24 509.18,215.24 
		509.18,223.36 534.84,223.36 534.84,188.12 509.18,188.12 509.18,196.24 	"/>
	<g>
		<path class="st3" d="M594.76,187.91v-2.23l-5.42-16.92h-16.42c-1.6-4.61-3.38-8.67-5.36-12.19l-10.53,2.69l0.02,0.08
			c2.37,4.18,3.92,7.33,4.64,9.43h-2.33l2.04,8.34h23.22v8.23h3.54l0.05,2.84v-0.25H594.76z"/>
		<polygon class="st88" points="584.62,185.32 563.41,185.32 565.46,193.71 577.94,193.71 577.94,203.47 567.84,203.47 
			569.9,211.91 588.21,211.91 588.21,188.16 588.15,185.32 		"/>
	</g>
</g>
</svg>
