<?xml version="1.0" encoding="utf-8"?>
<!-- Generator: Adobe Illustrator 25.0.0, SVG Export Plug-In . SVG Version: 6.00 Build 0)  -->
<svg version="1.1" id="圖層_1" xmlns="http://www.w3.org/2000/svg" xmlns:xlink="http://www.w3.org/1999/xlink" x="0px" y="0px"
	 viewBox="0 0 595.28 167.21" style="enable-background:new 0 0 595.28 167.21;" xml:space="preserve">
<style type="text/css">
	.st0{fill:#DCDDDD;}
	.st1{fill:none;}
	.st2{fill:#203F69;}
</style>
<g>
	<g>
		<g>
			<path class="st0" d="M407.08,158.12v-50.68h6.98l9.32,26.83h0.14l9.25-26.83h7.05v50.68h-7.26V127.3h-0.14l-7.19,21.78h-3.63
				l-7.12-21.78h-0.14v30.82H407.08z"/>
			<path class="st0" d="M470.15,107.44v39.29c0,1.66-0.3,3.19-0.89,4.59c-0.59,1.4-1.44,2.65-2.53,3.74
				c-1.09,1.09-2.35,1.95-3.77,2.56c-1.42,0.62-2.94,0.93-4.55,0.93c-1.61,0-3.12-0.31-4.52-0.93c-1.4-0.62-2.65-1.47-3.74-2.56
				c-1.09-1.09-1.95-2.34-2.56-3.74c-0.62-1.4-0.93-2.93-0.93-4.59v-39.29h7.26v38.58c0,1.8,0.43,3.13,1.28,3.99
				c0.85,0.85,1.92,1.28,3.2,1.28c1.28,0,2.35-0.43,3.2-1.28c0.85-0.85,1.28-2.18,1.28-3.99v-38.58H470.15z"/>
			<path class="st0" d="M500.47,122.03h-7.26v-1.64c0-1.66-0.39-3.1-1.17-4.31c-0.78-1.21-2.1-1.82-3.95-1.82
				c-1,0-1.8,0.19-2.42,0.57c-0.62,0.38-1.12,0.85-1.49,1.42c-0.38,0.62-0.64,1.32-0.78,2.1c-0.14,0.78-0.21,1.6-0.21,2.46
				c0,1,0.04,1.83,0.11,2.49c0.07,0.66,0.25,1.26,0.53,1.78c0.28,0.52,0.7,0.97,1.25,1.35c0.54,0.38,1.29,0.76,2.24,1.14l5.55,2.21
				c1.61,0.62,2.92,1.34,3.91,2.17c1,0.83,1.78,1.79,2.35,2.88c0.52,1.14,0.88,2.43,1.07,3.88c0.19,1.45,0.28,3.1,0.28,4.95
				c0,2.14-0.21,4.12-0.64,5.94c-0.43,1.83-1.12,3.38-2.06,4.66c-1,1.33-2.3,2.37-3.91,3.13c-1.61,0.76-3.58,1.14-5.91,1.14
				c-1.76,0-3.39-0.31-4.91-0.93c-1.52-0.62-2.82-1.47-3.91-2.56c-1.09-1.09-1.96-2.36-2.6-3.81c-0.64-1.45-0.96-3.03-0.96-4.73
				v-2.7h7.26v2.28c0,1.33,0.39,2.53,1.17,3.59s2.1,1.6,3.95,1.6c1.23,0,2.19-0.18,2.88-0.53c0.69-0.36,1.22-0.87,1.6-1.53
				c0.38-0.66,0.61-1.46,0.68-2.38c0.07-0.93,0.11-1.96,0.11-3.1c0-1.33-0.05-2.42-0.14-3.27c-0.1-0.85-0.28-1.54-0.57-2.06
				c-0.33-0.52-0.77-0.95-1.32-1.28c-0.55-0.33-1.27-0.69-2.17-1.07l-5.2-2.14c-3.13-1.28-5.23-2.98-6.3-5.09
				c-1.07-2.11-1.6-4.76-1.6-7.94c0-1.9,0.26-3.7,0.78-5.41c0.52-1.71,1.3-3.18,2.35-4.41c1-1.23,2.27-2.22,3.81-2.95
				c1.54-0.73,3.38-1.1,5.52-1.1c1.8,0,3.45,0.33,4.95,1c1.49,0.67,2.79,1.54,3.88,2.63c2.18,2.28,3.27,4.89,3.27,7.83V122.03z"/>
			<path class="st0" d="M505.88,158.12v-50.68h21.64v6.83h-14.38v14.88h12.53v6.83h-12.53v14.88h14.38v7.26H505.88z"/>
			<path class="st0" d="M555.7,107.44v39.29c0,1.66-0.3,3.19-0.89,4.59c-0.59,1.4-1.44,2.65-2.53,3.74
				c-1.09,1.09-2.35,1.95-3.77,2.56c-1.42,0.62-2.94,0.93-4.55,0.93c-1.61,0-3.12-0.31-4.52-0.93c-1.4-0.62-2.65-1.47-3.74-2.56
				c-1.09-1.09-1.95-2.34-2.56-3.74c-0.62-1.4-0.93-2.93-0.93-4.59v-39.29h7.26v38.58c0,1.8,0.43,3.13,1.28,3.99
				c0.85,0.85,1.92,1.28,3.2,1.28c1.28,0,2.35-0.43,3.2-1.28c0.85-0.85,1.28-2.18,1.28-3.99v-38.58H555.7z"/>
			<path class="st0" d="M562.53,158.12v-50.68h6.98l9.32,26.83h0.14l9.25-26.83h7.05v50.68h-7.26V127.3h-0.14l-7.19,21.78h-3.63
				l-7.12-21.78h-0.14v30.82H562.53z"/>
		</g>
	</g>
	<polygon class="st0" points="26.5,21.28 0.01,21.28 0,0.06 65.56,0.06 65.56,21.28 44.62,21.28 44.62,157.52 26.53,157.52 	"/>
	<polygon class="st0" points="130.9,0.1 184.9,0.1 184.9,21.31 149,21.31 149,67.54 180.28,67.54 180.28,88.78 149.03,88.78 
		149.03,135.09 184.9,135.09 184.9,157.59 130.9,157.59 	"/>
	<polygon class="st0" points="87.21,157.54 87.21,87.38 109.61,87.38 109.61,157.54 127.7,157.54 127.7,0.06 109.65,0.06 
		109.65,67.52 87.21,67.52 87.21,0.06 69.08,0.06 69.08,157.59 	"/>
	<path class="st0" d="M230.79,0.06h-15.11l-28.23,157.47h18.15l5.36-33.82h24.65l5.32,33.82h18.1L230.79,0.06z M214.1,102.48
		l8.87-57.06h0.41l8.85,57.06H214.1z"/>
	<path class="st0" d="M307.94,85.58c1.09-0.69,2.58-1.75,4.17-3.23c4.59-4.28,6.62-8.99,7.6-11.32c0.49-1.18,1.41-3.53,2.33-7.9
		c0.4-1.91,2.07-10.16,1.43-22.52c-0.46-8.92-1.84-14.49-2.26-16.09c-0.99-3.84-2.11-6.74-3.61-9.51c-0.77-1.42-1.85-3.39-3.72-5.57
		c-2.64-3.26-5.39-5.03-7.93-6.28c-6.26-3.08-10.97-3.1-15.84-3.14c-6.91-0.06-27.63,0.04-27.63,0.04v157.47h18.17V90.3h10.84
		l16.86,67.23h19.15L307.94,85.58z M305.47,46.87c-0.01,1.91-0.03,3.73-0.2,6.13c-0.17,2.36-0.28,3.92-0.72,6.02
		c-0.47,2.23-0.77,3.67-1.77,5.4c-0.45,0.77-1.41,2.38-3.31,3.73c-1.45,1.03-2.79,1.46-3.64,1.68c-2.03,0.53-3.7,0.59-4.67,0.59
		c-3.06-0.01-6.53,0-10.56-0.01l0.01-49.11h9.36c1.61,0.02,2.83,0.11,3.77,0.27c1.1,0.2,1.92,0.45,2.23,0.55
		c0.9,0.29,1.96,0.63,3.13,1.37c0.42,0.26,1.87,1.23,3.13,3.06c0.76,1.12,1.12,2.09,1.45,2.96c0.47,1.26,0.66,2.24,0.9,3.44
		c0.32,1.66,0.44,2.92,0.56,4.17c0.16,1.73,0.2,3,0.26,4.72C305.48,43.97,305.48,45.72,305.47,46.87z"/>
	<polygon class="st0" points="332.41,0.06 350.56,0.06 350.56,71.95 350.88,71.95 377.31,0.07 395.47,0.07 370.76,63 370.76,63.24 
		400.06,157.53 380.91,157.53 360.28,87.66 350.52,110.41 350.52,157.53 332.41,157.53 	"/>
	<path class="st1" d="M57.47,97.83c-0.04,0-0.08-0.01-0.13-0.01C57.38,97.85,57.43,97.87,57.47,97.83z"/>
	<path class="st1" d="M57.34,97.82c-0.05-0.03-0.1-0.07-0.12-0.08c0,0.02-0.01,0.05-0.02,0.08C57.25,97.82,57.29,97.82,57.34,97.82z
		"/>
	<path class="st2" d="M125.93,115.74c-0.54-0.03-0.5,2.5-0.22,2.96c0.51,0.86,1.99,0.42,2.72,0.1c0.79-0.36,1.88-0.49,2.01-1.53
		c0.14-1.17-1.27-2.06-2.25-2.17c-0.66-0.07-1.11-0.04-1.67,0.26C126.05,115.6,125.77,115.97,125.93,115.74z"/>
	<path class="st2" d="M130.43,119.85c0.82,0.38,1.41,1.09,2.3,1.28c0.83,0.18,2,0.09,2.28,1.02c0.59,1.97-3.5,0.39-4.11-0.11
		c-0.23-0.19-0.87-0.63-0.94-0.9C129.81,120.63,130.32,120.24,130.43,119.85z"/>
	<path class="st2" d="M356.74,119.12c-0.12-0.27-0.34-0.49-0.68-0.59c-1.07-0.32-1.95-0.54-2.55-0.62l-0.24-0.01
		c-1.36-0.08-1.37,0.59-0.77,2.73c0.27,0.95,0.62,1.85,0.85,2.3c-0.03,0.16-0.01,0.37,0.01,0.55l0.06,0.87
		c0,0.07,0.03,0.18,0.05,0.25l0.32,3.78c0,0,0,0.01,0,0.01c-0.32,15.48,0.38,29.89-0.7,34.47c-0.6,2.56-1.57,2.77-1.12,3.49
		c0.27,0.43,0.56,0.85,0.63,0.86c0.43,0.04,2.25-0.94,2.86-1.69c0.26-0.21,0.47-0.41,0.59-0.6c0.46-0.75,0.35,0.73,0-4.13
		c-0.65-9.05-0.29-19.02,0.02-24.77c0.3-5.55,0.28-9.47-0.08-10.53c-0.01-0.03-0.01-0.05,0-0.08c0.09-0.24,0.13-0.49,0.09-0.79
		l-0.17-1.2c0-0.01,0-0.03,0-0.04c0.03-0.15,0-0.34,0-0.59c0.01-0.81,0.3-1.3,0.79-1.68C357.47,120.52,357.43,119.51,356.74,119.12z
		"/>
	<path class="st2" d="M293.17,137.93c-0.42-0.02-0.71-0.11-1.06-0.32c-0.48-0.15-0.94-0.39-1.27-1.02
		c-0.29-0.09-0.61-0.08-0.86,0.05c-0.1-0.03-0.47,0.17-0.5,0.27c-0.41,0.3-0.56,0.78-0.51,1.32l-0.03,0.1
		c0.78,4.36-4.08,6.41-4.47,7.35v0c-0.3,0.46-0.63,1.25-0.57,1.8c0.01,0.1,0.12,0.15,0.22,0.14c0.57-0.06,1.27,0.33,1.68,0.7
		c0.28,0.25,0.61,0.78,0.72,1.18c0.03,0.09,0.11,0.16,0.2,0.15c0.54-0.07,0.81-0.3,1.08-0.42c1.04-0.63,0.75-1.47,4.13-7.72
		C292.43,140.6,296.4,138.07,293.17,137.93z"/>
	<path class="st2" d="M260.04,108.65c0.35,0.17,0.68,0.48,0.85,0.57c0.94,0.51,1.96,0.9,2.7,1.68c0.36,0.36,0.87,0.37,1.3,0.25
		c0.36-0.1,0.79,0.4,0.96,0.92l0.21,0.38l0.24,0.35l-0.12,0.71c-0.11,0.15-0.16,0.33-0.03,0.58c0.23,0.43,0.29,0.42,0.63,0.85
		c0.06,0.05,0.09,0.13,0.1,0.2c0.17-0.1,0.34-0.22,0.49-0.36c0.28-0.27,0.36-0.5,0.45-0.75c0.09-0.25,0.18-0.95,0.49-1.25l0,0.07
		c0.04-0.04,0.09-0.14,0.13-0.17c0.06-0.05,0.12-0.1,0.13-0.13c0-0.01,0-0.01-0.01-0.02c-0.02-0.02-0.02-0.06,0.03-0.13
		c0.04-0.05,0.15-0.16,0.2-0.13c0.06,0.01,0.53,0.19,0.9,0c0.16-0.08,0.32-0.16,0.45-0.22c0.29-0.16,0.68,0.45,1.02,0.51
		c0.33,0.06,0.64,0.12,0.89-0.01c0.04-0.02,0.09-0.06,0.15-0.1v-1.38c0-0.1-0.08-0.19-0.19-0.19h-6.01c-0.1,0-0.19-0.08-0.19-0.19
		V97.47c0-0.1-0.08-0.19-0.19-0.19h-5.53c-0.1,0-0.19,0.08-0.19,0.19v11.01C259.92,108.56,259.97,108.62,260.04,108.65z"/>
	<path class="st2" d="M267.75,116.64c-0.51,0.06-1.16-0.1-1.16,0.27h5.44c0.1,0,0.19-0.08,0.19-0.19v-3.35
		c0-0.12-0.11-0.21-0.22-0.18c-0.3,0.06-0.57,0.01-0.81-0.04c-0.2-0.04-0.38-0.08-0.5-0.02c-0.08,0.03-0.22,0.19-0.39,0.26
		c-0.54,0.23-1.18,0.84-1.41,0.99c-0.31,0.2,0.42,0.99-0.17,1.55C268.41,116.21,268.21,116.59,267.75,116.64z"/>
	<path class="st2" d="M185.58,120.07l0-0.01c0.69-2.49-0.36-3.65-1.38-4.19c-0.01-0.01-0.02-0.01-0.03-0.01
		c-1-0.42-2.24-0.33-3.04,0.23c-0.56,0.39-0.83,0.95-0.78,1.66c0.02,0.08,1.46,7.86-1.27,13.41c-0.71,1.34,0.72,2.9,1.4,3.29
		l0.31,0.18l0.27-0.24c1.06-0.96,1.81-1.06,2.96-0.08l0.26,0.22l0.3-0.17c0.74-0.41,1.91-1.93,1.79-2.89
		c-0.05-0.26-0.14-0.62-0.25-1.05C185.57,128.14,184.39,123.39,185.58,120.07z"/>
	<path class="st2" d="M181.93,114.34l0.16,0.08l0.17-0.04c0.57-0.14,1.14-0.07,1.6-0.02c0.11,0.01,0.22,0.03,0.32,0.03l0.12,0.01
		l0.11-0.04c0.92-0.37,1.59-0.49,1.67-1.34c0.03-0.34-0.13-0.67-0.36-1.16c-0.46-0.97-1.23-1.94-0.99-4.74
		c0.04-0.45-0.03-0.89-0.18-1.23c0.01-0.05,0.02-0.09,0.02-0.14c0.1-0.81-0.25-1.52-0.28-2.3c0.71-0.69,0.56-1.36,0.4-2.25
		c-0.14-0.78-0.3-1.66-0.02-2.73c0.24-1.12-0.26-1.63-0.49-1.79c-0.4-0.29-0.94-0.31-1.39-0.05c-0.55,0.32-0.84,0.97-0.76,1.69
		c0,0.03,0.05,2.91-0.96,4.5c-0.21,0.35-0.4,0.81-0.01,1.27l0.37,0.44l0.05-0.05c0,0.01,0,0.01,0,0.02
		c-0.07,0.49-0.2,0.99-0.24,1.48c-0.02,0.25-0.01,0.48,0.02,0.7c-0.02,0.2-0.01,0.41,0.03,0.64c0.39,2.11-0.09,2.94-0.47,4.12
		C180.35,112.87,179.95,113.41,181.93,114.34z"/>
	<path class="st2" d="M179.12,118.88l-0.04-0.17c-0.11-0.47-0.06-0.95-0.01-1.34c0.01-0.1,0.02-0.19,0.03-0.27l0.01-0.12l-0.04-0.11
		c-0.32-0.81-1.04-1.4-1.8-1.46c-0.31-0.03-0.6,0.11-1.02,0.31c-0.82,0.39-1.73,1.03-4.08,0.84c-0.55-0.05-1.12,0.08-1.43,0.34
		c-0.01,0.01-0.02,0.02-0.04,0.03c-0.48,0.51-0.57,1.26-0.23,1.88c0.36,0.66,1.08,0.97,1.86,0.81c1.77-0.33,2.56,0.07,3.56,0.4
		c0.51,0.16,0.99,0.32,1.45,0.32c0.74,0,1.28-0.41,1.7-1.3L179.12,118.88z"/>
	<path class="st2" d="M193.79,119.6c0.55,0.05,1.12-0.08,1.43-0.34c0.01-0.01,0.02-0.02,0.04-0.03c0.48-0.51,0.57-1.26,0.23-1.88
		c-0.36-0.66-1.07-0.97-1.86-0.81c-1.77,0.33-3.02-0.07-4.01-0.4c-1.2-0.39-1.66-0.75-2.47,0.98l-0.08,0.16l0.04,0.17
		c0.11,0.47,0.06,0.95,0.01,1.34c-0.01,0.09-0.02,0.18-0.03,0.26l-0.01,0.12l0.04,0.11c0.32,0.81,0.36,1.4,1.11,1.46
		c0.03,0,0.05,0,0.08,0c0.28,0,0.56-0.13,0.95-0.32C190.07,120.05,191.43,119.41,193.79,119.6z"/>
	<path class="st2" d="M184.41,141.47c-0.4,0.17-0.1,0.53-0.6,1.22l-0.06,0.09l0,0.11c-0.01,0.82-0.21,1.83-0.27,2.19
		c-0.05,0.28-0.09,0.56-0.12,0.84c-0.1,0.77-0.26,1.45-0.6,2.1c-0.07,0.14-0.03,0.39-0.15,0.47c-0.09,0.06-0.45,0.05-0.87-0.38
		c-0.21-0.22-0.42-0.42-0.26-0.68c0.32-0.5,0.45-1.08,0.53-1.59c0.02-0.27,0.11-0.57,0.21-0.9c0.14-0.62,0.23-0.75-0.29-1.25
		c-0.03-0.03-0.09-0.06-0.14-0.06c-0.04,0-0.11,0.02-0.16,0.05c-0.11,0.08-0.05,0.08-0.19,0.12c-0.13,0.04-0.19-0.75-0.47-0.91
		l-0.03-0.07c0.16-0.22,0.22-0.4,0.56-0.52c0.27-0.1,0.61-0.55,0.92-0.76c0.43-0.28,0.6-0.58,0.75-0.84
		c0.14-0.25,0.27-0.19,0.6-0.42c0.05-0.03,0.09-0.05,0.14-0.08c0.12-0.07,0.26-0.14,0.33-0.35c0.11,0,0.65,0.3,1.16,0.16l0.21-0.06
		l0.03-0.38c0.13-1.16,0.13-1.47,0.13-1.51c-0.02-1.35-0.56-2.07-1.54-2.61c-0.91-0.5-2.04-0.47-2.96,0.08
		c-0.97,0.59-1.51,1.66-1.48,2.98c0.04,0.19,0.36,1.93,0.71,4.28l0.07,0.49c-0.18,0.13-0.31,0.28-0.35,0.47l-0.02,0.12l0.01,0.04
		c0.33,2.24,0.47,3.96,0.65,5.82l0.06,0.21l0.23,0.06c0.08,0.01,0.15,0.01,0.22,0.01c0.34,0,0.61-0.11,0.79-0.33
		c0.08-0.1,0.13-0.23,0.16-0.36c0.01,0.02,0.14,0.39,0.15,0.41c0.12,0.18,0.4,0.86,0.42,1.1l-0.17,0.18l-0.23,0.31l-0.76,0.12
		l0.03,0.31c0.3,3.45,0.08,5.43-0.25,6.87c-0.74,3.04-0.84,2.81-0.42,3.4c0.3,0.42,0.8,0.47,1.38,0.53c0.14,0.01,0.3,0.03,0.48,0.05
		c0.19,0.02,0.37,0.03,0.54,0.03c0.85,0,1.46-0.24,1.82-0.71c0.54-0.71,0.49-0.55-0.17-2.25c-0.73-1.89-0.52-7.98,0.62-18.09
		l0.05-0.47l-0.46,0.11C184.87,141.32,184.57,141.4,184.41,141.47z"/>
	<path class="st2" d="M284.91,149.3c-0.14-0.11-0.29-0.2-0.44-0.28c-0.47-0.25-0.99-0.38-1.51-0.44c-0.26-0.03-0.53-0.05-0.78,0.02
		c-0.59,0.17-0.8,0.85-1.02,1.36c-0.39,0.91-0.39,1.39-0.96,2.21c-0.69,0.98-1.56,1.82-2.49,2.57c-2.07,1.69,0.59,3.73,2,1.9
		c2.67-3.49,5.04-2.99,5.82-4.15c0.4-0.59,0.39-1.36,0.23-2.02C285.65,149.99,285.31,149.59,284.91,149.3z"/>
	<path class="st2" d="M345.2,142.59c-0.05-0.08-0.15-0.11-0.24-0.08l-4.05,1.71c-0.1,0.04-0.15,0.16-0.09,0.26
		c0.69,1.27,1.32,2.65,2.07,4.09c0.05,0.1,0,0.23-0.1,0.27l-7.64,2.72c-0.12,0.04-0.25-0.05-0.25-0.18v-9.77
		c0-0.1,0.08-0.19,0.19-0.19h14.31c0.1,0,0.19-0.08,0.19-0.19v-23.17c0-0.1-0.08-0.19-0.19-0.19h-0.55
		c-0.09,0.07-0.17,0.13-0.25,0.18l-0.35,0.33c-0.1,0.09-0.19,1.34-0.29,1.45c-0.25,0.27-0.52,0.48-0.81,0.56
		c-0.17,0.05-0.89,0.01-1.17-0.12c-0.19-0.08-0.36-0.15-0.49-0.11c-0.08,0.02-0.23,0.05-0.42,0.09c-0.57,0.12-1.44,0.31-1.7,0.42
		c-0.34,0.14-0.74,0.47-1.21,1.14c-0.2,0.28-0.64,0.1-1.05,0.27c-0.43,0.18-0.56-0.06-0.79,0.18c-0.14,0.15-0.12,0.11-0.18,0.36
		h3.62c0.1,0,0.19,0.08,0.19,0.19v4.22c0,0.1-0.08,0.19-0.19,0.19h-8.68c-0.1,0-0.19-0.08-0.19-0.19v-4.22
		c0-0.1,0.08-0.19,0.19-0.19h3.32c0.05-0.21,0.1-0.46,0.18-0.79c0.1-0.39,0.46-0.53,0.88-0.68c0.24-0.09,0.52-0.19,0.76-0.35
		c0.32-0.22,0.45-0.43,0.58-0.65c0.13-0.23,0.27-0.47,0.63-0.71h0c0.05-0.03,0.1-0.06,0.14-0.08c0.07-0.04,0.14-0.07,0.15-0.1
		c0,0,0-0.01,0-0.02c-0.01-0.02-0.01-0.06,0.05-0.12c0.05-0.04,0.17-0.13,0.22-0.1c0.06,0.02,0.6-0.14,1-0.25
		c0.18-0.05,0.34-0.1,0.48-0.14c0.31-0.1,0.65,0.02,0.97,0.14c0.31,0.12,0.61,0.23,0.88,0.15c0.27-0.08,0.87-0.54,1.39-1.02h-17.13
		c-0.1,0-0.19,0.08-0.19,0.19v32.76c0,2.4-1.29,3.39-2.36,3.9c-0.1,0.05-0.14,0.16-0.08,0.26c0.75,1.31,1.58,3.49,1.9,4.9
		c0.03,0.13,0.18,0.19,0.29,0.12c1.33-0.92,3.83-2.03,15.8-6.77c0.09-0.04,0.21,0.01,0.25,0.1c0.76,1.77,1.52,3.36,2.05,4.72
		c0.04,0.1,0.16,0.15,0.26,0.1l4.26-2.1c0.09-0.04,0.13-0.15,0.09-0.24C350.47,152.46,347.62,146.77,345.2,142.59z M334.89,132
		c0-0.1,0.08-0.19,0.19-0.19h8.68c0.1,0,0.19,0.08,0.19,0.19v4.5c0,0.1-0.08,0.19-0.19,0.19h-8.68c-0.1,0-0.19-0.08-0.19-0.19V132z"
		/>
	<path class="st2" d="M278.74,137.1c0.17,0.08,1.07,1.89,2.88-0.74c1.48-2.14,2.82-2.74,3.81-3.15c1.15-0.58,1.65-1.32,1.73-1.4
		c-1.07-0.08-1.73-0.74-1.89-0.82c-0.49-0.42-0.74-0.95-0.81-1.51c-0.02-0.14-0.19-0.2-0.3-0.12c-0.45,0.34-0.83,0.82-1.03,1.3
		c-0.99,1.89-2.25,3.07-3.4,3.57C276.76,136.02,278.74,137.01,278.74,137.1z"/>
	<path class="st2" d="M273.06,138.76c-0.02-0.12-0.15-0.19-0.26-0.14c-0.5,0.23-0.37,0.19-0.8,0.26c-1.07,0.08-0.74,1.48,0.33,0.99
		c0.58-0.35,0.5-0.2,0.87-0.2c0.14,0,0.23-0.15,0.16-0.27C273.26,139.22,273.1,138.99,273.06,138.76z"/>
	<path class="st2" d="M277.69,137.98c-0.53-0.33-0.79-0.87-0.79-1.37c0-0.14-0.15-0.24-0.27-0.17c-0.76,0.42-1.34,0.55-1.49,0.55
		c-0.74,0.25-1.15,0.74-0.82,1.48c0.66,1.48,1.89,0.08,3.62-0.25C277.85,138.14,277.77,138.06,277.69,137.98z"/>
	<path class="st2" d="M32.55,152.25c-0.43,0.01-0.95,0.25-1.74,0.78c-0.33,0.22-0.43,0.27-0.95,0.29c-0.54,0.01-1.04,0.03-1.22,0.28
		c-1.19,0.35-2.81-0.12-3.94,0.43c-0.18,0.09-0.32,0.2-0.43,0.32c-0.07,0.03-0.14,0.06-0.2,0.1l0.12-0.12
		c-0.59,0.37-0.59,3.09-4.06,5.51c-2.01,1.44,0.65,3.7,2.11,2.11c1.97-2.38,3.98-2.48,5.06-2.98l0,0c0.91-0.23,3.99-1.87,5.17-2.92
		c0.18-0.12,0.34-0.28,0.47-0.48l0,0c0.06-0.09,0.71-1.01,2.03-3.01c-0.1-0.01-0.22-0.03-0.36-0.06
		C33.91,152.4,32.87,152.24,32.55,152.25z"/>
	<path class="st2" d="M44.06,140.19c-2.48,0.34-5.1-1.01-6.03-3.28c-0.05-0.13-0.22-0.17-0.31-0.07c-1.38,1.51-2.86,9.6-8.48,12.83
		c-2.19,1.19-2.29,2.25-1.53,3.58c0.16-0.28,0.36-0.59,0.55-0.87c0.27-0.39,0.78-0.5,1.3-0.49c0.3,0.01,0.66,0.28,1,0.21
		c0.44-0.1,0.6-0.3,0.84-0.49c0.24-0.2,0.5-0.4,0.99-0.52l0.08-0.01c0.07-0.01,0.05-0.01,0.11-0.02c0.09-0.01,1.33-0.1,1.82-0.06
		c0.21,0.02,0.41,0.03,0.58,0.05c0.16,0.01,0.32,0.07,0.47,0.15c2.14-3.2,5.41-7.31,8.78-10.71
		C44.35,140.38,44.24,140.17,44.06,140.19z"/>
	<path class="st2" d="M308.21,134.65c-0.07,0.06-0.14,0.12-0.2,0.17c-0.1,0.08-0.2,0.15-0.2,0.21c0,0.01,0,0.02,0.01,0.04
		c0.03,0.03,0.04,0.1-0.05,0.21c-0.06,0.08-0.24,0.25-0.33,0.22c-0.07-0.01,0.24,0.63-0.19,0.84c-0.03,0.02-0.06,0.04-0.08,0.07
		c-0.29,0.52-0.8,1.4-1.04,1.71c-0.66,0.83-1.18,1.78-2.07,2.38c-0.42,0.29,0.13,1-0.05,1.42c-0.44,1.07-0.88,1.03-1.3,1.28
		l-0.38,0.23l-0.42,0.2c-0.76,5.8-1.6,7.64-2.58,8.76c-0.69,0.96-1.37,1.24-2.47,1.24c-1.25,0-3.64,0-6.37-0.24
		c-0.15-0.01-0.25,0.14-0.18,0.27c0.91,1.71,1.51,4.04,1.61,5.78c0.01,0.1,0.08,0.17,0.18,0.17c2.96,0.13,5.77,0.19,7.59-0.15
		c2.2-0.34,3.57-0.96,5.01-3.02c1.89-2.37,3.1-8.49,4.17-22.71C308.73,134,308.56,134.31,308.21,134.65L308.21,134.65z"/>
	<path class="st2" d="M302.63,141.36c0.02-0.26,0.02-0.58,0.04-0.84c0.03-0.37,0.19-0.68,0.58-0.91c0.44-0.25,0.78-0.62,1.11-1.03
		c0.17-0.26,0.41-0.49,0.64-0.73c0.31-0.36,0.65-1.02,0.75-1.58c-0.2,0.1-0.39,0.2-0.56,0.28c-0.47,0.26-1.03,0.15-1.58,0.05
		c-0.31-0.06-0.62-0.11-0.9-0.1c-0.09,0-0.17,0.08-0.18,0.18c-0.19,1.99-0.38,3.77-0.57,5.34
		C302.31,142.06,302.56,141.83,302.63,141.36z"/>
	<path class="st2" d="M143.82,157.88c-0.03-0.97,0.19-1.42,0.66-2.05c0.09-0.12,0.01-0.29-0.14-0.3c-1.63-0.14-3.6,1.26-6.26,0.1
		c-1.87-0.87-1.73,1.14-1.8,1.27c0,0-0.35,1.07,0.32,1.53c0.13,0.07,0.38,0.21,1.11,0.12c2.74-0.38,5.32,1.58,6.86,1.49
		c0.17-0.01,0.25-0.22,0.12-0.33C144.21,159.25,143.85,158.66,143.82,157.88z"/>
	<path class="st2" d="M193.99,109.57h16.78c0.1,0,0.19-0.08,0.19-0.19v0.19v2.88v0.19c0-0.1-0.08-0.19-0.19-0.19h-8.22
		c-0.19,0-0.26,0.26-0.09,0.35c0.46,0.24,0.89,0.52,1.26,0.9c0.36,0.36,0.43,0.37,0.87,0.25c0.36-0.1,0.36-0.05,0.66,0.04
		c0,0,0.29,0.15,0.37,0.23c0.15,0.16,0.21,0.5,0.21,0.5l-0.12,0.71c-0.11,0.15,0.02,0.33,0.15,0.58c0.11,0.22,0.19,0.45,0.27,0.69
		h4.65c0.1,0,0.19-0.08,0.19-0.19v0.19v3.16v0.19c0-0.1-0.08-0.19-0.19-0.19h-8.82c-0.1,0-0.19-0.08-0.19-0.19v-2.78
		c0-0.1,0.08-0.19,0.19-0.19h2.51c-0.12-0.29-0.13-0.23-0.3-0.24c-0.33-0.03-0.07-0.38,0.04-0.5c0.27-0.27,0-0.71-0.66-0.69
		c-0.26,0.03-0.57,0.08-0.83,0.11c-0.37,0.03-0.71-1.17-1-1.51c-0.32-0.39-0.74-0.66-1.21-0.92c-0.27-0.12-0.52-0.29-0.77-0.47
		c-0.03-0.02-0.07-0.03-0.11-0.03h-3.08c-0.1,0-0.19,0.08-0.19,0.19v23.65c0,0.1,0.08,0.19,0.19,0.19h5.04
		c0.1,0,0.19-0.08,0.19-0.19v-5.87c0-0.1,0.08-0.19,0.19-0.19h8.82c0.1,0,0.19-0.08,0.19-0.19v0.19v4.89c0,0.1,0.08,0.19,0.19,0.19
		h5.53c0.1,0,0.19-0.08,0.19-0.19v-4.89v-0.19c0,0.1,0.08,0.19,0.19,0.19h8.89c0.1,0,0.19,0.08,0.19,0.19v1.53
		c0,0.62-0.21,0.82-0.89,0.82c-0.65,0.06-2.42,0.07-4.47,0.01c-0.15,0-0.25,0.15-0.17,0.28c0.57,1.03,1.26,2.39,1.59,3.5
		c0.02,0.08,0.1,0.13,0.18,0.13c3.29,0,5.58-0.01,7.27-0.62c1.65-0.69,2.13-1.58,2.13-3.98v-2.2v-4.09v-3.01v-1.19v-8.68
		c-0.21,0.02-0.43,0.04-0.65,0.02c-0.52-0.03-0.93-0.24-1.48-0.27c-0.5-0.03-1.01,0.02-1.5-0.01c-0.23-0.27-1.49-0.12-1.89-0.16
		c-0.1-0.01-0.21-0.03-0.32-0.04h-8.87c-0.1,0-0.19,0.08-0.19,0.19v-0.19v-2.88v-0.19c0,0.1,0.08,0.19,0.19,0.19h17.2
		c0.1,0,0.19-0.08,0.19-0.19v-4.63c0-0.1-0.08-0.19-0.19-0.19h-3.07c-0.16,0-0.25-0.18-0.15-0.3l1.42-1.86
		c0.07-0.09,0.05-0.22-0.05-0.28c-2.35-1.36-6.58-3.38-9.71-4.78c-0.02-0.01-0.04,0-0.06-0.01c-0.31,1.6-0.45,3.03-0.74,4.62
		c1.4,0.73,2.88,1.52,4.26,2.25c0.17,0.09,0.11,0.36-0.09,0.36h-9c-0.1,0-0.19,0.08-0.19,0.19v-0.19v-7.09
		c0-0.1-0.08-0.19-0.19-0.19h-5.53c-0.1,0-0.19,0.08-0.19,0.19v7.09v0.19c0-0.1-0.08-0.19-0.19-0.19h-13.64
		c-0.74,0.22-1.46,0.35-2.25,0.38c-0.34,0.01-0.72,0.1-1.08,0.21v4.23C193.8,109.48,193.88,109.57,193.99,109.57z M210.96,123.64
		v2.88v0.19c0-0.1-0.08-0.19-0.19-0.19h-8.82c-0.1,0-0.19-0.08-0.19-0.19v-2.51c0-0.1,0.08-0.19,0.19-0.19h8.82
		c0.1,0,0.19-0.08,0.19-0.19V123.64z M216.86,119.87v-3.16v-0.19c0,0.1,0.08,0.19,0.19,0.19h8.89c0.1,0,0.19,0.08,0.19,0.19v2.78
		c0,0.1-0.08,0.19-0.19,0.19h-8.89c-0.1,0-0.19,0.08-0.19,0.19V119.87z M216.86,126.52v-2.88v-0.19c0,0.1,0.08,0.19,0.19,0.19h8.89
		c0.1,0,0.19,0.08,0.19,0.19v2.51c0,0.1-0.08,0.19-0.19,0.19h-8.89c-0.1,0-0.19,0.08-0.19,0.19V126.52z"/>
	<path class="st2" d="M24.02,114.92h14.23c0.09,0,0.17-0.07,0.19-0.16c0.17-1,0.18-2.05,0.39-3.04c0.06-0.26,0.05-0.55-0.02-0.81
		c-0.06-0.23-0.68-0.58-0.87-0.78c-0.02-0.02-0.24-0.24-0.26-0.26c-0.33-0.35-0.75-0.58-1.21-0.78c-0.26-0.09-0.51-0.24-0.76-0.39
		c-0.03-0.02-0.06-0.03-0.1-0.03h-6.49c-0.02,0.01-0.04,0.01-0.06,0.02c-1.13,0.4-3.92-0.39-4.25,0.87
		c-0.38-0.11-0.69-0.12-0.98-0.06v5.23C23.83,114.84,23.92,114.92,24.02,114.92z"/>
	<path class="st2" d="M327.9,116.15c2.27-1.55,4.66-3.49,6.79-5.55l0.06-0.06c-0.04,0.04-0.06,0.08-0.06,0.13v3.58
		c0,0.1,0.08,0.19,0.19,0.19h11.36c0.1,0,0.19-0.08,0.19-0.19v-4.02c0-0.1-0.08-0.19-0.19-0.19h-11c0.79-0.79,0.91-0.88,1.67-1.75
		c-0.09-0.05-0.18-0.09-0.26-0.14c-0.1-0.06-0.24-0.09-0.3-0.17c-1.06-1.57-2.75-1.91-4.35-2.4c-0.06-0.02-0.13,0-0.18,0.04
		c-2.28,2.19-4.13,3.37-6.58,4.88c-0.09,0.05-0.12,0.16-0.06,0.25c0.83,1.35,2.02,3.99,2.44,5.29
		C327.65,116.17,327.79,116.22,327.9,116.15z"/>
	<path class="st2" d="M272.83,127.54l-6.76,1.93c-0.12,0.03-0.24-0.06-0.24-0.18v-12.38h0.13c0-0.02,0.01-0.15,0.01-0.18
		c0.02-0.35,0.06-0.26-0.13-0.57c-0.23-0.37-0.23-0.16-0.39-0.39c-0.38-0.58-0.2-0.43-0.48-1.06c-0.12-0.22,0.02-0.51,0.13-0.74
		c0.29-0.6-0.1-1.11-0.4-1.31c-0.27-0.18-0.6,0.32-0.83,0.18c-0.32-0.19-0.4-0.35-0.69-0.69c-0.32-0.39-0.74-0.66-1.21-0.92
		c-0.29-0.13-0.56-0.32-0.83-0.51c-0.3-0.18-0.76-0.34-1.22-0.42v0.55h-4.17c-0.12,0-0.2-0.1-0.19-0.22
		c0.45-2.76,0.78-5.57,1.11-8.39c0.01-0.1-0.06-0.19-0.16-0.21l-5.04-0.83c-0.11-0.02-0.21,0.06-0.22,0.17
		c-0.68,8.03-1.9,16.5-4.24,22.02c-0.04,0.09-0.01,0.19,0.08,0.23c1.24,0.66,3.26,1.85,4.32,2.65c0.1,0.08,0.24,0.04,0.29-0.08
		c0.98-2.54,1.9-5.69,2.69-9.16c0.02-0.09,0.1-0.15,0.18-0.15h5.15c0.1,0,0.19,0.08,0.19,0.19v14.08c0,0.08-0.06,0.16-0.14,0.18
		c-4.53,1.27-8.74,2.4-12.1,3.28c-0.1,0.03-0.16,0.13-0.13,0.23l1.23,4.56c0.32-0.01,0.67-0.05,0.96,0.03
		c0.01,0.14,0.03,0.26,0.04,0.4c0.28,0.07,0.46,0.01,0.68-0.1c0.11,0.15,0.36,0.34,0.59,0.4c0.04-0.08,0.08-0.16,0.19-0.23
		c0.11,0.03,0.14,0.09,0.13,0.19l8.31-2.54c0.12-0.04,0.24,0.05,0.24,0.18v11.52c0.29,0.31,0.57,0.69,0.63,1.09
		c0.09,0.65-0.29,1.3-0.32,1.95c-0.04,1.06,0.33,2.1,0.09,3.15c-0.05,0.21-0.29,0.63-0.24,0.83c0.04,0.16,0.13,0.12,0.2,0.24
		c0.12,0.21,0.23,0.54,0.26,0.78c0.1,0.75,0,1.62,0,2.37c0,0.18,0.01,0.36,0.02,0.53h5.07c0.1,0,0.19-0.08,0.19-0.19v-24.25
		c0-0.08,0.05-0.16,0.13-0.18c2.58-0.79,5.16-1.59,7.75-2.45c0.09-0.03,0.14-0.12,0.13-0.21l-0.77-5.26
		C273.05,127.59,272.94,127.51,272.83,127.54z"/>
	<path class="st2" d="M83.43,108.68H56.32c-0.21,0-0.26-0.28-0.08-0.36l3.6-1.56c0.09-0.04,0.14-0.14,0.11-0.24
		c-0.8-2.22-2.32-5.28-3.79-7.97c-0.62-0.41-1.28-0.95-1.33-1.22c-0.44,0.09-0.91,0.31-1.3,0.58c-0.19-0.18-0.41-0.28-0.65-0.34
		l-3.79,1.42c-0.11,0.04-0.16,0.16-0.1,0.26c1.51,2.84,3.24,6.51,4.14,9.18c0.04,0.12-0.05,0.25-0.18,0.25H38.16
		c0.66,0.26,1.32,0.54,1.86,1.02c0.37,0.32,0.84,0.29,1.25,0.15c0.33-0.12,0.62-0.1,0.91-0.04l0.17,0.28l0.95,0.31l0.2,0.74
		c-0.09,0.15-0.14,0.33,0,0.56c0.25,0.39,0.34,0.89,0.69,1.27c0.11,0.09-0.72,0.28-0.85,0.41c-0.17,0.16-0.3-0.03-0.37-0.15
		c-0.39-0.53-0.63-0.02-0.94-0.6c-0.12-0.2-0.04-0.41,0.04-0.63c0.24-0.59-0.05-0.96-0.67-0.9c-0.25,0.05-0.53,0.12-0.78,0.16
		c-0.17,0.03-0.34,0.02-0.49-0.03c0.11,1.11-0.03,1.14-0.22,2.24c-0.05,0.33-0.03,0.63,0.04,0.91l-0.06,0.53h1.52l-0.21,12.92
		c-0.01,0.37,0.01,0.69,0.02,1.02c0,0.04,0,0.09,0.01,0.31c0.02,0.73-0.06,1.38-0.22,1.97c-0.16,0.59-0.41,1.13-0.73,1.63
		c-0.14,0.22-0.22,0.31-0.38,0.48c-0.01,0.01,0.02-0.02-0.08,0.09c-0.46,0.49-0.69,1.02-0.75,1.54c-0.05,0.41,0.01,0.81,0.17,1.18
		c0.15,0.36,0.38,0.69,0.69,0.97c0.51,0.47,1.21,0.8,2.01,0.9c0.85,0.1,1.63-0.12,2.47-0.36c0.85-0.24,1.54-0.73,2.2-1.25
		c1.59-1.32,1.13-2.28,0.45-3.25c-0.23-0.32-0.11-0.68-0.17-0.99c-0.03-0.15-0.01-0.42,0-0.66c0-0.08,0.01-0.16,0.01-0.28l0.01-0.29
		h-0.19c0.1,0,0.19-0.08,0.19-0.19l0.06-3.37l-0.06,3.36c0,0.11,0.08,0.19,0.19,0.19h22.95c0.11,0,0.2,0.1,0.19,0.21
		c-1.09,13.86-2.33,20.19-4.24,21.76c-0.89,0.69-1.79,0.82-3.3,0.82c-1.87,0-6.34-0.06-11.07-0.45c-0.16-0.01-0.26,0.16-0.17,0.29
		c1.14,1.71,1.93,4.03,2.03,5.76c0.01,0.09,0.08,0.17,0.17,0.17c4.54,0.27,8.93,0.33,11.44,0.13c2.88-0.27,4.67-0.82,6.52-2.68
		c2.13-2.18,3.39-7.2,4.46-18.16c0,0,0-0.12,0-0.32c0.01,0,0.02,0.01,0.03,0.01c0.3-3.12,0.58-6.71,0.87-10.84c0-0.01,0-0.02,0-0.02
		c0.17-0.73,0.24-2.15,0.26-2.68c0-0.11-0.08-0.2-0.19-0.2H47.18c-0.1,0-0.19,0.08-0.19,0.19l0-0.19l0.16-9.56
		c0-0.11-0.08-0.19-0.19-0.19h0.19h1.72h1.37h33.18c0.1,0,0.19-0.08,0.19-0.19v-5.87C83.62,108.76,83.54,108.68,83.43,108.68z
		 M71.03,138.24c-0.01-0.01-0.02-0.01-0.03-0.03c-0.02-0.02-0.03-0.05-0.03-0.06C70.99,138.18,71.01,138.21,71.03,138.24z"/>
	<path class="st2" d="M127.6,113.84c-0.48,0-0.48,1.45-1.93,1.93c-0.48,0,2.9,0.97,3.38,2.41c0.48,0.48,0.48,0.48,1.45-0.48
		c0.48-0.48,0-1.45,0-1.93C130.5,114.8,128.57,113.84,127.6,113.84z"/>
	<path class="st2" d="M125.67,118.66c0,0.48,0.48,1.45,0.97,0.97c0.48,0,1.24-0.28,1.24-0.76c0-0.45-1.28-1.33-1.83-1.44
		c-0.06-0.01-0.13,0.02-0.17,0.06C125.47,117.95,125.67,118.21,125.67,118.66z"/>
	<path class="st2" d="M131.07,118.93c0,0.48,1.25-0.01,2.23,1.62c0.35,0.59,1.55,0.04,2.03-0.44c0.48-0.48-0.93-1.9-1.43-2.4
		c-0.01-0.01-0.02-0.02-0.04-0.03c-0.92-0.47-1.83-1.77-2.31-1.5c-0.05,0.03-0.08,0.09-0.08,0.15c0,0,0.53,0.61,0.59,1.07
		c0.05,0.38-0.22,0.93-0.26,0.96C131.38,118.8,131.07,118.47,131.07,118.93z"/>
	<path class="st2" d="M129.51,119.8c-0.61,0.12-1.6,0.73-1.86,0.81c-0.03,0.01-0.06,0.03-0.09,0.06c-0.34,0.4-0.11,0.55,0,1.05
		c0.02,0.12,0.15,0.19,0.26,0.14c0.37-0.19,1.33-0.33,3.64,0.66c0.44,0,0.48-0.4,0.84-0.83c0.06-0.08,0.06-0.19-0.01-0.26
		c-0.45-0.44-0.88-0.88-1.32-1.32C130.5,119.63,130.06,119.66,129.51,119.8z"/>
	<path class="st2" d="M134.74,121.56c-0.4,0-0.43,0.03-0.88,0.48c-0.48,0-0.97,0.48-0.48,1.45c0.45,0.45,1.32,1.32,1.83,1.44
		c0.06,0.01,0.13-0.02,0.17-0.07c0.41-0.46,0.41-0.91,0.41-1.37c0-0.46-0.45-1.37-0.91-1.87
		C134.85,121.58,134.79,121.56,134.74,121.56z"/>
	<path class="st2" d="M132.14,142.87c0.63,0.2,1.23,0.4,1.75,0.85c0.21,0.18,0.4,0.51,0.69,0.59c0.38,0.1,0.54-0.25,0.7-0.58
		l-0.28-0.68c-0.53-0.33-1.07-0.92-1.53-1.19c-0.05-0.03-0.08-0.07-0.09-0.13c-0.14-0.94-0.34-1.68-0.63-2.48
		c-0.22-0.62-0.36-0.92-0.95-1.23c-0.58-0.33-1.2-0.01-1.78-0.24c-0.55-0.21-1.23-1.1-1.06,0.03c0.23,1.4,0.55,2.67,0.34,4.13
		c-0.13,0.91,0.38,0.72,1.07,0.67C130.97,142.56,131.6,142.69,132.14,142.87z"/>
	<path class="st2" d="M128.05,140.46c-0.03-0.54,0.12-1.37-0.39-1.68c-0.28-0.17-0.6-0.09-0.9-0.22c-0.28-0.13-0.5-0.4-0.78-0.53
		c-0.5-0.22-0.82-0.04-1.3,0.18c-0.64,0.3-0.84,0.85-0.46,1.42c0.43,0.65,1.18,0.95,1.79,1.4c0.52,0.38,0.54,0.5,0.93,1.02
		c0.23,0.3,0.35,1.06,0.92,0.95c0.21-0.04,0.25-0.33,0.2-0.82C127.98,141.43,128.09,141.2,128.05,140.46z"/>
	<path class="st2" d="M135.45,146.01c0.01-1.05-1.04-1.27-1.79-1.77l-0.38-0.25c-0.02,0.02-0.03,0.04-0.05,0.06
		c-0.12-0.07-0.25-0.12-0.39-0.14c-0.02-0.14-0.09-0.21-0.1-0.36c-0.01,0-0.02,0-0.02,0c0.01-0.02,0.01-0.03-0.03-0.1l-0.18,0.07
		c-0.22,0.08-0.32-0.11-0.5-0.19c-0.14-0.05-0.29,0.48-0.44,0.68c-0.04,0.03-0.08,0.05-0.12,0.08c-0.32-0.06-0.51-0.23-0.87-0.21
		c-0.59,0.04-0.92-0.06-0.85,0.56c0.02,0.19,0.07,0.27,0.17,0.33c0.27,0.38,0.88,0.28,1.28,0.43c0.2,0.07,0.35,0.17,0.48,0.27
		c0.31,0.45,1.05,0.86,1.33,1.1c0.52,0.47,0.88,1.15,1.1,1.83c0.16,0.44,0.54,1.78,1.11,0.87c0.3-0.48,0.21-1.1,0.23-1.65
		C135.44,147.1,135.45,146.53,135.45,146.01z"/>
	<path class="st2" d="M235,139.77h-9.1c-0.1,0-0.19-0.08-0.19-0.19v-2.64c0-0.1-0.08-0.19-0.19-0.19h-5.32
		c-0.1,0-0.19,0.08-0.19,0.19v2.64c0,0.1-0.08,0.19-0.19,0.19h-28.11c-0.1,0-0.19,0.08-0.19,0.19v4.77c0,0.1,0.08,0.19,0.19,0.19
		h8.49c0.17,0,0.25,0.2,0.13,0.32l-2.06,2.06c-0.08,0.08-0.07,0.21,0.02,0.28c3.28,2.41,7.58,5.68,9.85,7.84
		c0.08,0.07,0.19,0.07,0.26-0.01l3.72-4.04c0.07-0.08,0.07-0.2-0.02-0.27c-1.9-1.56-5.05-3.85-7.88-5.85
		c-0.15-0.11-0.07-0.34,0.11-0.34h15.49c0.1,0,0.19,0.08,0.19,0.19v0.73h-0.01v6.79h0.01v1.22c0,0.75-0.27,0.96-1.3,1.03
		c-0.93,0.07-4.19,0.07-7.58-0.06c-0.14-0.01-0.24,0.14-0.18,0.26c0.68,1.46,1.28,3.52,1.56,5c0.02,0.09,0.1,0.15,0.19,0.15
		c4.85,0,8.1-0.08,10.21-0.89c2.27-0.89,2.81-2.47,2.81-5.42v-1.28v-3.58v-3.09v-0.12v-0.73c0-0.1,0.08-0.19,0.19-0.19h9.1
		c0.1,0,0.19-0.08,0.19-0.19v-4.77C235.19,139.86,235.11,139.77,235,139.77z"/>
	<path class="st2" d="M160.59,127.99c-0.11-0.02-0.32,0.11-0.44,0.18c-0.04,0.02-0.17,0.1-0.28,0.16c-0.26,0.15-0.42,0.05-0.61-0.01
		c-0.23-0.08-0.4-0.19-0.71,0.03c-0.15,0.11-0.27,0.33-0.46,0.47c-0.21,0.15-0.29,0.18-0.33,0.36c-0.05,0.29-0.04,0.56-0.14,0.65
		c-0.57,0.49-0.93-1.15-0.9-1.6c0.01-0.12,0.07-0.18,0.23-0.37c0.15-0.17,0.44-0.6,0.56-0.71c0.17-0.14,0.67-0.08,0.85-0.12
		c0.2-0.05,0.48-0.18,0.64-0.36h0c0.02-0.02,0.04-0.04,0.07-0.06c0.03-0.03,0.48-0.23,0.68-0.35c0.09-0.05,0.17-0.1,0.24-0.14
		c0.15-0.1,0.35-0.07,0.54-0.05c0.18,0.02,0.35,0.04,0.49-0.04c0.04-0.02,0.14-0.18,0.14-0.29h-9.6c-0.1,0-0.19-0.08-0.19-0.19
		v-21.24c-0.53,0.02-1.06,0.05-1.59,0.01c-1.02-0.06-2.13-0.28-3.16-0.2c-0.62,0.05-1.14,0.44-1.78,0.4
		c-0.6-0.03-1.15-0.48-1.73-0.52c-0.73-0.06-1.63-0.02-2.31,0.04c-0.04-0.08-0.11-0.15-0.2-0.2h-9.35c-0.15,0-0.24-0.15-0.16-0.28
		c1.21-2.01,2.41-4.47,3.56-6.82c0.06-0.12-0.02-0.26-0.15-0.27l-2.65-0.26c-0.24,0.03-0.48,0.06-0.72,0.08
		c-0.44,0.04-0.91,0.01-1.34,0.04c-0.4,0.02-0.54-0.11-0.88-0.16c-0.55-0.09-1.26,0.08-1.78,0.18c-0.13,0.02-0.24,0.04-0.35,0.04
		c-0.57,2.27-1.48,5.04-2.47,7.33c-0.03,0.07-0.1,0.11-0.17,0.11h-8.15c0.03,0.02,0.06,0.04,0.08,0.06l0.5,0.26
		c0.13,0.07,0.28,0.13,0.44,0.2c0.4,0.17,0.81,0.34,0.94,0.67c0.01,0.02,0.01,0.04,0.02,0.05l0.02-0.01l0.02,0.02
		c0.31,0.44,0.29,0.9,0.28,1.27c-0.01,0.24-0.02,0.45,0.07,0.59c0.06,0.09,0.15,0.24,0.26,0.42c0.37,0.59,0.92,1.47,1.14,1.72
		c0.22,0.24,0.59,0.44,1.16,0.64c0.02,0.01,0.04,0.01,0.07,0.01h23.69c0.1,0,0.19,0.08,0.19,0.19v15.62c0,0.1-0.08,0.19-0.19,0.19
		h-27.9c-0.1,0-0.19-0.08-0.19-0.19v-1.53v-14.09c0-0.1,0.08-0.19,0.19-0.19h1.57l0.04-0.18l0.01-0.01c0.13-0.15,0.03-0.3-0.03-0.39
		c-0.03-0.05-0.05-0.07-0.04-0.1c0-0.08-0.39-0.62-0.68-1.01c-0.12-0.17-0.24-0.33-0.34-0.47c-0.24-0.3-0.23-0.72-0.22-1.13
		c0.01-0.39,0.01-0.76-0.19-1.03c-0.28-0.38-1.7-1.22-2.64-1.57c-0.02-0.01-0.04-0.01-0.07-0.01h-3.8c-0.1,0-0.19,0.08-0.19,0.19
		v19.92v1.6c0,0.1-0.08,0.19-0.19,0.19h-4.82c-0.04,0.14-0.08,0.23-0.07,0.4c0,0.09,0.04,0.24-0.02,0.31
		c-0.2,0.24-1.15-0.23-1.35-0.31c-0.22-0.1-0.43-0.31-0.64-0.4h-0.07c-0.01,0.09-0.02,0.18-0.03,0.27c-0.3,0.11-0.79-0.04-1.08-0.12
		c-0.05-0.02-0.09-0.08-0.18-0.09c-0.09-0.01-0.19,0.03-0.28,0.01c-0.09-0.02-0.17-0.05-0.23-0.08h-0.21
		c-0.04,0.03-0.07,0.09-0.11,0.18c-0.07,0.16-0.11,0.39-0.31,0.43c-0.07-0.2,0.06-0.32-0.14-0.43c-0.08-0.04-0.32-0.03-0.5-0.02
		c0,0.01-0.01,0.01-0.01,0.02v5.53c0,0.1,0.08,0.19,0.19,0.19h9.49c0.11,0,0.2,0.1,0.19,0.21c-0.77,8.04-3.16,16.45-10.69,22.83
		c-0.1,0.08-0.09,0.23,0.02,0.3c1.4,0.88,3.55,2.85,4.53,4.11c0.07,0.09,0.19,0.1,0.27,0.03c8.48-7.16,11.35-17.79,12.25-27.3
		c0.01-0.1,0.09-0.17,0.19-0.17h27.83c0.13,0.38,0.33,0.82,0.53,1.33c0.83,2.16,1.99,5.35,0.27,9.3c-0.92,1.98-0.31,3.25,0.83,3.92
		c-0.04,0.04-0.08,0.08-0.11,0.13c-0.1,0.02-0.33,0.37-0.31,0.47c-0.22,0.45-0.12,0.94,0.17,1.39l0.02,0.1
		c2.71,3.43-0.43,7.6-0.33,8.6c0.61,5.16,3.92,2.37,4.57,1.54c0.61-1.03-0.08-0.9-0.04-7.92c0-0.72,1.08-3.36,0.72-4.37
		c0.48-0.34,0.78-0.8,0.75-1.38l0,0c-0.01-0.23-0.82-5.33-0.36-11.57c0.01-0.11-0.08-0.2-0.19-0.2h0.03c0.1,0,0.18-0.07,0.19-0.17
		c0.03-0.42,0.07-0.79,0.12-1.16h0.3h9.63c0.1,0,0.19-0.08,0.19-0.19v-3.58c-0.01,0-0.07,0.04-0.07,0.04
		C160.9,128.04,160.77,128.01,160.59,127.99z"/>
	<path class="st2" d="M310.3,108.16c-0.06,0.03-0.12,0.07-0.2,0.1c-0.35,0.13-0.77,0.16-1.14,0.16c-0.2,0-0.39-0.08-0.57-0.06
		c-0.23,0.02-0.45,0.07-0.69,0.07c-0.36,0-0.72,0-1.08,0c-0.27,0-0.53,0-0.8,0c-0.24,0-0.4,0.04-0.63,0.08
		c-0.74,0.12-1.62,0.23-2.36,0.14c-0.78-0.09-1.56-0.06-2.34-0.06c-0.26,0-0.53-0.02-0.79,0c-0.13,0.01-0.22,0.07-0.35,0.09
		c-0.22,0.04-0.47,0-0.69,0c-0.38,0-0.73-0.04-1.05-0.16c-0.05,0.01-0.1,0.01-0.15-0.01c-0.02-0.05-0.02-0.1,0-0.15
		c0.02-0.08-0.02-0.13-0.11-0.14c-0.15-0.02-0.31-0.04-0.46-0.07c0,0,0,0,0,0h-12.76c0.13-0.39,0.25-0.79,0.37-1.18l0,0
		c0.55-1.74,1.1-3.53,1.59-5.36c0-0.06,0-0.12-0.02-0.18c-0.09-0.31-0.06-0.63-0.06-0.96c0-0.16-0.01-0.32,0-0.48
		c0-0.09,0-0.17,0.06-0.25c0.04-0.05,0.11-0.05,0.14-0.08c0.18-0.22-0.07-0.5-0.16-0.72c-0.09-0.22,0.01-0.33,0.13-0.53
		c0.03-0.04,0.04-0.09,0.05-0.13l-4.93-0.94c-0.1-0.02-0.2,0.04-0.22,0.14c-2.25,10-6.1,19.59-11.55,25.61
		c-0.08,0.09-0.06,0.22,0.04,0.28c1.34,0.84,3.56,2.51,4.61,3.4c0.08,0.07,0.2,0.06,0.27-0.02c2.76-3.33,5.18-7.59,7.27-12.44
		c0.01-0.01,0.01-0.03,0.02-0.04l0.09-0.22c0.04,0,0.07,0.01,0.07,0.01h4.78l0.05,0.25l0.06,0.05c-0.04,0.03-0.07,0.08-0.07,0.13
		c-0.05,1.91,2.82,4.3-1.29,13.74c-0.17,0.41,0,1.24,0.82,1.81c0,0.17,1.57,0.91,2.72,0.41c0.08,0,0.08,0,0.08-0.08
		c0.49-0.41,0.66-0.33,0.74-0.41c0.08-0.08,0.25-0.33,0.33-0.49c0.82-0.99-1.69-5.21,0.29-11.14c0.58-1.81,1.24-2.72,0.74-3.63v0
		c-0.03-0.13-0.09-0.26-0.15-0.38c-0.02-0.04-0.05-0.08-0.07-0.12l0.24-0.13h0.94h1.11c0.15,0.15,0.32,0.25,0.32,0.25l0,0.01
		c-0.02,0.01-0.04,0.02-0.06,0.03c-1.1,0.92,0.95,3.59,0.92,7.19c0.02,3.38-1.26,7.17-2.55,10.26c-0.16,0.53-0.43,1.03-0.53,1.35
		c-0.56,1.46,0.34,3.83,2.3,3.14c1.26-0.31,2.38,0.96,3.33-1.77c0.16-0.53,0.22-1.1,0.14-1.59c-0.14-1.44,0.26-3.52,0.2-5.98
		c-0.01-1.85,0.61-6.16,0.94-8.05c0-0.02,0-0.06,0-0.08c-0.91-3.6-2.45-3.42-3.46-4.46c-0.03-0.03-0.06-0.04-0.09-0.05
		c0,0,0,0,0.01-0.01h0.03c-0.01-0.01-0.01-0.01-0.02-0.02c0.06-0.09,0.13-0.17,0.19-0.23h1.81h5.56h1.72c0.11,0,0.19,0.09,0.19,0.2
		c-0.42,8.84-0.86,15.78-1.35,21.2c-0.01,0.11,0.08,0.2,0.19,0.2c0.28,0.01,0.54,0.06,0.77,0.11c0.33,0.07,0.61,0.13,0.82,0.04
		c0.13-0.06,0.36-0.15,0.64-0.27c0.88-0.36,2.2-0.92,2.58-1.16c0.43-0.28,0.82-0.81,1.28-1.72c0.01-0.02,0.02-0.05,0.02-0.07
		c0.42-5.76,0.83-12.81,1.25-21.41c0.06-0.68,0.07-2.29,0.07-2.83C310.41,108.24,310.36,108.19,310.3,108.16z M281.69,114.24
		L281.69,114.24c0.01-0.02,0.02-0.05,0.04-0.1C281.71,114.18,281.69,114.22,281.69,114.24z"/>
	<path class="st2" d="M387.48,105.13c-0.02-0.01-0.04-0.02-0.06-0.02h-15.39l2.04-1.02c0.09-0.04,0.13-0.15,0.09-0.24
		c-0.64-1.48-1.65-3.54-2.69-5.44c-0.19-0.06-0.41-0.14-0.54-0.24c-0.26-0.19-0.4-0.46-0.33-0.79c0.03-0.15,0.08-0.24,0.11-0.34
		c-0.03-0.06-0.07-0.12-0.1-0.17c-0.05-0.08-0.15-0.11-0.24-0.08l-5.21,2.19c-0.1,0.04-0.15,0.16-0.09,0.26
		c0.9,1.63,1.95,3.85,2.68,5.6c0.05,0.12-0.04,0.26-0.18,0.26h-15.18c-0.1,0-0.19,0.08-0.19,0.19v0.84
		c-2.16-1.42-5.97-3.56-9.23-5.39c-0.1-0.05-0.12-0.17-0.06-0.27c0.36-0.53,0.67-1.1,0.95-1.67c-0.19-0.07-0.36-0.15-0.43-0.19
		c-0.22-0.15-0.37-0.33-0.61-0.45c-0.35-0.18-0.68-0.05-1.05-0.1c-0.3-0.04-0.25,0.01-0.3-0.3c-0.01-0.08-0.01-0.15,0-0.22
		l-0.38-0.14c-0.02,0.01-0.03,0.03-0.05,0.04c-0.12,0.05-0.24,0.03-0.37,0.03c-0.23-0.01-0.4-0.06-0.59-0.15
		c-0.51-0.23-0.76-0.16-0.84,0.43c-0.15-0.02-0.14-0.19-0.26-0.22c-0.14-0.04-0.15,0-0.3,0.05c-0.1,0.03-0.17,0.06-0.25,0.09
		c-1.5,2.42-3.45,4.77-5.62,6.89c0.17,0.06,0.34,0.12,0.52,0.19c0.33,0.12,0.64,0.16,0.95,0.14l1.1,0.35
		c0.07,0.11,0.19,0.23,0.35,0.37c0.63,0.56,1.29,1.07,1.97,1.54c0.08,0.06,0.19,0.04,0.26-0.03c0.59-0.69,1.17-1.38,1.73-2.08
		c0.06-0.07,0.16-0.09,0.24-0.04c3.38,1.99,7.24,4.35,9.37,5.97c0.09,0.07,0.22,0.04,0.27-0.06l2.57-4.55v10.18
		c0,0.1,0.08,0.19,0.19,0.19h2.9c0.16,0.11,0.43,0.21,0.9,0.32c1,0.26,1.31,0.45,1.71,1.27c0.45,0.92,0.46,0.98-0.04,1.78
		c-0.39,0.63-0.51,1.15-0.43,2.12c0.21,2.31,0.14,2.72,0.69,7.46c0.25,2.09-0.06,5.17,0.1,6.79c0.15,1.62,0.36,3.8,0.41,4.15
		c0.13,0.75-0.31,10.06-0.5,12.35l0.7,12.2c-0.01,0.11,0.07,0.2,0.18,0.21l1.58,0.04c3.22,0.15,3.39-0.02,2.65-2.43
		c-0.56-1.84-0.9-1.83-1.15-5.55c0-0.06-0.01-0.12-0.01-0.17c0.01,0.1,0.09,0.17,0.19,0.17h16.92c0.1,0,0.19,0.08,0.19,0.19v2.02
		c0,0.1,0.08,0.19,0.19,0.19h4.15c0.08-0.09,0.17-0.18,0.25-0.27c0.33-0.39,0.68-0.73,0.94-1.15c0.04-0.07,0.08-0.18,0.11-0.29
		v-8.63c-0.04-0.22-0.21-0.39-0.27-0.61c-0.07-0.25-0.06-0.61-0.03-0.87c0.07-0.69,0.41-1.18,0.27-1.92c-0.1-0.49-0.03-1-0.15-1.47
		c-0.05-0.21-0.22-0.39-0.27-0.58c-0.06-0.23,0.01-0.55,0.01-0.79c0-0.31-0.04-0.64-0.01-0.95c0.03-0.28,0.08-0.29,0.23-0.5
		c0.11-0.15,0.21-0.19,0.23-0.36v-0.11c-0.02-0.18-0.17-0.41-0.23-0.57c-0.11-0.29-0.41-0.79-0.38-1.11
		c0.01-0.12,0.1-0.17,0.13-0.25c0.03-0.12,0-0.23,0.03-0.34c0.04-0.16,0.12-0.27,0.16-0.43c0.01-0.06,0.02-0.18,0.02-0.3h-23.14
		c-0.11,0-0.19,0.09-0.19,0.2c0,0.01,0,0.02,0,0.03c0-0.07,0-0.15-0.01-0.22c-0.03-1.08-0.06-2.19-0.1-3.33
		c-0.02-0.59-0.03-1.14-0.05-1.68c0-0.07,0-0.12,0-0.19c0,0.1,0.09,0.19,0.19,0.19h20.29c0.1,0,0.14-0.04,0.14-0.14l0.06-6.73
		c-0.02,0.01,0.01-0.02-0.01-0.01v-2.33h0v-8.31c0-0.1-0.08-0.19-0.19-0.19h-18.02c-0.11-0.23-0.4-0.32-1.11-0.53
		c-0.56-0.17-1.49-0.32-2.49-0.38c-0.34-0.02-0.7-0.06-1.04-0.06l0.02-0.03c-0.54,0-1.01,0.02-1.43,0.06
		c-0.1,0.01-0.17,0.09-0.17,0.19v-0.17c-0.12,0.01-0.23,0.03-0.35,0.05c0.06-0.01,0.12-0.02,0.18-0.03
		c0.09-0.01,0.17-0.09,0.17-0.19v-4.15c0-0.1,0.08-0.19,0.19-0.19h24.34c0.1,0,0.19,0.08,0.19,0.19v6.14c0,0.1,0.08,0.19,0.19,0.19
		h5.11c0.1,0,0.19-0.08,0.19-0.19v-11.11C387.58,105.31,387.54,105.22,387.48,105.13z M361.66,143.62h17.45
		c0.1,0,0.19,0.08,0.19,0.19v8c0,0.1-0.08,0.19-0.19,0.19h-17.17c-0.11,0-0.19,0.09-0.19,0.2c0-0.07-0.01-0.13-0.01-0.2
		c-0.1-2.46-0.18-5.24-0.27-8.37c0-0.06,0-0.12-0.01-0.18C361.48,143.54,361.56,143.62,361.66,143.62z M361.14,128.24
		c0.05-3.58,0.34-5.58,1.03-7.48c0.03-0.08,0.06-0.16,0.09-0.24c-0.03,0.12,0.06,0.24,0.18,0.24h13.79c0.1,0,0.19,0.08,0.19,0.19
		v7.1c0,0.1-0.08,0.19-0.19,0.19h-14.91c-0.1,0-0.19,0.08-0.19,0.18C361.13,128.36,361.13,128.3,361.14,128.24z M356.1,115.8v-0.19
		h0.19C356.19,115.61,356.1,115.69,356.1,115.8z"/>
</g>
</svg>
