<?xml version="1.0" encoding="utf-8"?>
<!-- Generator: Adobe Illustrator 25.0.0, SVG Export Plug-In . SVG Version: 6.00 Build 0)  -->
<svg version="1.1" id="圖層_1" xmlns="http://www.w3.org/2000/svg" xmlns:xlink="http://www.w3.org/1999/xlink" x="0px" y="0px"
	 viewBox="0 0 850.39 283.46" style="enable-background:new 0 0 850.39 283.46;" xml:space="preserve">
<style type="text/css">
	.st0{fill:#DCDDDD;}
</style>
<g>
	<g>
		<polygon class="st0" points="462.55,234.19 462.25,234.19 442.44,196.83 427.61,196.83 427.61,267.39 443.04,267.39 
			443.04,224.48 443.34,224.48 458.47,254.8 466.18,254.8 481.45,224.48 481.75,224.48 481.75,267.39 497.18,267.39 497.18,196.83 
			482.21,196.83 		"/>
		<path class="st0" d="M546.18,250.54c0,2.51-0.91,4.36-2.72,5.55c-1.81,1.19-4.08,1.78-6.8,1.78c-2.72,0-4.99-0.59-6.81-1.78
			c-1.82-1.19-2.72-3.04-2.72-5.55v-53.71H511.7v54.7c0,2.31,0.65,4.44,1.97,6.39c1.31,1.95,3.12,3.68,5.44,5.2
			c2.32,1.52,4.97,2.71,7.94,3.57c2.97,0.86,6.17,1.29,9.6,1.29c3.43,0,6.65-0.43,9.68-1.29c3.03-0.86,5.7-2.05,8.02-3.57
			c2.32-1.52,4.11-3.25,5.37-5.2c1.26-1.95,1.89-4.08,1.89-6.39v-54.7h-15.43V250.54z"/>
		<path class="st0" d="M610.82,197.62c-3.18-0.92-6.68-1.39-10.51-1.39c-4.54,0-8.45,0.51-11.72,1.54c-3.28,1.03-5.97,2.4-8.09,4.11
			c-2.22,1.72-3.88,3.77-4.99,6.14c-1.11,2.38-1.66,4.89-1.66,7.53c0,4.43,1.14,8.11,3.4,11.05c2.27,2.94,6.73,5.3,13.38,7.08
			l11.04,2.97c1.91,0.53,3.45,1.03,4.61,1.49c1.16,0.46,2.09,1.06,2.8,1.78c0.61,0.73,1.01,1.68,1.21,2.87
			c0.2,1.19,0.3,2.71,0.3,4.56c0,1.59-0.08,3.02-0.23,4.31c-0.15,1.29-0.63,2.39-1.44,3.32c-0.81,0.93-1.94,1.63-3.4,2.13
			c-1.46,0.49-3.5,0.74-6.12,0.74c-3.93,0-6.73-0.74-8.39-2.23s-2.49-3.15-2.49-5v-3.17h-15.43v3.77c0,2.38,0.68,4.58,2.04,6.59
			c1.36,2.02,3.2,3.78,5.52,5.3c2.32,1.52,5.09,2.71,8.32,3.57c3.23,0.86,6.7,1.29,10.44,1.29c4.94,0,9.12-0.53,12.55-1.59
			c3.43-1.06,6.2-2.51,8.32-4.36c2.01-1.78,3.48-3.95,4.39-6.49c0.91-2.54,1.36-5.3,1.36-8.27c0-2.58-0.2-4.87-0.6-6.89
			c-0.4-2.01-1.16-3.82-2.27-5.4c-1.21-1.52-2.87-2.86-4.99-4.01c-2.12-1.15-4.89-2.16-8.32-3.02l-11.8-3.07
			c-2.02-0.53-3.61-1.06-4.76-1.59c-1.16-0.53-2.04-1.16-2.65-1.88c-0.6-0.73-0.98-1.55-1.13-2.48c-0.15-0.92-0.23-2.08-0.23-3.47
			c0-1.19,0.15-2.33,0.45-3.42c0.3-1.09,0.85-2.06,1.66-2.92c0.8-0.79,1.86-1.45,3.18-1.98c1.31-0.53,3.02-0.79,5.14-0.79
			c3.93,0,6.73,0.84,8.39,2.53c1.66,1.68,2.49,3.68,2.49,5.99v2.28h15.43v-4.95c0-4.1-2.32-7.73-6.96-10.9
			C616.75,199.77,614,198.55,610.82,197.62z"/>
		<polygon class="st0" points="637.52,267.39 683.49,267.39 683.49,257.28 652.94,257.28 652.94,236.57 679.56,236.57 
			679.56,227.06 652.94,227.06 652.94,206.35 683.49,206.35 683.49,196.83 637.52,196.83 		"/>
		<path class="st0" d="M727.95,250.54c0,2.51-0.91,4.36-2.72,5.55c-1.81,1.19-4.08,1.78-6.8,1.78c-2.72,0-4.99-0.59-6.81-1.78
			c-1.82-1.19-2.72-3.04-2.72-5.55v-53.71h-15.43v54.7c0,2.31,0.65,4.44,1.97,6.39c1.31,1.95,3.12,3.68,5.44,5.2
			c2.32,1.52,4.97,2.71,7.94,3.57c2.97,0.86,6.17,1.29,9.6,1.29c3.43,0,6.65-0.43,9.68-1.29c3.03-0.86,5.7-2.05,8.02-3.57
			c2.32-1.52,4.11-3.25,5.37-5.2c1.26-1.95,1.89-4.08,1.89-6.39v-54.7h-15.43V250.54z"/>
		<polygon class="st0" points="812.48,196.83 792.82,234.19 792.52,234.19 772.71,196.83 757.89,196.83 757.89,267.39 
			773.31,267.39 773.31,224.48 773.62,224.48 788.74,254.8 796.45,254.8 811.73,224.48 812.03,224.48 812.03,267.39 827.45,267.39 
			827.45,196.83 		"/>
		<polygon class="st0" points="22.95,206.44 48.54,206.44 48.58,267.95 66.05,267.95 66.05,206.44 86.29,206.44 86.29,196.86 
			22.94,196.86 		"/>
		<polygon class="st0" points="153.12,267.98 205.3,267.98 205.3,257.82 170.64,257.82 170.64,236.91 200.83,236.91 200.83,227.33 
			170.61,227.33 170.61,206.45 205.3,206.45 205.3,196.88 153.12,196.88 		"/>
		<polygon class="st0" points="130.12,227.32 108.44,227.32 108.44,196.86 90.92,196.86 90.92,267.98 108.44,267.96 108.44,236.28 
			130.08,236.28 130.08,267.96 147.56,267.96 147.56,196.86 130.12,196.86 		"/>
		<path class="st0" d="M236.27,196.86l-27.28,71.1h17.54l5.18-15.27h23.81l5.14,15.27h17.49l-27.28-71.1H236.27z M234.75,243.1
			l8.57-25.76h0.39l8.55,25.76H234.75z"/>
		<path class="st0" d="M329.44,234.01c4.44-1.93,6.4-4.06,7.34-5.11c0.48-0.53,1.36-1.59,2.25-3.56c0.39-0.86,2-4.59,1.38-10.17
			c-0.45-4.03-1.78-6.54-2.18-7.27c-0.96-1.73-2.04-3.04-3.49-4.29c-0.74-0.64-1.78-1.53-3.6-2.51c-2.55-1.47-5.21-2.27-7.67-2.84
			c-6.05-1.39-10.6-1.4-15.31-1.42c-6.68-0.03-26.69,0.02-26.69,0.02v71.1h17.56V237.6h10.47l16.29,30.35h18.51l-18.91-32.49
			C326.46,235.16,327.9,234.68,329.44,234.01z M323.03,217.99c-0.01,0.86-0.03,1.68-0.19,2.77c-0.16,1.06-0.27,1.77-0.69,2.72
			c-0.45,1.01-0.74,1.66-1.71,2.44c-0.43,0.35-1.36,1.08-3.2,1.68c-1.4,0.46-2.7,0.66-3.51,0.76c-1.96,0.24-3.57,0.27-4.51,0.26
			c-2.96-0.01-6.31,0-10.2-0.01l0.01-22.17h9.04c1.56,0.01,2.73,0.05,3.64,0.12c1.06,0.09,1.86,0.2,2.15,0.25
			c0.87,0.13,1.89,0.28,3.02,0.62c0.4,0.12,1.81,0.56,3.02,1.38c0.74,0.5,1.08,0.94,1.4,1.34c0.45,0.57,0.64,1.01,0.87,1.55
			c0.31,0.75,0.43,1.32,0.54,1.88c0.15,0.78,0.2,1.35,0.25,2.13C323.03,216.68,323.04,217.48,323.03,217.99z"/>
		<polygon class="st0" points="386.11,225.28 409.98,196.87 392.44,196.87 366.9,229.32 366.6,229.32 366.6,196.86 349.06,196.86 
			349.06,267.96 366.55,267.96 366.55,246.68 375.98,236.41 395.91,267.96 414.42,267.96 386.11,225.39 		"/>
	</g>
	<g>
		<g>
			<path class="st0" d="M106.14,19.17c-0.08,0-0.19-0.01-0.29-0.02C105.95,19.21,106.06,19.25,106.14,19.17z"/>
			<path class="st0" d="M105.59,18.98c-0.01,0.04-0.02,0.11-0.03,0.17c0.1,0,0.19-0.01,0.3,0C105.74,19.09,105.64,19,105.59,18.98z"
				/>
			<path class="st0" d="M255.15,64.6c0,0.03,0,0.06,0,0.09c0,1.05,1.06,3.16,2.11,2.11c0.95,0,2.37-0.49,2.66-1.35
				c0.46-0.15,0.9-0.31,1.24-0.47c0.63-0.28,1.34-0.5,2.01-0.77c0.55,0.35,0.94-0.04,2.53-1.63c1.05-1.05,0-3.16,0-4.22
				c0-2.11-4.22-4.22-6.33-4.22c-1.05,0-1.05,3.16-4.22,4.22c-0.19,0-0.1,0.07,0.16,0.2C254.61,59.57,254.7,63.45,255.15,64.6z"/>
			<path class="st0" d="M760.01,65.68c-0.26-0.59-0.75-1.08-1.48-1.29c-2.34-0.69-4.26-1.18-5.56-1.34l-0.53-0.03
				c-2.97-0.18-3,1.3-1.68,5.97c0.58,2.07,1.34,4.03,1.87,5.02c-0.07,0.35-0.02,0.8,0.01,1.21l0.12,1.9
				c0.01,0.15,0.06,0.39,0.1,0.54l0.71,8.26c0,0.01,0,0.02,0,0.03c-0.69,33.83,0.83,65.3-1.52,75.32c-1.31,5.6-3.43,6.05-2.44,7.63
				c0.58,0.95,1.23,1.86,1.37,1.87c0.94,0.09,4.92-2.05,6.25-3.69c0.57-0.45,1.03-0.9,1.28-1.3c1.01-1.65,0.76,1.58,0-9.03
				c-1.43-19.77-0.64-41.55,0.04-54.13c0.66-12.14,0.61-20.69-0.17-23.02c-0.02-0.06-0.02-0.12,0-0.18
				c0.19-0.53,0.28-1.08,0.21-1.74l-0.36-2.62c0-0.02,0.01-0.06,0-0.08c0.07-0.32,0-0.75,0-1.28c0.03-1.76,0.65-2.85,1.72-3.66
				C761.59,68.74,761.51,66.53,760.01,65.68z"/>
			<path class="st0" d="M621.12,106.78c-0.91-0.05-1.55-0.24-2.32-0.71c-1.06-0.32-2.05-0.86-2.78-2.23
				c-0.63-0.19-1.33-0.18-1.88,0.12c-0.21-0.06-1.04,0.37-1.1,0.59c-0.89,0.65-1.22,1.71-1.11,2.89l-0.06,0.21
				c1.72,9.52-8.92,14.01-9.78,16.06v0c-0.66,1.01-1.38,2.74-1.23,3.94c0.03,0.22,0.26,0.34,0.48,0.32
				c1.24-0.13,2.78,0.72,3.68,1.54c0.6,0.55,1.33,1.7,1.58,2.58c0.06,0.2,0.24,0.35,0.45,0.32c1.17-0.16,1.77-0.66,2.37-0.93
				c2.27-1.39,1.63-3.21,9.02-16.88C619.49,112.62,628.18,107.09,621.12,106.78z"/>
			<path class="st0" d="M548.72,42.81c0.77,0.37,1.48,1.04,1.86,1.24c2.05,1.1,4.28,1.97,5.91,3.66c0.79,0.8,1.89,0.82,2.85,0.55
				c0.78-0.23,1.72,0.88,2.09,2.01l0.47,0.84l0.52,0.77l-0.26,1.56c-0.23,0.34-0.34,0.73-0.06,1.26c0.5,0.95,0.63,0.92,1.38,1.86
				c0.12,0.11,0.21,0.28,0.23,0.45c0.37-0.23,0.74-0.47,1.08-0.8c0.61-0.59,0.79-1.1,0.98-1.63c0.2-0.55,0.4-2.07,1.08-2.74l0,0.15
				c0.09-0.09,0.19-0.31,0.28-0.38c0.14-0.11,0.27-0.21,0.27-0.28c0-0.01,0-0.03-0.02-0.05c-0.04-0.05-0.05-0.13,0.06-0.28
				c0.08-0.11,0.33-0.34,0.44-0.29c0.14,0.03,1.16,0.41,1.97,0.01c0.36-0.18,0.7-0.35,0.98-0.48c0.63-0.35,1.49,0.98,2.23,1.12
				c0.72,0.13,1.39,0.25,1.95-0.03c0.09-0.05,0.21-0.13,0.33-0.23v-3.02c0-0.23-0.18-0.41-0.41-0.41h-13.12
				c-0.23,0-0.41-0.18-0.41-0.41V18.38c0-0.23-0.18-0.41-0.41-0.41h-12.07c-0.23,0-0.41,0.18-0.41,0.41v24.06
				C548.47,42.6,548.57,42.74,548.72,42.81z"/>
			<path class="st0" d="M565.57,60.27c-1.11,0.13-2.54-0.22-2.54,0.59h11.88c0.23,0,0.41-0.18,0.41-0.41v-7.32
				c0-0.26-0.23-0.46-0.48-0.4c-0.65,0.14-1.26,0.02-1.77-0.08c-0.44-0.09-0.83-0.17-1.1-0.05c-0.18,0.08-0.48,0.41-0.86,0.57
				c-1.18,0.49-2.57,1.83-3.08,2.16c-0.67,0.44,0.92,2.15-0.36,3.39C567.02,59.33,566.58,60.15,565.57,60.27z"/>
			<path class="st0" d="M386.03,67.77l0.01-0.03c1.51-5.43-0.78-7.97-3.01-9.16c-0.02-0.01-0.04-0.02-0.06-0.03
				c-2.18-0.92-4.9-0.71-6.64,0.5c-1.21,0.85-1.81,2.08-1.71,3.62c0.03,0.17,3.18,17.18-2.77,29.3c-1.54,2.92,1.57,6.33,3.06,7.19
				l0.69,0.39l0.59-0.53c2.32-2.1,3.96-2.31,6.46-0.17l0.57,0.49l0.66-0.36c1.63-0.89,4.17-4.22,3.9-6.31
				c-0.12-0.58-0.31-1.36-0.55-2.3C386.01,85.4,383.43,75,386.03,67.77z"/>
			<path class="st0" d="M378.06,55.23l0.35,0.17l0.38-0.09c1.24-0.3,2.49-0.16,3.51-0.04c0.25,0.03,0.48,0.06,0.7,0.07l0.26,0.02
				l0.24-0.09c2.02-0.8,3.48-1.06,3.64-2.93c0.06-0.74-0.28-1.45-0.79-2.53c-1-2.12-2.69-4.23-2.17-10.35
				c0.08-0.98-0.07-1.95-0.4-2.7c0.02-0.1,0.04-0.2,0.05-0.3c0.23-1.76-0.55-3.31-0.61-5.03c1.55-1.5,1.22-2.98,0.88-4.92
				c-0.3-1.7-0.65-3.63-0.04-5.97c0.53-2.45-0.56-3.56-1.06-3.92c-0.87-0.63-2.06-0.67-3.04-0.1c-1.2,0.7-1.84,2.13-1.65,3.7
				c0,0.07,0.11,6.37-2.1,9.84c-0.46,0.76-0.88,1.77-0.03,2.78l0.81,0.96l0.11-0.12c0,0.01,0,0.03,0,0.04
				c-0.14,1.06-0.45,2.16-0.53,3.23c-0.04,0.54-0.02,1.05,0.04,1.52c-0.04,0.43-0.03,0.89,0.08,1.4c0.85,4.62-0.19,6.41-1.02,9.01
				C374.62,52.02,373.75,53.2,378.06,55.23z"/>
			<path class="st0" d="M371.92,65.16l-0.09-0.38c-0.25-1.02-0.13-2.07-0.03-2.92c0.02-0.21,0.05-0.41,0.06-0.59l0.02-0.26
				l-0.1-0.24c-0.7-1.77-2.28-3.05-3.92-3.19c-0.67-0.07-1.31,0.24-2.24,0.68c-1.78,0.84-3.78,2.26-8.92,1.83
				c-1.2-0.1-2.44,0.18-3.13,0.74c-0.03,0.02-0.05,0.05-0.08,0.07c-1.04,1.11-1.24,2.75-0.5,4.11c0.79,1.44,2.35,2.12,4.07,1.77
				c3.87-0.71,5.6,0.16,7.78,0.86c1.12,0.36,2.17,0.7,3.18,0.7c1.62,0,2.8-0.9,3.72-2.84L371.92,65.16z"/>
			<path class="st0" d="M403.98,66.74c1.2,0.11,2.44-0.18,3.13-0.74c0.03-0.02,0.05-0.05,0.08-0.07c1.04-1.11,1.24-2.75,0.5-4.11
				c-0.79-1.44-2.35-2.11-4.07-1.77c-3.88,0.71-6.59-0.16-8.77-0.86c-2.63-0.85-3.62-1.65-5.4,2.14l-0.17,0.35l0.09,0.38
				c0.25,1.02,0.13,2.07,0.03,2.93c-0.02,0.21-0.05,0.4-0.06,0.58l-0.02,0.26l0.1,0.24c0.7,1.77,0.79,3.05,2.43,3.19
				c0.06,0,0.11,0.01,0.17,0.01c0.62,0,1.23-0.29,2.07-0.69C395.85,67.72,398.83,66.31,403.98,66.74z"/>
			<path class="st0" d="M383.49,114.51c-0.88,0.37-0.22,1.17-1.32,2.67l-0.14,0.19l0,0.24c-0.02,1.8-0.46,4-0.59,4.78
				c-0.11,0.61-0.19,1.23-0.27,1.84c-0.22,1.67-0.56,3.17-1.31,4.59c-0.15,0.3-0.07,0.86-0.33,1.02c-0.21,0.13-0.98,0.11-1.89-0.83
				c-0.46-0.48-0.92-0.92-0.58-1.48c0.69-1.1,0.98-2.36,1.17-3.47c0.05-0.6,0.25-1.24,0.46-1.97c0.3-1.36,0.5-1.65-0.63-2.72
				c-0.07-0.06-0.2-0.13-0.3-0.14c-0.09,0-0.24,0.05-0.34,0.12c-0.25,0.17-0.1,0.17-0.41,0.27c-0.28,0.09-0.41-1.64-1.03-2
				l-0.06-0.16c0.34-0.48,0.48-0.87,1.23-1.14c0.6-0.21,1.33-1.2,2.02-1.65c0.93-0.62,1.31-1.27,1.64-1.85
				c0.31-0.54,0.58-0.42,1.31-0.92c0.1-0.06,0.2-0.12,0.3-0.17c0.27-0.14,0.58-0.3,0.72-0.76c0.24,0,1.43,0.66,2.54,0.34l0.47-0.13
				l0.06-0.83c0.28-2.53,0.29-3.21,0.28-3.3c-0.04-2.96-1.23-4.52-3.36-5.71c-1.99-1.1-4.46-1.03-6.47,0.18
				c-2.13,1.28-3.31,3.63-3.23,6.5c0.08,0.42,0.78,4.23,1.55,9.34l0.16,1.06c-0.39,0.28-0.67,0.61-0.76,1.02l-0.04,0.26l0.01,0.08
				c0.73,4.9,1.03,8.64,1.42,12.72l0.13,0.47l0.5,0.12c0.16,0.02,0.32,0.03,0.48,0.03c0.75,0,1.34-0.25,1.72-0.72
				c0.18-0.23,0.28-0.5,0.34-0.8c0.03,0.04,0.31,0.86,0.34,0.9c0.27,0.39,0.87,1.88,0.92,2.4l-0.38,0.39l-0.5,0.67l-1.65,0.26
				l0.06,0.68c0.66,7.53,0.17,11.86-0.55,15.02c-1.62,6.64-1.84,6.15-0.92,7.43c0.66,0.93,1.75,1.03,3.02,1.15
				c0.32,0.03,0.66,0.06,1.04,0.11c0.41,0.04,0.81,0.06,1.19,0.06c1.85,0,3.19-0.52,3.98-1.56c1.18-1.55,1.06-1.2-0.37-4.91
				c-1.58-4.13-1.13-17.43,1.35-39.52l0.12-1.02l-1,0.23C384.49,114.19,383.83,114.37,383.49,114.51z"/>
			<path class="st0" d="M603.07,131.62c-0.31-0.24-0.64-0.44-0.97-0.61c-1.02-0.54-2.16-0.83-3.31-0.97
				c-0.57-0.07-1.15-0.1-1.7,0.05c-1.29,0.36-1.75,1.86-2.22,2.96c-0.84,2-0.85,3.04-2.1,4.82c-1.52,2.15-3.4,3.97-5.43,5.62
				c-4.53,3.68,1.28,8.15,4.38,4.15c5.84-7.64,11-6.54,12.72-9.08c0.87-1.28,0.85-2.98,0.49-4.42
				C604.67,133.13,603.93,132.26,603.07,131.62z"/>
			<path class="st0" d="M734.79,116.97c-0.1-0.18-0.32-0.25-0.52-0.17l-8.85,3.73c-0.22,0.09-0.32,0.36-0.2,0.57
				c1.5,2.77,2.89,5.79,4.52,8.93c0.11,0.22,0.01,0.5-0.22,0.58l-16.7,5.95c-0.27,0.1-0.55-0.1-0.55-0.39v-21.35
				c0-0.23,0.18-0.41,0.41-0.41h31.27c0.23,0,0.41-0.18,0.41-0.41V63.38c0-0.23-0.18-0.41-0.41-0.41h-1.19
				c-0.19,0.16-0.38,0.29-0.55,0.39l-0.77,0.72c-0.21,0.19-0.42,2.94-0.63,3.17c-0.54,0.59-1.13,1.04-1.76,1.23
				c-0.38,0.11-1.94,0.02-2.55-0.25c-0.41-0.18-0.78-0.32-1.08-0.25c-0.19,0.04-0.51,0.11-0.91,0.2c-1.25,0.27-3.15,0.68-3.71,0.91
				c-0.74,0.31-1.62,1.04-2.64,2.49c-0.43,0.61-1.41,0.21-2.3,0.58c-0.94,0.39-1.22-0.14-1.72,0.38c-0.3,0.32-0.27,0.23-0.39,0.78
				h7.91c0.23,0,0.41,0.18,0.41,0.41v9.22c0,0.23-0.18,0.41-0.41,0.41h-18.97c-0.23,0-0.41-0.18-0.41-0.41v-9.22
				c0-0.23,0.18-0.41,0.41-0.41h7.26c0.1-0.46,0.22-1.01,0.4-1.73c0.21-0.86,1-1.15,1.91-1.48c0.53-0.19,1.13-0.41,1.66-0.76
				c0.7-0.47,0.98-0.94,1.26-1.43c0.29-0.5,0.59-1.02,1.38-1.56h0c0.11-0.07,0.22-0.13,0.31-0.18c0.15-0.08,0.3-0.16,0.32-0.23
				c0-0.01,0.01-0.03-0.01-0.05c-0.03-0.05-0.03-0.14,0.11-0.27c0.1-0.09,0.38-0.28,0.49-0.21c0.13,0.05,1.32-0.3,2.19-0.55
				c0.38-0.11,0.75-0.22,1.05-0.3c0.68-0.23,1.41,0.05,2.12,0.32c0.68,0.26,1.32,0.5,1.92,0.32c0.58-0.18,1.89-1.17,3.05-2.24
				h-37.43c-0.23,0-0.41,0.18-0.41,0.41v71.58c0,5.24-2.81,7.41-5.15,8.52c-0.22,0.1-0.3,0.35-0.18,0.56
				c1.63,2.87,3.45,7.64,4.15,10.71c0.06,0.29,0.39,0.42,0.63,0.25c2.92-2,8.37-4.44,34.52-14.79c0.21-0.08,0.45,0.02,0.54,0.22
				c1.67,3.87,3.32,7.35,4.48,10.32c0.09,0.22,0.34,0.32,0.56,0.21l9.3-4.58c0.2-0.1,0.29-0.32,0.2-0.52
				C746.29,138.53,740.07,126.09,734.79,116.97z M712.26,93.82c0-0.23,0.18-0.41,0.41-0.41h18.97c0.23,0,0.41,0.18,0.41,0.41v9.82
				c0,0.23-0.18,0.41-0.41,0.41h-18.97c-0.23,0-0.41-0.18-0.41-0.41V93.82z"/>
			<path class="st0" d="M589.58,104.96c0.36,0.18,2.34,4.14,6.3-1.62c3.24-4.68,6.17-6,8.33-6.89c2.52-1.26,3.6-2.88,3.78-3.06
				c-2.34-0.18-3.78-1.62-4.14-1.8c-1.07-0.91-1.62-2.08-1.76-3.29c-0.04-0.31-0.41-0.45-0.66-0.26c-0.99,0.74-1.81,1.79-2.26,2.83
				c-2.16,4.14-4.91,6.72-7.43,7.79C585.26,102.62,589.58,104.78,589.58,104.96z"/>
			<path class="st0" d="M577.18,108.6c-0.04-0.26-0.33-0.41-0.57-0.3c-1.08,0.5-0.82,0.42-1.75,0.57c-2.34,0.18-1.62,3.24,0.72,2.16
				c1.27-0.75,1.1-0.43,1.9-0.43c0.31,0,0.5-0.33,0.35-0.6C577.6,109.59,577.26,109.1,577.18,108.6z"/>
			<path class="st0" d="M587.29,106.89c-1.15-0.72-1.73-1.9-1.73-2.99c0-0.31-0.32-0.52-0.6-0.37c-1.65,0.92-2.94,1.2-3.25,1.2
				c-1.62,0.54-2.52,1.62-1.8,3.24c1.44,3.24,4.14,0.18,7.92-0.54C587.64,107.25,587.46,107.07,587.29,106.89z"/>
			<path class="st0" d="M51.69,138.07c-0.94,0.03-2.08,0.54-3.81,1.7c-0.73,0.49-0.94,0.6-2.08,0.63c-1.17,0.03-2.27,0.07-2.67,0.61
				c-2.6,0.76-6.15-0.27-8.61,0.94c-0.39,0.19-0.7,0.43-0.94,0.7c-0.15,0.07-0.3,0.13-0.44,0.23l0.26-0.26
				c-1.3,0.8-1.29,6.76-8.88,12.03c-4.4,3.16,1.41,8.08,4.6,4.61c4.3-5.19,8.7-5.42,11.05-6.51c1.99-0.5,8.71-4.08,11.3-6.37
				c0.39-0.27,0.74-0.62,1.03-1.05l0,0c0.13-0.2,1.54-2.2,4.44-6.57c-0.22-0.03-0.47-0.07-0.79-0.12
				C54.66,138.4,52.4,138.05,51.69,138.07z"/>
			<path class="st0" d="M76.85,111.73c-5.42,0.73-11.15-2.21-13.18-7.17c-0.11-0.28-0.47-0.37-0.67-0.15
				c-3.01,3.3-6.25,20.98-18.53,28.03c-4.78,2.61-5.01,4.91-3.34,7.82c0.36-0.61,0.78-1.3,1.19-1.9c0.6-0.86,1.69-1.1,2.84-1.08
				c0.66,0.01,1.44,0.62,2.18,0.45c0.97-0.22,1.32-0.66,1.84-1.08c0.53-0.43,1.09-0.87,2.17-1.13l0.17-0.02
				c0.15-0.03,0.12-0.03,0.24-0.04c0.2-0.02,2.91-0.21,3.97-0.12c0.46,0.04,0.9,0.07,1.26,0.11c0.35,0.01,0.69,0.15,1.02,0.34
				c4.69-7,11.81-15.97,19.18-23.39C77.47,112.13,77.24,111.67,76.85,111.73z"/>
			<path class="st0" d="M653.97,99.61c-0.15,0.14-0.31,0.26-0.44,0.37c-0.22,0.18-0.43,0.34-0.44,0.45c0,0.02,0,0.04,0.03,0.08
				c0.06,0.07,0.09,0.21-0.1,0.46c-0.13,0.17-0.53,0.55-0.71,0.48c-0.15-0.03,0.53,1.37-0.42,1.84c-0.07,0.04-0.13,0.09-0.18,0.16
				c-0.63,1.13-1.75,3.06-2.28,3.74c-1.44,1.82-2.58,3.89-4.53,5.2c-0.92,0.64,0.28,2.18-0.1,3.1c-0.97,2.33-1.92,2.25-2.83,2.8
				l-0.82,0.49l-0.93,0.43c-1.65,12.68-3.5,16.69-5.64,19.13c-1.5,2.1-3,2.7-5.4,2.7c-2.73,0-7.95,0-13.93-0.53
				c-0.33-0.03-0.56,0.31-0.4,0.6c1.98,3.74,3.3,8.83,3.51,12.62c0.01,0.21,0.18,0.37,0.39,0.38c6.46,0.29,12.6,0.42,16.58-0.32
				c4.8-0.75,7.8-2.1,10.95-6.6c4.13-5.19,6.76-18.55,9.12-49.63C655.11,98.2,654.73,98.87,653.97,99.61L653.97,99.61z"/>
			<path class="st0" d="M641.78,114.28c0.04-0.58,0.04-1.26,0.08-1.84c0.08-0.81,0.42-1.49,1.27-1.99c0.96-0.54,1.71-1.34,2.43-2.26
				c0.38-0.57,0.89-1.08,1.4-1.59c0.68-0.79,1.41-2.22,1.64-3.46c-0.44,0.22-0.86,0.43-1.21,0.6c-1.02,0.56-2.26,0.33-3.46,0.12
				c-0.69-0.12-1.35-0.24-1.96-0.22c-0.2,0.01-0.37,0.18-0.38,0.39c-0.41,4.35-0.82,8.23-1.25,11.67
				C641.08,115.8,641.63,115.3,641.78,114.28z"/>
			<path class="st0" d="M294.81,150.36c-0.07-2.12,0.42-3.1,1.45-4.49c0.2-0.26,0.02-0.63-0.31-0.66c-3.56-0.3-7.87,2.76-13.67,0.21
				c-4.08-1.91-3.78,2.49-3.94,2.76c0,0-0.76,2.34,0.71,3.34c0.28,0.16,0.84,0.47,2.43,0.25c5.98-0.83,11.63,3.44,14.98,3.26
				c0.37-0.02,0.54-0.47,0.27-0.72C295.65,153.36,294.87,152.07,294.81,150.36z"/>
			<path class="st0" d="M404.41,44.81h36.67c0.23,0,0.41-0.18,0.41-0.41v0.41v6.3v0.41c0-0.23-0.18-0.41-0.41-0.41h-17.97
				c-0.42,0-0.58,0.57-0.2,0.77c1,0.53,1.95,1.14,2.76,1.98c0.79,0.8,0.94,0.82,1.9,0.55c0.78-0.23,0.79-0.11,1.43,0.08
				c0,0,0.64,0.33,0.8,0.5c0.33,0.35,0.45,1.09,0.45,1.09L430,57.64c-0.23,0.34,0.04,0.73,0.33,1.26c0.25,0.47,0.41,0.99,0.59,1.51
				h10.15c0.23,0,0.41-0.18,0.41-0.41v0.41v6.9v0.41c0-0.23-0.18-0.41-0.41-0.41H421.8c-0.23,0-0.41-0.18-0.41-0.41v-6.07
				c0-0.23,0.18-0.41,0.41-0.41h5.48c-0.27-0.62-0.29-0.49-0.66-0.53c-0.71-0.06-0.16-0.84,0.09-1.1c0.58-0.59,0-1.55-1.44-1.51
				c-0.57,0.06-1.25,0.18-1.82,0.24c-0.82,0.07-1.54-2.55-2.18-3.3c-0.69-0.85-1.62-1.45-2.65-2c-0.59-0.26-1.14-0.64-1.69-1.03
				c-0.07-0.05-0.15-0.07-0.24-0.07h-6.73c-0.23,0-0.41,0.18-0.41,0.41v51.67c0,0.23,0.18,0.41,0.41,0.41h11.02
				c0.23,0,0.41-0.18,0.41-0.41V90.37c0-0.23,0.18-0.41,0.41-0.41h19.27c0.23,0,0.41-0.18,0.41-0.41v0.41v10.68
				c0,0.23,0.18,0.41,0.41,0.41h12.07c0.23,0,0.41-0.18,0.41-0.41V89.96v-0.41c0,0.23,0.19,0.41,0.41,0.41h19.42
				c0.23,0,0.41,0.18,0.41,0.41v3.34c0,1.35-0.45,1.8-1.95,1.8c-1.42,0.14-5.28,0.15-9.77,0.02c-0.32-0.01-0.54,0.33-0.38,0.61
				c1.25,2.26,2.74,5.21,3.47,7.64c0.05,0.17,0.21,0.29,0.39,0.29c7.18,0,12.19-0.02,15.89-1.35c3.6-1.5,4.65-3.45,4.65-8.7V89.2
				v-8.93v-6.58v-2.6V52.11c-0.47,0.05-0.94,0.08-1.42,0.05c-1.14-0.07-2.04-0.52-3.23-0.59c-1.09-0.06-2.2,0.04-3.28-0.02
				c-0.5-0.59-3.25-0.27-4.13-0.35c-0.21-0.02-0.45-0.06-0.69-0.1H454.8c-0.23,0-0.41,0.18-0.41,0.41v-0.41v-6.3V44.4
				c0,0.23,0.19,0.41,0.41,0.41h37.57c0.23,0,0.41-0.18,0.41-0.41V34.28c0-0.23-0.18-0.41-0.41-0.41h-6.7
				c-0.34,0-0.54-0.39-0.33-0.66l3.11-4.06c0.15-0.2,0.11-0.48-0.11-0.6c-5.13-2.96-14.38-7.38-21.22-10.44
				c-0.04-0.02-0.09-0.01-0.13-0.01c-0.69,3.51-0.98,6.62-1.63,10.09c3.07,1.6,6.28,3.31,9.31,4.92c0.38,0.2,0.23,0.78-0.2,0.78
				H454.8c-0.23,0-0.41,0.18-0.41,0.41v-0.41V18.38c0-0.23-0.18-0.41-0.41-0.41H441.9c-0.23,0-0.41,0.18-0.41,0.41v15.49v0.41
				c0-0.23-0.18-0.41-0.41-0.41h-29.81c-1.62,0.48-3.19,0.76-4.91,0.83c-0.75,0.03-1.57,0.23-2.36,0.47v9.23
				C403.99,44.63,404.18,44.81,404.41,44.81z M441.49,75.56v6.3v0.41c0-0.23-0.18-0.41-0.41-0.41H421.8c-0.23,0-0.41-0.18-0.41-0.41
				v-5.47c0-0.23,0.18-0.41,0.41-0.41h19.27c0.23,0,0.41-0.18,0.41-0.41V75.56z M454.39,67.31v-6.9V60c0,0.23,0.19,0.41,0.41,0.41
				h19.42c0.23,0,0.41,0.18,0.41,0.41v6.07c0,0.23-0.18,0.41-0.41,0.41H454.8c-0.23,0-0.41,0.18-0.41,0.41V67.31z M454.39,81.86
				v-6.3v-0.41c0,0.23,0.19,0.41,0.41,0.41h19.42c0.23,0,0.41,0.18,0.41,0.41v5.47c0,0.23-0.18,0.41-0.41,0.41H454.8
				c-0.23,0-0.41,0.18-0.41,0.41V81.86z"/>
			<path class="st0" d="M33.05,56.51h31.09c0.2,0,0.38-0.15,0.41-0.35c0.38-2.19,0.39-4.48,0.85-6.64c0.12-0.57,0.1-1.21-0.04-1.77
				c-0.13-0.5-1.49-1.26-1.91-1.7c-0.04-0.04-0.52-0.53-0.56-0.57c-0.71-0.75-1.63-1.26-2.63-1.71c-0.57-0.2-1.12-0.52-1.66-0.85
				c-0.06-0.04-0.14-0.06-0.21-0.06H44.2c-0.04,0.02-0.08,0.03-0.13,0.05c-2.47,0.88-8.56-0.86-9.28,1.89
				c-0.82-0.25-1.51-0.25-2.15-0.13V56.1C32.64,56.33,32.83,56.51,33.05,56.51z"/>
			<path class="st0" d="M696.98,59.2c4.96-3.4,10.18-7.62,14.83-12.13l0.12-0.12c-0.08,0.08-0.12,0.18-0.12,0.29v7.82
				c0,0.23,0.18,0.41,0.41,0.41h24.82c0.23,0,0.41-0.18,0.41-0.41v-8.77c0-0.23-0.18-0.41-0.41-0.41h-24.03
				c1.73-1.73,2-1.93,3.65-3.83c-0.19-0.1-0.39-0.2-0.58-0.31c-0.22-0.12-0.53-0.19-0.65-0.38c-2.31-3.43-6-4.18-9.51-5.25
				c-0.14-0.04-0.29-0.01-0.4,0.09c-4.99,4.78-9.02,7.36-14.37,10.66c-0.19,0.12-0.25,0.36-0.13,0.55c1.82,2.94,4.4,8.71,5.32,11.57
				C696.44,59.24,696.75,59.36,696.98,59.2z"/>
			<path class="st0" d="M576.67,84.09l-14.77,4.22c-0.26,0.08-0.53-0.12-0.53-0.4V60.86h0.28c0-0.05,0.02-0.34,0.03-0.39
				c0.04-0.75,0.14-0.57-0.29-1.24c-0.51-0.81-0.51-0.35-0.84-0.86c-0.83-1.26-0.43-0.93-1.05-2.31c-0.25-0.47,0.05-1.12,0.28-1.61
				c0.64-1.32-0.21-2.43-0.87-2.85c-0.6-0.38-1.31,0.7-1.81,0.4c-0.7-0.42-0.87-0.76-1.51-1.51c-0.69-0.85-1.62-1.45-2.65-2
				c-0.63-0.27-1.22-0.69-1.81-1.11c-0.66-0.39-1.67-0.75-2.66-0.92v1.21h-9.12c-0.25,0-0.45-0.23-0.4-0.48
				c0.99-6.02,1.71-12.18,2.43-18.33c0.03-0.22-0.13-0.42-0.34-0.46l-11.02-1.81c-0.24-0.04-0.46,0.13-0.48,0.37
				c-1.49,17.55-4.16,36.06-9.27,48.12c-0.08,0.19-0.01,0.41,0.17,0.51c2.72,1.45,7.12,4.05,9.45,5.79
				c0.22,0.17,0.53,0.09,0.63-0.17c2.14-5.54,4.15-12.43,5.88-20.02c0.04-0.19,0.21-0.32,0.4-0.32h11.26c0.23,0,0.41,0.18,0.41,0.41
				v30.77c0,0.19-0.13,0.35-0.3,0.4c-9.9,2.76-19.09,5.24-26.45,7.16c-0.22,0.06-0.35,0.28-0.29,0.5l2.69,9.96
				c0.7-0.03,1.45-0.11,2.09,0.06c0.03,0.3,0.06,0.58,0.1,0.87c0.6,0.14,1,0.02,1.48-0.23c0.25,0.32,0.79,0.73,1.3,0.88
				c0.08-0.18,0.18-0.35,0.42-0.49c0.23,0.06,0.31,0.2,0.28,0.41l18.16-5.55c0.27-0.08,0.53,0.12,0.53,0.39v25.17
				c0.64,0.69,1.24,1.5,1.37,2.39c0.21,1.42-0.63,2.85-0.69,4.27c-0.09,2.31,0.71,4.58,0.2,6.87c-0.1,0.46-0.64,1.37-0.53,1.81
				c0.09,0.35,0.29,0.25,0.44,0.53c0.26,0.45,0.5,1.17,0.57,1.7c0.22,1.64,0.01,3.54-0.01,5.18c0,0.39,0.02,0.78,0.05,1.17h11.08
				c0.23,0,0.41-0.18,0.41-0.41v-52.98c0-0.18,0.12-0.34,0.29-0.39c5.64-1.74,11.28-3.48,16.93-5.35c0.19-0.06,0.31-0.26,0.28-0.45
				l-1.68-11.49C577.15,84.18,576.91,84.02,576.67,84.09z"/>
			<path class="st0" d="M162.87,42.86h-59.24c-0.45,0-0.58-0.61-0.16-0.79l7.86-3.4c0.2-0.09,0.3-0.31,0.23-0.51
				c-1.75-4.86-5.06-11.53-8.29-17.41c-1.35-0.89-2.79-2.08-2.9-2.66c-0.95,0.21-2,0.67-2.84,1.28c-0.41-0.39-0.89-0.62-1.41-0.75
				l-8.28,3.09c-0.23,0.09-0.34,0.35-0.22,0.57c3.3,6.21,7.09,14.22,9.05,20.05c0.09,0.27-0.12,0.54-0.4,0.54h-32.3
				c1.45,0.58,2.88,1.17,4.06,2.23c0.8,0.7,1.84,0.64,2.73,0.33c0.72-0.27,1.36-0.22,1.98-0.08l0.37,0.62l2.07,0.68l0.44,1.63
				c-0.2,0.33-0.3,0.73,0,1.21c0.54,0.86,0.74,1.94,1.51,2.78c0.25,0.2-1.58,0.6-1.87,0.91c-0.38,0.36-0.65-0.07-0.81-0.33
				c-0.84-1.15-1.37-0.04-2.05-1.3c-0.27-0.43-0.09-0.91,0.09-1.38c0.52-1.29-0.11-2.09-1.47-1.96c-0.54,0.1-1.16,0.25-1.7,0.35
				c-0.37,0.06-0.73,0.05-1.08-0.06c0.24,2.43-0.07,2.5-0.47,4.9c-0.12,0.72-0.07,1.37,0.09,1.98l-0.14,1.16h3.33l-0.45,28.24
				c-0.01,0.8,0.01,1.5,0.04,2.23c0,0.09,0.01,0.19,0.02,0.67c0.05,1.59-0.12,3.01-0.48,4.3c-0.36,1.29-0.9,2.47-1.59,3.56
				c-0.3,0.48-0.49,0.68-0.83,1.04c-0.01,0.02,0.03-0.04-0.17,0.19c-1,1.08-1.52,2.23-1.65,3.36c-0.1,0.89,0.03,1.77,0.36,2.57
				c0.33,0.79,0.84,1.51,1.5,2.12c1.11,1.03,2.65,1.75,4.39,1.96c1.86,0.22,3.57-0.26,5.4-0.78c1.85-0.53,3.37-1.59,4.8-2.74
				c3.47-2.89,2.46-4.98,0.97-7.09c-0.5-0.71-0.24-1.48-0.37-2.17c-0.06-0.32-0.03-0.91-0.01-1.43c0.01-0.18,0.02-0.35,0.02-0.6
				l0.01-0.64h-0.41c0.23,0,0.41-0.18,0.41-0.41l0.13-7.36l-0.13,7.34c0,0.23,0.18,0.42,0.41,0.42h50.14c0.24,0,0.43,0.21,0.41,0.45
				c-2.39,30.28-5.08,44.11-9.26,47.54c-1.95,1.5-3.9,1.8-7.2,1.8c-4.09,0-13.85-0.14-24.18-0.98c-0.35-0.03-0.56,0.35-0.37,0.63
				c2.5,3.74,4.21,8.81,4.44,12.59c0.01,0.21,0.17,0.36,0.38,0.38c9.92,0.58,19.5,0.72,24.98,0.28c6.3-0.6,10.2-1.8,14.25-5.85
				c4.65-4.76,7.4-15.74,9.73-39.67c0,0,0-0.26,0-0.69c0.02,0.01,0.04,0.02,0.06,0.03c0.65-6.81,1.28-14.66,1.9-23.69
				c0-0.02,0-0.03,0.01-0.05c0.36-1.58,0.53-4.71,0.58-5.85c0.01-0.24-0.18-0.43-0.41-0.43H83.67c-0.23,0-0.41,0.18-0.41,0.41
				l0.01-0.41l0.36-20.88c0-0.23-0.18-0.42-0.41-0.42h0.42h3.76h2.98h72.49c0.23,0,0.41-0.18,0.41-0.41V43.28
				C163.28,43.05,163.09,42.86,162.87,42.86z M135.77,107.46c-0.03-0.02-0.05-0.03-0.08-0.06c-0.04-0.05-0.06-0.1-0.06-0.14
				C135.68,107.33,135.73,107.4,135.77,107.46z"/>
			<path class="st0" d="M266.94,65.27c0,1.06,2.73-0.02,4.86,3.54c0.77,1.28,3.38,0.1,4.44-0.96c1.04-1.04-2.04-4.15-3.13-5.24
				c-0.03-0.03-0.05-0.04-0.08-0.06c-2.02-1.02-4-3.87-5.06-3.27c-0.11,0.06-0.17,0.21-0.17,0.34c0,0,1.16,1.34,1.3,2.33
				c0.12,0.83-0.48,2.03-0.56,2.11C267.62,64.99,266.94,64.26,266.94,65.27z"/>
			<path class="st0" d="M263.53,67.18c-1.33,0.25-3.5,1.59-4.06,1.78c-0.08,0.03-0.14,0.07-0.19,0.13
				c-0.73,0.87-0.23,1.21-0.01,2.28c0.05,0.26,0.33,0.42,0.57,0.3c0.81-0.41,2.9-0.72,7.96,1.45c0.22,0,0.38-0.06,0.52-0.14
				c0.95,0.41,2.13,0.82,3.27,1.1c0.06,0.34,0.17,0.72,0.38,1.15c0.99,0.99,2.89,2.89,4,3.14c0.14,0.03,0.29-0.04,0.38-0.14
				c0.9-1,0.9-2,0.9-3c0-1.01-0.97-3-1.99-4.09c-0.08-0.09-0.2-0.13-0.32-0.13c-0.15,0-0.25,0.01-0.35,0.02
				c-1.07-0.71-2.73-0.7-4.03-0.98c-1.35-0.29-2.39-1.12-3.5-1.89c-0.11-0.11-0.21-0.21-0.32-0.32
				C265.7,66.8,264.73,66.87,263.53,67.18z"/>
			<path class="st0" d="M269.29,117.58c1.37,0.43,2.69,0.88,3.83,1.85c0.46,0.39,0.87,1.12,1.51,1.3c0.83,0.21,1.19-0.54,1.53-1.27
				l-0.61-1.48c-1.16-0.71-2.33-2-3.34-2.59c-0.11-0.06-0.17-0.16-0.19-0.28c-0.3-2.05-0.74-3.66-1.38-5.43
				c-0.48-1.36-0.79-2.01-2.08-2.68c-1.26-0.71-2.63-0.03-3.9-0.51c-1.21-0.47-2.69-2.4-2.32,0.06c0.5,3.07,1.19,5.83,0.74,9.02
				c-0.29,1.98,0.83,1.57,2.34,1.46C266.73,116.91,268.09,117.19,269.29,117.58z"/>
			<path class="st0" d="M260.35,112.3c-0.06-1.19,0.25-3-0.85-3.68c-0.61-0.37-1.32-0.2-1.96-0.48c-0.62-0.29-1.1-0.87-1.71-1.15
				c-1.09-0.49-1.79-0.08-2.85,0.39c-1.4,0.65-1.82,1.85-1,3.1c0.94,1.41,2.57,2.07,3.91,3.06c1.13,0.83,1.18,1.1,2.02,2.23
				c0.5,0.65,0.76,2.31,2.02,2.07c0.46-0.09,0.55-0.72,0.44-1.8C260.2,114.42,260.43,113.93,260.35,112.3z"/>
			<path class="st0" d="M272.61,120.58l-0.82-0.54c-0.04,0.05-0.07,0.09-0.11,0.13c-0.26-0.16-0.54-0.27-0.86-0.31
				c-0.03-0.31-0.21-0.46-0.22-0.79c-0.02,0-0.03,0-0.05,0c0.03-0.05,0.02-0.07-0.06-0.21l-0.4,0.14c-0.47,0.18-0.7-0.25-1.1-0.43
				c-0.3-0.12-0.64,1.04-0.96,1.48c-0.09,0.06-0.18,0.11-0.27,0.16c-0.69-0.14-1.12-0.51-1.9-0.46c-1.28,0.08-2.01-0.14-1.85,1.22
				c0.05,0.41,0.16,0.6,0.37,0.72c0.58,0.82,1.92,0.61,2.8,0.94c0.44,0.16,0.76,0.38,1.05,0.6c0.67,0.98,2.3,1.87,2.91,2.41
				c1.14,1.02,1.92,2.52,2.4,4.01c0.35,0.97,1.18,3.89,2.42,1.9c0.65-1.06,0.47-2.41,0.49-3.6c0.03-1.14,0.06-2.38,0.07-3.52
				C276.54,122.15,274.26,121.67,272.61,120.58z"/>
			<path class="st0" d="M494.02,110.81h-19.87c-0.23,0-0.41-0.18-0.41-0.41v-5.77c0-0.23-0.18-0.41-0.41-0.41H461.7
				c-0.23,0-0.41,0.18-0.41,0.41v5.77c0,0.23-0.18,0.41-0.41,0.41h-61.42c-0.23,0-0.41,0.18-0.41,0.41v10.42
				c0,0.23,0.18,0.41,0.41,0.41h18.54c0.37,0,0.55,0.44,0.29,0.71l-4.51,4.5c-0.18,0.18-0.16,0.47,0.04,0.62
				c7.16,5.27,16.57,12.41,21.52,17.14c0.17,0.16,0.42,0.14,0.58-0.03l8.12-8.82c0.16-0.18,0.15-0.44-0.03-0.59
				c-4.16-3.41-11.04-8.41-17.21-12.78c-0.33-0.23-0.16-0.74,0.24-0.74h33.83c0.23,0,0.41,0.18,0.41,0.41v1.58h-0.03v14.85h0.03
				v2.65c0,1.65-0.6,2.1-2.85,2.25c-2.04,0.15-9.16,0.15-16.57-0.12c-0.31-0.01-0.52,0.3-0.39,0.58c1.48,3.18,2.81,7.69,3.4,10.92
				c0.04,0.19,0.21,0.33,0.41,0.33c10.61,0,17.7-0.17,22.3-1.95c4.95-1.95,6.15-5.4,6.15-11.85v-2.8v-7.83v-6.75v-0.26v-1.58
				c0-0.23,0.18-0.41,0.41-0.41h19.87c0.23,0,0.41-0.18,0.41-0.41v-10.42C494.43,110.99,494.25,110.81,494.02,110.81z"/>
			<path class="st0" d="M331.45,85.05c-0.25-0.04-0.7,0.24-0.95,0.39c-0.09,0.05-0.37,0.22-0.6,0.36c-0.57,0.34-0.92,0.11-1.34-0.03
				c-0.5-0.17-0.88-0.42-1.55,0.07c-0.33,0.24-0.59,0.71-1.01,1.03c-0.45,0.34-0.64,0.39-0.71,0.78c-0.12,0.63-0.08,1.22-0.31,1.42
				c-1.25,1.08-2.03-2.51-1.96-3.49c0.02-0.26,0.15-0.4,0.5-0.8c0.33-0.38,0.96-1.32,1.23-1.55c0.36-0.31,1.47-0.17,1.85-0.26
				c0.44-0.11,1.06-0.39,1.4-0.78h0c0.05-0.05,0.1-0.1,0.14-0.14c0.07-0.06,1.05-0.51,1.48-0.76c0.19-0.11,0.37-0.22,0.52-0.3
				c0.33-0.21,0.76-0.16,1.17-0.12c0.4,0.05,0.77,0.09,1.07-0.09c0.08-0.05,0.31-0.38,0.32-0.63H311.7c-0.23,0-0.41-0.18-0.41-0.41
				v-46.4c-1.15,0.04-2.31,0.1-3.47,0.03c-2.22-0.14-4.66-0.61-6.91-0.44c-1.36,0.1-2.48,0.96-3.89,0.88
				c-1.31-0.08-2.52-1.04-3.79-1.15c-1.6-0.13-3.56-0.04-5.06,0.09c-0.1-0.18-0.25-0.32-0.43-0.44h-20.42
				c-0.32,0-0.52-0.34-0.36-0.61c2.64-4.39,5.27-9.76,7.77-14.9c0.13-0.26-0.05-0.56-0.33-0.59l-5.78-0.56
				c-0.52,0.06-1.04,0.12-1.57,0.18c-0.96,0.1-1.99,0.03-2.93,0.08c-0.88,0.04-1.19-0.23-1.91-0.35c-1.2-0.2-2.76,0.19-3.89,0.4
				c-0.28,0.05-0.53,0.08-0.77,0.09c-1.24,4.95-3.24,11-5.39,16.02c-0.07,0.15-0.22,0.25-0.38,0.25h-17.81
				c0.06,0.04,0.13,0.09,0.18,0.13l1.09,0.57c0.29,0.16,0.62,0.29,0.96,0.44c0.87,0.37,1.77,0.74,2.06,1.46
				c0.02,0.04,0.03,0.08,0.05,0.11l0.04-0.02l0.04,0.05c0.68,0.95,0.64,1.97,0.6,2.78c-0.02,0.53-0.04,0.99,0.15,1.29
				c0.12,0.19,0.33,0.52,0.58,0.92c0.8,1.28,2,3.22,2.48,3.75c0.49,0.53,1.28,0.97,2.53,1.4c0.05,0.02,0.1,0.02,0.15,0.02h51.76
				c0.23,0,0.41,0.18,0.41,0.41v34.12c0,0.23-0.18,0.41-0.41,0.41h-60.97c-0.23,0-0.41-0.18-0.41-0.41V76.4V45.61
				c0-0.23,0.18-0.41,0.41-0.41h3.44l0.08-0.38l0.01-0.01c0.28-0.33,0.08-0.65-0.06-0.86c-0.06-0.1-0.1-0.16-0.08-0.22
				c0-0.17-0.86-1.35-1.48-2.21c-0.27-0.37-0.53-0.73-0.74-1.03c-0.52-0.67-0.5-1.58-0.49-2.47c0.01-0.85,0.03-1.66-0.41-2.25
				c-0.62-0.83-3.71-2.67-5.76-3.44c-0.05-0.02-0.1-0.03-0.15-0.03h-8.31c-0.23,0-0.41,0.18-0.41,0.41v43.53v3.49
				c0,0.23-0.18,0.41-0.41,0.41h-10.52c-0.09,0.32-0.17,0.5-0.16,0.88c0,0.2,0.08,0.52-0.05,0.68c-0.43,0.53-2.52-0.49-2.96-0.69
				c-0.47-0.21-0.93-0.67-1.39-0.87h-0.15c-0.03,0.2-0.05,0.39-0.07,0.6c-0.65,0.23-1.72-0.08-2.36-0.26
				c-0.12-0.03-0.2-0.17-0.38-0.19c-0.2-0.03-0.41,0.06-0.61,0.02c-0.21-0.04-0.37-0.11-0.51-0.16h-0.47
				c-0.08,0.07-0.16,0.19-0.24,0.39c-0.15,0.36-0.23,0.86-0.67,0.95c-0.16-0.45,0.14-0.69-0.3-0.93c-0.17-0.1-0.71-0.07-1.09-0.04
				c0,0.02-0.02,0.03-0.02,0.05v12.07c0,0.23,0.18,0.41,0.41,0.41h20.73c0.24,0,0.44,0.21,0.41,0.45
				c-1.68,17.56-6.91,35.94-23.37,49.87c-0.21,0.18-0.19,0.51,0.04,0.66c3.06,1.91,7.77,6.23,9.91,8.97
				c0.15,0.19,0.41,0.21,0.6,0.06c18.53-15.65,24.8-38.86,26.78-59.64c0.02-0.21,0.2-0.37,0.41-0.37h60.81
				c0.29,0.83,0.71,1.79,1.15,2.91c1.82,4.71,4.36,11.7,0.58,20.33c-2.01,4.33-0.67,7.1,1.81,8.56c-0.09,0.09-0.18,0.18-0.25,0.29
				c-0.21,0.04-0.73,0.81-0.69,1.02c-0.48,0.98-0.26,2.05,0.38,3.03l0.04,0.21c5.92,7.49-0.93,16.61-0.73,18.79
				c1.34,11.28,8.57,5.19,9.99,3.35c1.33-2.26-0.16-1.96-0.09-17.3c0.01-1.57,2.37-7.33,1.57-9.56c1.06-0.74,1.7-1.76,1.64-3.02l0,0
				c-0.03-0.51-1.78-11.65-0.79-25.27c0.02-0.24-0.17-0.44-0.41-0.44h0.06c0.21,0,0.39-0.16,0.41-0.37
				c0.07-0.91,0.16-1.73,0.26-2.54h0.67h21.03c0.23,0,0.41-0.18,0.41-0.41V84.8c-0.02,0.01-0.14,0.1-0.14,0.1
				C332.11,85.17,331.83,85.11,331.45,85.05z"/>
			<path class="st0" d="M658.54,41.73c-0.14,0.07-0.27,0.15-0.43,0.21c-0.76,0.28-1.69,0.36-2.49,0.35c-0.44,0-0.84-0.18-1.25-0.14
				c-0.51,0.05-0.99,0.15-1.51,0.15c-0.79-0.01-1.57,0-2.36,0c-0.58,0-1.16,0-1.75,0c-0.52,0-0.88,0.09-1.38,0.18
				c-1.62,0.27-3.54,0.51-5.17,0.32c-1.7-0.2-3.4-0.14-5.11-0.14c-0.56,0-1.16-0.05-1.72,0c-0.28,0.02-0.48,0.14-0.76,0.19
				c-0.48,0.08-1.03-0.01-1.52-0.01c-0.84,0.01-1.6-0.08-2.3-0.36c-0.11,0.03-0.22,0.02-0.33-0.03c-0.05-0.11-0.05-0.21-0.01-0.33
				c0.04-0.18-0.04-0.29-0.25-0.31c-0.34-0.04-0.68-0.09-1.01-0.14c0,0-0.01,0-0.01,0h-27.87c0.27-0.84,0.54-1.72,0.81-2.58l0,0
				c1.21-3.81,2.4-7.71,3.47-11.71c0-0.13-0.01-0.27-0.05-0.39c-0.19-0.67-0.14-1.38-0.14-2.1c0-0.35-0.02-0.71,0-1.06
				c0.01-0.19,0-0.38,0.13-0.54c0.09-0.11,0.24-0.1,0.3-0.18c0.39-0.47-0.16-1.1-0.34-1.57c-0.19-0.49,0.02-0.72,0.27-1.16
				c0.06-0.09,0.09-0.19,0.11-0.28l-10.78-2.05c-0.22-0.04-0.43,0.1-0.48,0.31c-4.92,21.86-13.33,42.8-25.23,55.95
				c-0.17,0.19-0.14,0.47,0.08,0.61c2.93,1.83,7.77,5.48,10.08,7.43c0.18,0.15,0.44,0.13,0.58-0.05
				c6.02-7.28,11.32-16.58,15.89-27.18c0.01-0.03,0.03-0.06,0.04-0.09l0.19-0.48c0.09,0.01,0.15,0.01,0.14,0.02h10.45l0.12,0.55
				l0.12,0.1c-0.09,0.07-0.15,0.17-0.15,0.29c-0.11,4.18,6.16,9.4-2.83,30.03c-0.36,0.9,0,2.7,1.8,3.96c0,0.36,3.42,1.98,5.94,0.9
				c0.18,0,0.18,0,0.18-0.18c1.08-0.9,1.44-0.72,1.62-0.9c0.18-0.18,0.54-0.72,0.72-1.08c1.8-2.16-3.69-11.39,0.63-24.35
				c1.27-3.96,2.71-5.95,1.62-7.92v0c-0.07-0.28-0.19-0.57-0.32-0.84c-0.04-0.09-0.11-0.17-0.16-0.25l0.53-0.29h2.06h2.43
				c0.33,0.33,0.71,0.55,0.71,0.55l0.01,0.02c-0.05,0.02-0.1,0.04-0.13,0.07c-2.39,2.01,2.07,7.85,2.02,15.71
				c0.04,7.38-2.74,15.67-5.56,22.43c-0.35,1.16-0.94,2.25-1.15,2.95c-1.22,3.18,0.75,8.36,5.02,6.86c2.75-0.69,5.2,2.09,7.27-3.88
				c0.35-1.16,0.48-2.39,0.3-3.46c-0.31-3.14,0.57-7.69,0.43-13.07c-0.03-4.05,1.33-13.45,2.06-17.58c0-0.05-0.01-0.13-0.01-0.18
				c-1.99-7.86-5.34-7.47-7.55-9.75c-0.06-0.06-0.13-0.09-0.2-0.11c0-0.01,0.01-0.01,0.01-0.02h0.07c-0.01-0.01-0.02-0.03-0.04-0.05
				c0.14-0.19,0.28-0.37,0.41-0.5h3.96h12.15h3.77c0.24,0,0.42,0.2,0.41,0.44c-0.92,19.3-1.89,34.49-2.94,46.32
				c-0.02,0.24,0.17,0.43,0.41,0.44c0.61,0.02,1.18,0.14,1.68,0.24c0.72,0.15,1.34,0.28,1.78,0.09c0.28-0.12,0.78-0.33,1.39-0.58
				c1.91-0.8,4.8-2,5.63-2.53c0.94-0.61,1.8-1.76,2.79-3.77c0.02-0.05,0.04-0.11,0.05-0.16c0.93-12.59,1.81-27.98,2.73-46.78
				c0.12-1.48,0.14-4.99,0.15-6.19C658.79,41.91,658.68,41.79,658.54,41.73z M596.02,55.01l0.01-0.01c0.01-0.03,0.04-0.1,0.08-0.21
				C596.07,54.9,596.03,54.98,596.02,55.01z"/>
			<path class="st0" d="M827.17,35.12c-0.04-0.02-0.08-0.05-0.13-0.05h-33.63l4.45-2.22c0.2-0.1,0.29-0.32,0.2-0.53
				c-1.4-3.23-3.61-7.73-5.88-11.89c-0.41-0.13-0.91-0.31-1.19-0.52c-0.58-0.42-0.87-1-0.73-1.72c0.06-0.32,0.18-0.53,0.25-0.73
				c-0.07-0.12-0.14-0.26-0.22-0.38c-0.1-0.18-0.32-0.25-0.52-0.17l-11.39,4.78c-0.23,0.09-0.32,0.35-0.2,0.57
				c1.96,3.55,4.26,8.41,5.85,12.24c0.11,0.27-0.09,0.56-0.39,0.56h-33.16c-0.23,0-0.41,0.18-0.41,0.41v1.84
				c-4.71-3.09-13.05-7.78-20.17-11.78c-0.21-0.12-0.27-0.38-0.13-0.58c0.78-1.16,1.46-2.4,2.07-3.66
				c-0.41-0.15-0.79-0.33-0.93-0.42c-0.47-0.32-0.81-0.72-1.34-0.99c-0.77-0.39-1.48-0.11-2.28-0.23c-0.66-0.09-0.56,0.02-0.65-0.65
				c-0.02-0.16-0.02-0.32-0.01-0.49l-0.84-0.3c-0.04,0.03-0.07,0.06-0.11,0.08c-0.27,0.1-0.53,0.07-0.81,0.06
				c-0.5-0.01-0.86-0.14-1.29-0.33c-1.12-0.5-1.66-0.36-1.84,0.94c-0.33-0.03-0.32-0.41-0.57-0.48c-0.31-0.09-0.33,0.01-0.66,0.1
				c-0.21,0.06-0.38,0.13-0.54,0.2c-3.28,5.29-7.54,10.42-12.28,15.05c0.38,0.13,0.75,0.26,1.13,0.4c0.72,0.27,1.4,0.35,2.07,0.31
				l2.4,0.77c0.16,0.24,0.41,0.5,0.76,0.82c1.37,1.22,2.81,2.33,4.3,3.37c0.18,0.12,0.42,0.09,0.56-0.07
				c1.28-1.5,2.55-3.02,3.78-4.55c0.13-0.16,0.35-0.2,0.52-0.1c7.38,4.35,15.81,9.49,20.48,13.04c0.2,0.15,0.47,0.09,0.6-0.13
				l5.62-9.94V60c0,0.23,0.19,0.41,0.41,0.41h6.33c0.35,0.25,0.94,0.45,1.97,0.71c2.19,0.57,2.86,0.98,3.74,2.76
				c0.99,2,1,2.15-0.09,3.88c-0.86,1.37-1.11,2.52-0.93,4.64c0.46,5.06,0.3,5.94,1.51,16.3c0.55,4.58-0.12,11.29,0.23,14.84
				c0.33,3.55,0.78,8.31,0.9,9.06c0.29,1.64-0.68,21.98-1.08,26.99l1.53,26.65c-0.02,0.24,0.16,0.45,0.4,0.45l3.44,0.08
				c7.04,0.33,7.4-0.03,5.79-5.3c-1.22-4.01-1.97-4.01-2.5-12.12c-0.01-0.12-0.01-0.25-0.02-0.38c0.02,0.21,0.19,0.38,0.41,0.38
				h36.96c0.23,0,0.41,0.18,0.41,0.41v4.42c0,0.23,0.18,0.41,0.41,0.41h9.06c0.18-0.19,0.37-0.39,0.54-0.59
				c0.71-0.85,1.5-1.59,2.04-2.5c0.1-0.16,0.16-0.4,0.24-0.64v-18.85c-0.09-0.49-0.46-0.86-0.59-1.33
				c-0.15-0.55-0.13-1.32-0.07-1.89c0.15-1.5,0.9-2.57,0.58-4.19c-0.21-1.06-0.07-2.19-0.32-3.22c-0.11-0.47-0.48-0.84-0.59-1.27
				c-0.12-0.5,0.02-1.2,0.02-1.72c0-0.67-0.09-1.41-0.01-2.07c0.07-0.62,0.18-0.64,0.5-1.08c0.23-0.33,0.46-0.41,0.49-0.78v-0.24
				c-0.05-0.4-0.36-0.89-0.49-1.23c-0.24-0.63-0.9-1.73-0.83-2.43c0.03-0.26,0.22-0.36,0.28-0.54c0.07-0.25,0-0.51,0.06-0.74
				c0.1-0.35,0.27-0.59,0.34-0.95c0.03-0.14,0.04-0.4,0.04-0.66h-50.55c-0.23,0-0.42,0.2-0.41,0.43c0,0.02,0,0.04,0,0.06
				c0-0.16-0.01-0.32-0.01-0.49c-0.07-2.35-0.14-4.77-0.21-7.28c-0.04-1.28-0.07-2.5-0.1-3.67c0-0.14-0.01-0.27-0.01-0.41
				c0.01,0.22,0.19,0.41,0.41,0.41h44.32c0.23,0,0.31-0.08,0.31-0.31l0.13-14.71c-0.04,0.03,0.02-0.05-0.02-0.02v-5.09h-0.01V58.43
				c0-0.23-0.19-0.41-0.41-0.41h-39.38c-0.24-0.51-0.86-0.7-2.42-1.17c-1.23-0.36-3.26-0.71-5.45-0.83
				c-0.74-0.04-1.54-0.13-2.28-0.13l0.05-0.06c-1.18,0-2.21,0.05-3.13,0.14c-0.21,0.02-0.36,0.2-0.36,0.41v-0.37
				c-0.27,0.03-0.51,0.08-0.76,0.12c0.13-0.02,0.26-0.05,0.4-0.07c0.2-0.03,0.36-0.2,0.36-0.4v-9.08c0-0.23,0.18-0.41,0.41-0.41
				h53.17c0.23,0,0.41,0.18,0.41,0.41V60c0,0.23,0.18,0.41,0.41,0.41h11.17c0.23,0,0.41-0.18,0.41-0.41V35.72
				C827.38,35.5,827.29,35.3,827.17,35.12z M770.76,119.21h38.14c0.23,0,0.41,0.18,0.41,0.41v17.47c0,0.23-0.18,0.41-0.41,0.41
				h-37.51c-0.23,0-0.42,0.2-0.41,0.44c-0.01-0.15-0.01-0.29-0.02-0.44c-0.21-5.37-0.4-11.45-0.59-18.3c0-0.13-0.01-0.27-0.01-0.4
				C770.35,119.04,770.53,119.21,770.76,119.21z M769.61,85.61c0.1-7.82,0.75-12.18,2.26-16.35c0.06-0.17,0.14-0.35,0.2-0.52
				c-0.07,0.26,0.12,0.52,0.4,0.52h30.13c0.23,0,0.41,0.18,0.41,0.41V85.2c0,0.23-0.18,0.41-0.41,0.41h-32.58
				c-0.22,0-0.41,0.17-0.41,0.4C769.6,85.88,769.6,85.74,769.61,85.61z M758.61,58.43v-0.41h0.41
				C758.79,58.01,758.61,58.2,758.61,58.43z"/>
		</g>
	</g>
</g>
</svg>
