<svg id="圖層_1" data-name="圖層 1" xmlns="http://www.w3.org/2000/svg" viewBox="0 0 618.87 252.07"><defs><style>.cls-1{fill:#b5b5b6;}.cls-2{fill:#fff;}</style></defs><path class="cls-1" d="M183.33,60c.3,1.26-2.44,6.31,1.93,5.3s6.17-4.57,7.67-1.65,2,7,3.82,10.24c.59,1,1.23,2.37,1.85,3.7V0H168.45V55.16S183,58.7,183.33,60Z"/><path class="cls-1" d="M196.75,87.74c-1.85-3.9-2.32-8.7-3.82-12.17s-3.3.77-7.67,2-1.63-4.8-1.93-6.3-14.88-5.7-14.88-5.7V99.32h-29.1V0H107.14V252.35h32.21V142h29.1V252.35H198.6V92.13C198,90.56,197.34,89,196.75,87.74Z"/><polygon class="cls-1" points="274.64 0 232.79 0 219.75 0 203.54 0 203.54 252.35 285.44 252.35 285.44 209.84 232.79 209.84 232.79 145.85 279.6 145.85 279.6 126.18 279.35 126.18 279.35 98.63 232.79 98.63 232.79 42.69 274.64 42.69 274.64 42.95 286.57 42.95 286.57 0 283.39 0 274.64 0"/><path class="cls-1" d="M34.13,33.14a83,83,0,0,0,1.71-14.7c-.08-2.4-4.41-10.2-6.51-10.66C27.86,7.46,22.41,3.25,18.14,0H0V43H18.88c5.76-1.72,6.78-1.77,9-2C30.53,40.64,33.23,36.44,34.13,33.14Z"/><path class="cls-1" d="M90.94,0H22.14c4.27,3.25,9.72,7.46,11.19,7.78,2.1.46,6.43,8.26,6.51,10.66a83,83,0,0,1-1.71,14.7c-.9,3.3-3.6,7.5-6.3,7.8-2.17.24-3.19.29-8.95,2h17v67s1.89,12.9,5.19,15,3.9.38,6,1.24,6.9-1.46,8.4,0a7.13,7.13,0,0,0,6.3,2,11.19,11.19,0,0,0,4.2-2l1.62-3V43h31.5V0Z"/><path class="cls-1" d="M65.73,133.65a7.35,7.35,0,0,1-6.3-1.89c-1.5-1.4-6.3.82-8.4,0s-2.7.82-6-1.19-5.19-14.33-5.19-14.33V252.35H71.55V128.91l-1.62,2.85A11.47,11.47,0,0,1,65.73,133.65Z"/><path class="cls-1" d="M332.91,39.94c1.24-.19,8.44-1.92,8.44-1.92l4.73-4.86s5.62.52,6.75,0,8.1-3.22,8.1-3.22l1.95-1.29L357.28,0H331.79l-7.33,38.58C327.49,39.19,332.09,40.07,332.91,39.94Z"/><path class="cls-1" d="M362.88,33.51,360.93,35s-7,3.15-8.1,3.76-6.75,0-6.75,0l-4.73,5.69s-7.2,2-8.44,2.25c-.82.15-5.42-.88-8.45-1.6L290.8,252.35h27.05l10-50.27c13-.27,29.54-.54,37.26-.66l8.17,50.93h26.16Zm-30,119,12.45-76.94,11.92,76.94Z"/><path class="cls-1" d="M474.45,139.52c5.94-3.39,12.42-9.82,17-21.94l-9-10.86-14.3-10.25h0a17.28,17.28,0,0,1-4.33,7.16q-3.45,3.09-17.3,3.09H432.25V76.23c-7.12-2.28-21-7.21-25-12.08-1-1.22-2-2.44-3-3.63V252.35h28V147h3.9q6.63,0,9.7,2.85t5.79,10.5q2.73,7.65,10.15,37.09l13.92,54.91H503Z"/><path class="cls-1" d="M432.25,66.9V37.46h15q11.7,0,14.05.76Q466,40,468.59,46.91t2.57,18a59.65,59.65,0,0,1-2,16.62,30.07,30.07,0,0,1-1.07,3.09h0l14.3,9,9,9.53c3.14-7.35,5.36-17.08,5.84-29.95,1.4-37.86-10.74-56.46-18.94-64.62A20.93,20.93,0,0,0,475.74,6q-6.93-6-22.22-6H404.25V53.11c1,1,2,2.11,3,3.19C411.24,60.57,425.13,64.9,432.25,66.9Z"/><path class="cls-1" d="M569.5,44.68s2.48-4.46,3.83-4.46,9.2-2.6,9.2-2.6l10-1.14L608.55,0H576.92l-18,38.84L563,42.58Z"/><path class="cls-1" d="M592.52,44.21l-10,1.38s-7.85,3.15-9.2,3.15-3.83,5.4-3.83,5.4L563,51.59l-4.13-4.52L540.6,94.8V38.17L536,33.51l-10.36-2.32L516.47,28l-6.92-5.53V252.35H540.6V175.18s8.11-20.23,12.85-32.09l26.7,109.26h36.33L569.85,106.72Z"/><polygon class="cls-1" points="525.62 25.74 535.98 27.65 540.6 31.5 540.6 0 536.1 0 533.98 0 523.95 0 512.73 0 509.55 0 509.55 18.57 516.47 23.14 525.62 25.74"/><path class="cls-1" d="M71.18,163v10.28h6.49A96.68,96.68,0,0,0,71.18,163Z"/><path class="cls-1" d="M71.18,193.5v5h37.29V182.63H71.89Q71.62,188.69,71.18,193.5Z"/><rect class="cls-1" x="509.07" y="196.24" width="0.11" height="5.49"/><rect class="cls-1" x="509.07" y="208.64" width="0.11" height="6.59"/><path class="cls-1" d="M509.07,239.77l.11,0V223.36h-.11Z"/><path class="cls-1" d="M464.91,180.79a147.4,147.4,0,0,1-3.31,17.36l5.24,20.66q.81-16.65,1.2-38Z"/><polygon class="cls-1" points="577.94 193.71 565.46 193.71 567.84 203.47 577.94 203.47 577.94 193.71"/><rect class="cls-1" x="509.18" y="196.24" width="16.08" height="5.49"/><polygon class="cls-1" points="594.76 185.68 594.76 187.91 588.21 187.91 588.21 211.91 569.9 211.91 571.7 219.25 592.2 219.25 592.2 247.53 578.6 247.53 579.78 252.35 603.91 252.35 607.28 252.35 616.12 252.35 594.76 185.68"/><rect class="cls-1" x="509.18" y="208.64" width="16.08" height="6.59"/><polygon class="cls-1" points="582.16 239.14 582.16 227.9 573.81 227.9 576.55 239.14 582.16 239.14"/><path class="cls-1" d="M557.06,159.33l2.3,9.43h2.33A62.53,62.53,0,0,0,557.06,159.33Z"/><path class="cls-1" d="M510.78,175.46H527a103.25,103.25,0,0,0-9.12-7A75.77,75.77,0,0,1,510.78,175.46Z"/><polygon class="cls-1" points="584.62 177.09 561.4 177.09 563.41 185.32 584.62 185.32 584.62 177.09"/><path class="cls-1" d="M70.66,198.51h.52v-5C71,195.3,70.85,197,70.66,198.51Z"/><path class="cls-1" d="M198.23,169.65v-1.53c-.28.51-.55,1-.85,1.53Z"/><path class="cls-1" d="M184.9,186.48l8.15-5.8c1.83,1.47,3.55,2.94,5.18,4.43v-6.17H172.87v24h25.36v-3.69A90,90,0,0,0,184.9,186.48Z"/><path class="cls-1" d="M39.48,250.9v1.45h31.7V207.69H69.86Q66.29,233.43,39.48,250.9Z"/><path class="cls-1" d="M47.74,230.85A39.79,39.79,0,0,0,58,212.1q2.43-10.53,2.88-29.47H39.48v55.7A71.89,71.89,0,0,0,47.74,230.85Z"/><path class="cls-1" d="M109.66,207.69h-2.88v28.76c.26-1.13.51-2.42.74-3.91Q108.75,224.85,109.66,207.69Z"/><path class="cls-1" d="M183.93,220.09l8.21-5.91c2.17,1.87,4.19,3.7,6.09,5.51v-7.35H173q.21,15-4.89,25.72v14.29h30.14V233.71A129.83,129.83,0,0,0,183.93,220.09Z"/><path class="cls-1" d="M284.13,252.17H274V209.83H248.53v2.51H233.82v29.38a9.17,9.17,0,0,1-3,7.26c-2,1.74-5,2.63-9.12,2.69s-9.39.08-15.85.08l-2.7-6.78v7.38h81.9V209.83h-.95Z"/><path class="cls-1" d="M223.21,239.45V212.34h-20v12.31a89.52,89.52,0,0,1,6.35,7.47l-6.35,4.25v5.77H221.1C222.51,242.14,223.21,241.25,223.21,239.45Z"/><path class="cls-1" d="M207.87,195.35l-4.69,3.31v4.28h20v-24h-20v11C204.88,191.72,206.45,193.53,207.87,195.35Z"/><rect class="cls-1" x="306.88" y="194.93" width="15.45" height="4.43"/><rect class="cls-1" x="306.88" y="184.11" width="15.45" height="4.43"/><path class="cls-1" d="M290.43,252.35h27.05l1.45-7.25-3.84,3.43a91.31,91.31,0,0,0-13.57-9.5l6-6.17a80.85,80.85,0,0,1,12.28,7.9l1.82-9.12H293.8Z"/><polygon class="cls-1" points="322.33 205.74 306.88 205.74 306.88 218.46 296.74 218.46 296.74 213.55 295.07 223.78 323.17 223.78 324.53 216.98 322.33 216.98 322.33 205.74"/><polygon class="cls-1" points="322.33 172.34 303.43 172.34 302.73 176.67 322.33 176.67 322.33 172.34"/><rect class="cls-1" x="332.6" y="194.93" width="15.74" height="4.43"/><rect class="cls-1" x="332.6" y="184.11" width="15.74" height="4.43"/><path class="cls-2" d="M198.23,219.69v14c1.13,1.25,2.22,2.52,3.26,3.79l1.69-1.13V224.65Q200.89,222.21,198.23,219.69Z"/><polygon class="cls-1" points="202.06 242.14 203.18 244.97 203.18 242.14 202.06 242.14"/><rect class="cls-2" x="198.23" y="202.94" width="4.95" height="9.39"/><path class="cls-1" d="M198.23,212.34v-9.4H172.87v-24h25.36v-9.29h-.85c.3-.51.57-1,.85-1.53v-9.86l-6.32-1.16a85.48,85.48,0,0,1-6.1,12.55H168.09v68.41q5.1-10.71,4.89-25.72Z"/><path class="cls-2" d="M203.18,224.65v11.72l6.35-4.25A89.52,89.52,0,0,0,203.18,224.65Z"/><polygon class="cls-2" points="289.38 223.78 289.38 231.65 293.8 231.65 295.07 223.78 289.38 223.78"/><path class="cls-1" d="M477.05,211.7q1-21.67,1.26-40.09H454.67q2.67,9.6,6.75,25.83l.18.71a147.4,147.4,0,0,0,3.31-17.36H468q-.37,21.39-1.2,38l6.83,26.91a22,22,0,0,0,1.64-6.35Q476.09,233.39,477.05,211.7Z"/><path class="cls-1" d="M557.06,159.33l0-.07h0Z"/><path class="cls-2" d="M71.86,182.63h61.06v-9.34H89.59a168.87,168.87,0,0,0-9.46-16.19l-8.95,2.47-2.12.59c.73,1,1.43,1.9,2.12,2.85a96.68,96.68,0,0,1,6.49,10.28h-46v9.34H60.85Q60.4,201.58,58,212.1a39.79,39.79,0,0,1-10.23,18.75,71.89,71.89,0,0,1-8.26,7.48,72.4,72.4,0,0,1-9.41,6.19l6.49,8.23c1-.61,2-1.23,2.92-1.85q26.79-17.47,30.38-43.21h39.8q-.91,17.15-2.14,24.85c-.23,1.49-.48,2.78-.74,3.91-.64,2.77-1.34,4.49-2.11,5.11q-1.62,1.32-8.52,1.32-6.68,0-15.57-.63l2.74,9.39q7,.48,13.17.47a52.22,52.22,0,0,0,10.29-.8,14.59,14.59,0,0,0,2.77-.83,12.06,12.06,0,0,0,5.58-4.67q1.89-3,3.34-15.48t2.42-31.82H70.66c.19-1.54.37-3.21.52-5Q71.6,188.69,71.86,182.63Z"/><path class="cls-2" d="M233.82,202.94V169.65H198.23v9.29h25v24h-20v9.4h20v27.11c0,1.8-.7,2.69-2.11,2.69H203.18V245l2.7,6.78q9.69,0,15.85-.08c4.1-.06,7.14-.95,9.12-2.69a9.17,9.17,0,0,0,3-7.26V212.34h14.71v-9.4Z"/><path class="cls-2" d="M162.09,202.94H147.26v9.4h14.83q.74,21.84-14.83,34.34l8.9,6.07a39.53,39.53,0,0,0,11.93-14.69V169.65h-6Z"/><path class="cls-2" d="M198.23,158.26v9.86a75.63,75.63,0,0,0,4.28-9.07Z"/><path class="cls-2" d="M183.93,220.09a129.83,129.83,0,0,1,14.3,13.62v-14c-1.9-1.81-3.92-3.64-6.09-5.51Z"/><path class="cls-2" d="M207.87,195.35c-1.42-1.82-3-3.63-4.69-5.42-1.53-1.62-3.19-3.23-5-4.82s-3.35-3-5.18-4.43l-8.15,5.8a90,90,0,0,1,13.33,12.77c.51.61,1,1.23,1.49,1.85l3.46-2.44Z"/><polygon class="cls-2" points="284.13 157.63 273.99 157.63 273.99 183.69 262.3 183.69 262.3 192.76 273.99 192.76 273.99 209.84 273.99 252.17 284.13 252.17 284.13 209.84 284.13 192.76 292.57 192.76 292.57 183.69 284.13 183.69 284.13 157.63"/><path class="cls-2" d="M351.76,223.78V220.2H341.61v3.58H295.07l-1.27,7.86h47.81v9.55a1.83,1.83,0,0,1-1,1.8q-1,.47-6.9.47-2.4,0-6.27-.1l3.36,8.7q6,0,10.75-.05a11.91,11.91,0,0,0,7.44-2.22c1.82-1.44,2.74-3.95,2.74-7.54V231.64h12.82v-7.86Z"/><path class="cls-2" d="M307.51,232.86l-6,6.17a91.31,91.31,0,0,1,13.57,9.5l3.84-3.43,2.95-2.64c-.68-.58-1.38-1.14-2.09-1.7A80.85,80.85,0,0,0,307.51,232.86Z"/><path class="cls-2" d="M322.33,172.35v4.32H296.74v41.79h10.14V205.74h15.45V217H332.6V205.74h15.73v2.69c0,.95-.45,1.43-1.36,1.43-4.56,0-7.8-.07-9.7-.22l3.14,7.87a31.48,31.48,0,0,0,4.16.21q7.76,0,10.75-1.8c2-1.19,3-3.34,3-6.43V176.67H332.6v-4.32h30.62v-7.66H352l3.37-1.95a38.86,38.86,0,0,0-8.38-6.06l-7.24,4.43a24.82,24.82,0,0,1,5.24,3.58H332.6v-7.06H322.33v7.06H291.49v7.66h30.84Zm0,27H306.88v-4.43h15.45Zm0-10.82H306.88v-4.43h15.45Zm10.27-4.43h15.73v4.43H332.6Zm0,10.82h15.73v4.43H332.6Z"/><path class="cls-2" d="M461.6,198.15l-.18-.71q-4.08-16.23-6.75-25.83H438.51a100.7,100.7,0,0,0,4-12.45l-10-1.64c-.19.72-.38,1.42-.58,2.12q-6.51,23.4-17.09,35.18l8.78,4.85A80.24,80.24,0,0,0,431.88,187c1.06-2,2.08-4.05,3-6.2h4.9a79.8,79.8,0,0,1-7.94,21.15,74.79,74.79,0,0,1-17.09,20.84l8.44,6a86.37,86.37,0,0,0,8.65-9.33q13-16.29,17.86-38.62H455q-2.4,19.89-10.18,34.34a96,96,0,0,1-12.93,18.16,138.59,138.59,0,0,1-10.19,10.28l8.67,6.22,1.52-1.49q14.6-14.43,22.17-29.45A102.34,102.34,0,0,0,461.6,198.15Z"/><path class="cls-2" d="M466.84,218.81c0,.37,0,.76,0,1.12q-.85,17-1.51,19.31a5.64,5.64,0,0,1-2.14,3.27q-1.49,1-8.78,1c-3,0-6.65-.1-11.06-.31l3,9.07c1.82.11,4.07.16,6.73.16q11.18,0,14-.9a11.34,11.34,0,0,0,5.16-3.53,9.57,9.57,0,0,0,1.44-2.28Z"/><path class="cls-2" d="M418.67,202.94c-.57.22-4.28,1.46-11.12,3.75V188.54h9.58l-.12-9h-9.46V158.21H397.4v21.36h-6.79c.5-3.3.93-7.33,1.32-12.08l-7.23-1.2-2-.33A159.4,159.4,0,0,1,377,201.2l8.95,2.38c1.27-4.58,2.24-8.68,2.94-12.31.17-.94.34-1.85.48-2.73h8v21.32q-2.62.73-5.18,1.42-7.68,2.06-14.66,3.64l2.22,9.29c5.7-1.49,10.35-2.73,14-3.73l3.64-1V252h10.15V216.35c4.82-1.52,8.8-2.85,11.91-4Z"/><path class="cls-2" d="M525.37,159.37l-9.46-3.12a88,88,0,0,1-6.73,7.81,70.09,70.09,0,0,1-16.48,12.82l2.91,9.6a78,78,0,0,0,10.84-7.33v4.22h21.6v-7a47.13,47.13,0,0,1,6,5.81l5.47-7.65a112.14,112.14,0,0,0-15.85-12.77A8.53,8.53,0,0,0,525.37,159.37ZM527,175.46H510.78a75.77,75.77,0,0,0,7.13-7A103.25,103.25,0,0,1,527,175.46Z"/><path class="cls-2" d="M519.1,229a27,27,0,0,1,3.37,5.86,102.83,102.83,0,0,1-13.29,4.92l-.11,0V223.36h25.77V188.12H499.2v51.76a4.52,4.52,0,0,1-2.16,3.79l2.79,8.18c.81-.18,1.64-.39,2.47-.6,2.19-.56,4.48-1.2,6.88-1.94q8-2.48,17.62-6.32a46.24,46.24,0,0,1,2.68,6.8l9.24-4.43a98.34,98.34,0,0,0-10.67-20.31Zm-10-32.71h16.19v5.49H509.07Zm0,12.4h16.19v6.6H509.07Z"/><path class="cls-2" d="M589.35,168.76H572.93a76,76,0,0,0-5.36-12.19L557,159.26l0,.07a62.53,62.53,0,0,1,4.63,9.43H540.83v19.15h5v64.26h10.27v-4.65H592.2V219.25H556.11v-7.34H569.9l-2.06-8.44H556.11v-9.76h9.35l-2.05-8.39H551.2v-8.23h33.42v8.23h3.53l.06,2.84v-.25h6.55V168.76ZM556.11,227.9h26v11.24h-26Z"/><polygon class="cls-1" points="584.62 185.32 563.41 185.32 565.46 193.71 577.94 193.71 577.94 203.47 567.84 203.47 569.9 211.91 588.21 211.91 588.21 188.16 588.15 185.32 584.62 185.32"/></svg>