<svg id="圖層_1" data-name="圖層 1" xmlns="http://www.w3.org/2000/svg" xmlns:xlink="http://www.w3.org/1999/xlink" viewBox="0 0 141.73 70.87"><defs><style>.cls-1{fill:none;}.cls-2{font-size:10.65px;font-family:Candara;}.cls-2,.cls-3,.cls-4{fill:#fff;}.cls-3{font-size:14.63px;font-family:DengXian;letter-spacing:0.23em;}.cls-5{clip-path:url(#clip-path);}</style><clipPath id="clip-path"><rect class="cls-1" y="17.02" width="28.58" height="36.83" transform="translate(28.58 70.87) rotate(-180)"/></clipPath></defs><text class="cls-2" transform="translate(27.87 47.1) scale(1.24 1)"><tspan xml:space="preserve"> THE ARK MUSEUM</tspan></text><text class="cls-3" transform="translate(30.1 34.23) scale(1.24 1)">方舟博物館</text><rect class="cls-4" x="48.7" y="25.26" width="0.68" height="10.65"/><rect class="cls-4" x="71.31" y="25.26" width="0.68" height="10.65"/><rect class="cls-4" x="93.92" y="25.26" width="0.68" height="10.65"/><rect class="cls-4" x="116.53" y="25.26" width="0.68" height="10.65"/><g class="cls-5"><path class="cls-4" d="M50.35,34.59v-.17c0-.53-.13-.64-.13-.64h0c-.06,0-.53-.08-1.46-.27a128.87,128.87,0,0,1-13.85-4C24,25.75,12.28,20.3,8.13,23.28l0,0a8.22,8.22,0,0,0-.87.92,17.36,17.36,0,0,0-2.38,5.54l.31,1.47v0c1.32,4.52,5.1,15.07,11.6,15.32l1.7.1h0l.31,0h0q3.57.18,6.78.18c7.66,0,13.72-.79,18.06-2.38,4.7-1.82,6.38-6.72,6.59-8.3a9.58,9.58,0,0,0,.1-1.44v-.19Zm-2,5.8c-4.14,1-16,.09-26.53-2.84-6.21-1.73-9.52-2.46-9.83-2.17-.49-1-.91-1.9-1.28-2.77l.1,0A64.27,64.27,0,0,1,24.24,35c1.6.45,3.41.95,5.31,1.44-.71-.21-1.41-.45-2.11-.7l.21.06a98.33,98.33,0,0,0,12.13,2.7c-1.33-.15-2.74-.36-4.18-.62,4.9,1.05,9.7,1.71,12.72,1.17.42,0,.69-.06.82-.08A11.67,11.67,0,0,1,48.33,40.39Zm-42-6.13s0-.11,0-.22c.59-2.41,1.26-3.9,2-4.45.36,1.09.82,2.34,1.43,3.75-.88.58-1.55,2.2-1.91,4.68C7.29,36.73,6.77,35.44,6.34,34.26ZM8,38.08c.21-1.49.73-3.9,1.86-4.63.37.84.78,1.74,1.26,2.7-1.52.5-1.68,4.26-1.69,4.68A28.25,28.25,0,0,1,8,38.18.84.84,0,0,1,8,38.08Zm41.21.74a14.42,14.42,0,0,1-2.07.14c-.68,0-1.5,0-2.45-.06a82.48,82.48,0,0,1-17-3.24c-3.82-1.07-6.79-1.82-9.09-2.34a31.4,31.4,0,0,0-7-1.09,1.77,1.77,0,0,0-.83.11.14.14,0,0,1-.09.13c-.59-1.39-1-2.66-1.39-3.78h0c2.81.34,9.38,1.46,21.74,5.19,9.32,2.82,14.25,3.4,16.73,3.4A7.1,7.1,0,0,0,49.88,37,11.3,11.3,0,0,1,49.21,38.82ZM8.38,25.23c1.06-.89,3.18-1,6.44-.45a86.79,86.79,0,0,1,12.11,3.8c3.36,1.21,7.17,2.58,11.21,3.84h0a66.52,66.52,0,0,0,12,2.46c0,.18,0,.36,0,.54C45.67,37,34.56,32.94,26.45,29.94c-3-1.1-5.59-2.06-7.49-2.61-6.05-1.77-9.43-1.27-10.36-1.07C8.51,25.89,8.44,25.55,8.38,25.23Zm-.86,1.12a27.37,27.37,0,0,0,.82,3.12c-1.14.84-1.81,3.58-2,4.54l0,.07c-.38-1.07-.69-2-.92-2.83A27.35,27.35,0,0,1,7.52,26.35Zm2,14.58a.07.07,0,0,0,0-.06s.12-4.15,1.65-4.61c.53,1.06,1,2,1.48,2.91-.81.6-1.16,2-1.06,4.18,0,.11,0,.21,0,.23s0,.07,0,.07h0s0,0,.05,0a1.29,1.29,0,0,0,0-.26c0-.83-.15-3.21,1-4.07a47.47,47.47,0,0,0,4.2,7.1h-.13C13.77,46.26,11.35,43.88,9.49,40.93Zm9.13,5.55A16,16,0,0,1,15.43,42c1.1.09,3.8.4,9.31,1.45a91.17,91.17,0,0,0,14.69,1.85l.83,0C34.87,46.56,27.62,47,18.62,46.48Zm25-2.18c-.79.29-1.63.55-2.53.79h0c-2.42.36-9-.34-16.31-1.74a90.72,90.72,0,0,0-9.4-1.47c-.57-1-1.21-2.21-1.94-3.63,1,.15,4.34.85,11.35,2.65a71.32,71.32,0,0,0,16.58,2.3,20.8,20.8,0,0,0,4.93-.47A9.48,9.48,0,0,1,43.6,44.3Zm2.88-1.76h0c-4,1.15-13.3.39-21.68-1.77-6.41-1.64-10.32-2.52-11.44-2.66-.4-.78-.83-1.62-1.28-2.54a0,0,0,0,0,0,0,.07.07,0,0,0,0-.09h0c.18-.09,1.46-.08,9.72,2.21a89.31,89.31,0,0,0,21.94,3.24,22,22,0,0,0,4.5-.36A11,11,0,0,1,46.48,42.54Zm3.44-5.65c-.44.16-4.34,1.26-18.9-3.13C18.66,30,12.09,28.9,9.27,28.56H9.21C9,27.76,8.78,27,8.63,26.39c.93-.21,4.28-.7,10.31,1.06,1.9.56,4.48,1.51,7.48,2.62,6.85,2.53,15.83,5.84,21.18,5.84a7.6,7.6,0,0,0,2.53-.36c0,.22,0,.43-.06.63S50,36.61,49.92,36.89Z"/><path class="cls-4" d="M29.55,36.43a54.61,54.61,0,0,0,6.05,1.44C33.56,37.44,31.51,36.94,29.55,36.43Z"/></g></svg>