<?xml version="1.0" standalone="no"?>
<!DOCTYPE svg PUBLIC "-//W3C//DTD SVG 20010904//EN"
 "http://www.w3.org/TR/2001/REC-SVG-20010904/DTD/svg10.dtd">
<svg version="1.0" xmlns="http://www.w3.org/2000/svg"
 width="3068.000000pt" height="3068.000000pt" viewBox="0 0 3068.000000 3068.000000"
 preserveAspectRatio="xMidYMid meet">

<g transform="translate(0.000000,3068.000000) scale(0.100000,-0.100000)"
fill="#000000" stroke="none">
<path d="M18650 22991 c0 -4 -69 -11 -152 -15 -84 -4 -154 -11 -156 -17 -2 -5
-28 -9 -58 -9 -30 0 -54 -4 -54 -10 0 -5 -20 -10 -45 -10 -25 0 -45 -4 -45
-10 0 -5 -16 -10 -35 -10 -19 0 -35 -4 -35 -10 0 -5 -18 -10 -40 -10 -22 0
-40 -4 -40 -9 0 -4 -27 -11 -60 -15 -33 -4 -60 -11 -60 -16 0 -6 -18 -10 -40
-10 -22 0 -40 -4 -40 -10 0 -5 -11 -10 -25 -10 -14 0 -25 -4 -25 -10 0 -5 -13
-10 -30 -10 -16 0 -30 -4 -30 -10 0 -5 -11 -10 -25 -10 -14 0 -25 -4 -25 -9 0
-6 -20 -13 -45 -17 -25 -3 -45 -10 -45 -15 0 -5 -9 -9 -20 -9 -11 0 -20 -4
-20 -10 0 -5 -13 -10 -30 -10 -16 0 -30 -4 -30 -10 0 -5 -7 -10 -15 -10 -8 0
-15 -4 -15 -10 0 -5 -9 -10 -20 -10 -11 0 -20 -4 -20 -9 0 -6 -20 -13 -45 -17
-25 -3 -45 -10 -45 -15 0 -5 -9 -9 -20 -9 -11 0 -20 -4 -20 -10 0 -5 -7 -10
-15 -10 -8 0 -15 -4 -15 -10 0 -5 -7 -10 -16 -10 -9 0 -24 -8 -33 -19 -9 -10
-31 -22 -49 -25 -17 -4 -32 -12 -32 -17 0 -5 -9 -9 -20 -9 -11 0 -20 -4 -20
-10 0 -5 -6 -10 -13 -10 -7 0 -19 -9 -27 -20 -8 -11 -22 -20 -32 -20 -10 0
-18 -4 -18 -10 0 -5 -9 -10 -20 -10 -11 0 -23 -7 -26 -15 -4 -8 -14 -15 -23
-15 -9 0 -23 -9 -31 -20 -8 -11 -22 -20 -32 -20 -9 0 -20 -9 -23 -20 -3 -11
-15 -20 -25 -20 -10 0 -25 -7 -34 -15 -8 -8 -22 -15 -30 -15 -9 0 -16 -4 -16
-8 0 -16 -37 -52 -54 -52 -9 0 -16 -4 -16 -9 0 -5 -9 -12 -19 -16 -11 -3 -23
-15 -26 -26 -4 -10 -13 -19 -21 -19 -8 0 -30 -16 -50 -35 -19 -19 -39 -35 -44
-35 -13 0 -440 -428 -440 -441 0 -6 -22 -32 -50 -59 -27 -27 -50 -53 -50 -59
0 -6 -11 -21 -25 -35 -14 -14 -25 -28 -25 -32 0 -3 -13 -18 -28 -32 -16 -15
-32 -39 -36 -54 -3 -16 -11 -28 -16 -28 -6 0 -10 -6 -10 -13 0 -7 -9 -19 -20
-27 -11 -8 -20 -21 -20 -29 0 -7 -8 -21 -19 -30 -10 -9 -21 -26 -25 -38 -4
-13 -12 -23 -17 -23 -5 0 -9 -9 -9 -20 0 -11 -4 -20 -10 -20 -5 0 -10 -6 -10
-13 0 -7 -9 -19 -20 -27 -11 -8 -20 -22 -20 -32 0 -10 -4 -18 -9 -18 -5 0 -12
-16 -15 -35 -4 -19 -11 -35 -16 -35 -6 0 -10 -8 -10 -18 0 -10 -9 -24 -20 -32
-11 -8 -20 -20 -20 -27 0 -7 -4 -13 -10 -13 -5 0 -10 -9 -10 -20 0 -11 -4 -20
-9 -20 -6 0 -13 -20 -17 -45 -3 -25 -10 -45 -15 -45 -5 0 -9 -9 -9 -20 0 -11
-4 -20 -10 -20 -5 0 -10 -9 -10 -20 0 -11 -4 -20 -10 -20 -5 0 -10 -7 -10 -15
0 -8 -4 -15 -9 -15 -4 0 -11 -19 -14 -42 -3 -24 -11 -44 -16 -46 -6 -2 -11
-17 -11 -33 0 -16 -4 -29 -10 -29 -5 0 -10 -9 -10 -20 0 -11 -4 -20 -10 -20
-5 0 -10 -11 -10 -25 0 -14 -4 -25 -10 -25 -5 0 -10 -13 -10 -30 0 -16 -4 -30
-9 -30 -5 0 -13 -25 -16 -55 -4 -30 -11 -55 -16 -55 -5 0 -9 -16 -9 -35 0 -19
-4 -35 -10 -35 -5 0 -10 -16 -10 -35 0 -19 -4 -35 -10 -35 -5 0 -10 -18 -10
-40 0 -22 -4 -40 -10 -40 -5 0 -10 -16 -10 -35 0 -19 -4 -35 -9 -35 -5 0 -12
-40 -16 -90 -4 -49 -11 -90 -16 -90 -5 0 -9 -29 -9 -65 0 -37 -4 -65 -10 -65
-6 0 -10 -33 -10 -80 0 -47 -4 -80 -10 -80 -6 0 -10 -120 -10 -340 0 -220 4
-340 10 -340 6 0 10 -35 10 -85 0 -50 4 -85 10 -85 6 0 10 -28 10 -65 0 -36 4
-65 9 -65 4 0 11 -39 15 -87 3 -49 11 -89 16 -91 6 -2 10 -15 10 -28 0 -23 -2
-24 -80 -24 -44 0 -80 4 -80 9 0 4 -98 11 -217 15 -120 4 -219 12 -221 17 -2
5 -37 9 -78 9 -43 0 -74 4 -74 10 0 6 -32 10 -75 10 -43 0 -75 4 -75 10 0 6
-27 10 -60 10 -33 0 -60 4 -60 9 0 5 -54 12 -120 16 -66 4 -120 11 -120 16 0
5 -25 9 -55 9 -30 0 -55 5 -55 10 0 6 -20 10 -45 10 -25 0 -45 5 -45 10 0 6
-20 10 -45 10 -25 0 -45 5 -45 10 0 6 -22 10 -50 10 -27 0 -50 4 -50 9 0 5
-40 12 -90 16 -49 4 -90 11 -90 16 0 5 -16 9 -35 9 -19 0 -35 5 -35 10 0 6
-18 10 -40 10 -22 0 -40 5 -40 10 0 6 -16 10 -35 10 -19 0 -35 5 -35 10 0 6
-16 10 -35 10 -19 0 -35 4 -35 9 0 5 -34 12 -75 16 -41 4 -75 11 -75 16 0 5
-16 9 -35 9 -19 0 -35 5 -35 10 0 6 -13 10 -30 10 -16 0 -30 5 -30 10 0 6 -16
10 -35 10 -19 0 -35 5 -35 10 0 6 -13 10 -30 10 -16 0 -30 4 -30 9 0 4 -27 11
-60 15 -33 4 -60 11 -60 16 0 6 -13 10 -30 10 -16 0 -30 5 -30 10 0 6 -11 10
-25 10 -14 0 -25 5 -25 10 0 6 -18 10 -40 10 -22 0 -40 5 -40 10 0 6 -11 10
-25 10 -14 0 -25 4 -25 9 0 5 -25 12 -55 16 -30 3 -55 11 -55 16 0 5 -9 9 -20
9 -11 0 -20 5 -20 10 0 6 -11 10 -25 10 -14 0 -25 5 -25 10 0 6 -13 10 -30 10
-16 0 -30 5 -30 10 0 6 -11 10 -25 10 -14 0 -25 4 -25 9 0 4 -19 11 -42 14
-24 3 -44 11 -46 16 -2 6 -17 11 -33 11 -16 0 -29 5 -29 10 0 6 -9 10 -20 10
-11 0 -20 5 -20 10 0 6 -11 10 -25 10 -14 0 -25 5 -25 10 0 6 -13 10 -30 10
-16 0 -30 4 -30 10 0 5 -16 12 -35 16 -19 3 -35 10 -35 15 0 5 -11 9 -25 9
-14 0 -25 5 -25 10 0 6 -9 10 -20 10 -11 0 -20 5 -20 10 0 6 -13 10 -30 10
-16 0 -30 5 -30 10 0 6 -7 10 -15 10 -8 0 -15 4 -15 9 0 6 -20 13 -45 17 -25
3 -45 10 -45 15 0 5 -9 9 -20 9 -11 0 -20 5 -20 10 0 6 -9 10 -20 10 -11 0
-20 5 -20 10 0 6 -7 10 -15 10 -8 0 -15 5 -15 10 0 6 -13 10 -30 10 -16 0 -30
4 -30 9 0 5 -16 12 -35 15 -19 4 -35 11 -35 16 0 6 -9 10 -20 10 -11 0 -20 5
-20 10 0 6 -9 10 -20 10 -11 0 -20 5 -20 10 0 6 -7 10 -15 10 -8 0 -15 5 -15
10 0 6 -9 10 -20 10 -11 0 -20 4 -20 9 0 5 -16 12 -35 15 -19 4 -35 11 -35 16
0 6 -9 10 -20 10 -11 0 -20 5 -20 10 0 6 -9 10 -20 10 -11 0 -20 5 -20 10 0 6
-7 10 -15 10 -8 0 -15 5 -15 10 0 6 -9 10 -20 10 -11 0 -20 4 -20 9 0 5 -16
12 -35 15 -19 4 -35 11 -35 16 0 6 -9 10 -20 10 -11 0 -20 5 -20 10 0 6 -7 10
-15 10 -8 0 -15 5 -15 10 0 6 -9 10 -20 10 -11 0 -20 5 -20 10 0 6 -9 10 -20
10 -11 0 -20 4 -20 10 0 5 -11 12 -25 16 -14 3 -25 10 -25 15 0 5 -9 9 -20 9
-11 0 -20 5 -20 10 0 6 -9 10 -20 10 -11 0 -20 5 -20 10 0 6 -5 10 -11 10 -7
0 -19 8 -28 19 -9 10 -31 22 -49 25 -17 4 -32 12 -32 17 0 5 -8 9 -18 9 -10 0
-24 9 -32 20 -8 11 -22 20 -32 20 -10 0 -18 5 -18 10 0 6 -5 10 -11 10 -6 0
-17 7 -25 15 -9 8 -24 15 -35 15 -10 0 -19 5 -19 10 0 6 -6 10 -13 10 -7 0
-19 9 -27 20 -8 11 -21 20 -30 20 -9 0 -22 9 -30 20 -8 10 -28 22 -44 26 -17
4 -38 15 -47 25 -9 11 -23 19 -32 19 -9 0 -19 9 -22 20 -3 11 -15 20 -25 20
-10 0 -25 7 -34 15 -8 8 -21 15 -30 15 -8 0 -18 9 -21 20 -3 11 -14 20 -23 20
-10 0 -24 9 -32 20 -8 11 -23 20 -33 20 -9 0 -20 7 -23 15 -4 8 -14 15 -23 15
-9 0 -23 9 -31 20 -8 11 -22 20 -32 20 -9 0 -20 9 -23 20 -3 11 -15 20 -25 20
-11 0 -30 11 -44 25 -14 14 -29 25 -33 25 -5 0 -15 9 -23 20 -8 11 -20 20 -28
20 -7 0 -20 6 -27 13 -31 27 -44 37 -51 37 -3 0 -19 14 -34 30 -15 17 -33 30
-39 30 -7 0 -22 11 -35 25 -13 14 -29 25 -36 25 -6 0 -25 14 -40 30 -15 17
-31 30 -35 30 -3 0 -13 6 -20 13 -31 27 -44 37 -50 37 -4 0 -24 18 -45 40 -21
22 -44 40 -51 40 -6 0 -31 20 -55 45 -23 25 -47 45 -53 45 -6 0 -31 20 -55 45
-25 25 -52 45 -60 45 -8 0 -18 9 -21 20 -3 11 -10 20 -15 20 -5 0 -25 16 -44
35 -20 19 -38 35 -41 35 -11 0 -114 98 -135 129 -8 11 -22 21 -32 21 -9 0 -28
11 -40 25 -13 14 -38 40 -57 59 -18 18 -42 43 -53 54 -32 31 -86 85 -110 110
-11 11 -36 35 -54 53 -19 19 -44 44 -56 56 -23 23 -32 32 -101 100 -19 20 -44
44 -55 55 -11 11 -35 36 -53 54 -19 19 -44 44 -56 56 -12 13 -35 34 -52 48
-17 14 -31 33 -31 42 0 10 -7 23 -16 30 -43 36 -124 123 -124 133 0 3 -16 21
-35 41 -19 19 -35 39 -35 44 0 5 -9 12 -20 15 -11 3 -20 13 -20 21 0 8 -20 35
-45 60 -25 24 -45 49 -45 54 0 10 -65 80 -74 80 -2 0 -7 -18 -11 -40 -4 -22
-11 -40 -16 -40 -5 0 -9 -7 -9 -15 0 -8 -4 -15 -10 -15 -5 0 -10 -9 -10 -20 0
-11 -4 -20 -10 -20 -5 0 -10 -9 -10 -20 0 -11 -4 -20 -10 -20 -5 0 -10 -7 -10
-15 0 -8 -4 -15 -9 -15 -5 0 -12 -18 -16 -40 -4 -22 -11 -40 -16 -40 -5 0 -9
-7 -9 -15 0 -8 -4 -15 -10 -15 -5 0 -10 -9 -10 -20 0 -11 -4 -20 -10 -20 -5 0
-10 -9 -10 -20 0 -11 -4 -20 -10 -20 -5 0 -10 -11 -10 -25 0 -14 -4 -25 -9
-25 -5 0 -12 -18 -16 -40 -4 -22 -11 -40 -16 -40 -5 0 -9 -11 -9 -25 0 -14 -4
-25 -10 -25 -5 0 -10 -13 -10 -30 0 -16 -4 -30 -10 -30 -5 0 -10 -11 -10 -25
0 -14 -4 -25 -10 -25 -5 0 -10 -9 -10 -20 0 -11 -4 -20 -9 -20 -4 0 -11 -27
-15 -60 -4 -33 -11 -60 -16 -60 -6 0 -10 -13 -10 -30 0 -16 -4 -30 -10 -30 -5
0 -10 -16 -10 -35 0 -19 -4 -35 -10 -35 -5 0 -10 -18 -10 -40 0 -22 -4 -40
-10 -40 -5 0 -10 -20 -10 -45 0 -25 -4 -45 -9 -45 -5 0 -13 -45 -16 -100 -4
-55 -11 -100 -16 -100 -5 0 -9 -29 -9 -65 0 -37 -4 -65 -10 -65 -6 0 -10 -37
-10 -90 0 -53 -4 -90 -10 -90 -6 0 -10 -98 -10 -275 0 -177 4 -275 10 -275 6
0 10 -37 10 -90 0 -53 4 -90 10 -90 6 0 10 -32 10 -75 0 -41 4 -75 9 -75 5 0
13 -45 16 -100 4 -55 11 -100 16 -100 5 0 9 -16 9 -35 0 -19 5 -35 10 -35 6 0
10 -18 10 -40 0 -22 5 -40 10 -40 6 0 10 -16 10 -35 0 -19 5 -35 10 -35 6 0
10 -13 10 -30 0 -16 4 -30 9 -30 4 0 11 -27 15 -60 4 -33 11 -60 16 -60 6 0
10 -13 10 -30 0 -16 5 -30 10 -30 6 0 10 -11 10 -25 0 -14 5 -25 10 -25 6 0
10 -9 10 -20 0 -11 5 -20 10 -20 6 0 10 -13 10 -30 0 -16 4 -30 9 -30 5 0 12
-20 15 -45 4 -25 11 -45 17 -45 5 0 9 -7 9 -15 0 -8 5 -15 10 -15 6 0 10 -13
10 -30 0 -16 5 -30 10 -30 6 0 10 -9 10 -20 0 -11 5 -20 10 -20 6 0 10 -7 10
-15 0 -8 4 -15 9 -15 5 0 12 -18 16 -40 4 -22 11 -40 16 -40 5 0 9 -7 9 -15 0
-8 5 -15 10 -15 6 0 10 -9 10 -20 0 -11 5 -20 10 -20 6 0 10 -9 10 -20 0 -11
5 -20 10 -20 6 0 10 -5 10 -11 0 -6 7 -17 15 -25 8 -9 15 -24 15 -35 0 -10 5
-19 10 -19 6 0 10 -7 10 -15 0 -8 5 -15 10 -15 6 0 10 -8 10 -18 0 -10 9 -24
20 -32 11 -8 20 -20 20 -27 0 -7 4 -13 10 -13 5 0 13 -12 16 -27 4 -16 15 -35
26 -44 10 -9 18 -20 18 -25 0 -5 9 -16 20 -24 11 -8 20 -22 20 -32 0 -10 4
-18 9 -18 5 0 13 -10 17 -22 4 -13 20 -35 35 -49 16 -15 29 -33 29 -39 0 -7
16 -27 35 -46 19 -18 35 -38 35 -44 0 -6 25 -35 55 -65 30 -29 55 -59 55 -67
0 -7 10 -20 21 -28 12 -8 27 -21 33 -28 6 -7 31 -33 55 -57 53 -53 53 -53 106
-106 24 -24 50 -49 57 -55 7 -6 20 -21 28 -33 8 -11 21 -21 28 -21 8 0 38 -25
67 -55 30 -30 59 -55 65 -55 6 0 26 -16 44 -35 19 -19 39 -35 46 -35 6 0 25
-13 40 -30 15 -16 33 -30 39 -30 6 0 11 -4 11 -10 0 -5 12 -13 27 -16 27 -7
53 -26 53 -38 0 -3 -38 -6 -85 -6 -50 0 -85 4 -85 10 0 6 -37 10 -90 10 -49 0
-90 4 -90 9 0 5 -49 12 -110 16 -60 4 -110 11 -110 16 0 5 -20 9 -45 9 -25 0
-45 5 -45 10 0 6 -18 10 -40 10 -22 0 -40 5 -40 10 0 6 -16 10 -35 10 -19 0
-35 5 -35 10 0 6 -16 10 -35 10 -19 0 -35 4 -35 9 0 4 -28 11 -62 15 -35 3
-64 11 -66 16 -2 6 -17 10 -33 10 -16 0 -29 5 -29 10 0 6 -11 10 -25 10 -14 0
-25 5 -25 10 0 6 -13 10 -30 10 -16 0 -30 5 -30 10 0 6 -7 10 -15 10 -8 0 -15
4 -15 9 0 4 -19 11 -42 14 -24 3 -44 11 -46 16 -2 6 -17 11 -33 11 -16 0 -29
5 -29 10 0 6 -9 10 -20 10 -11 0 -20 5 -20 10 0 6 -7 10 -15 10 -8 0 -15 5
-15 10 0 6 -9 10 -20 10 -11 0 -20 4 -20 9 0 5 -20 12 -45 15 -25 4 -45 11
-45 17 0 5 -9 9 -20 9 -11 0 -20 5 -20 10 0 6 -6 10 -13 10 -7 0 -19 9 -27 20
-8 11 -22 20 -32 20 -10 0 -18 5 -18 10 0 6 -9 10 -20 10 -19 0 -20 -7 -20
-140 0 -87 4 -140 10 -140 6 0 10 -43 10 -110 0 -67 4 -110 10 -110 6 0 10
-28 10 -65 0 -37 4 -65 10 -65 6 0 10 -25 10 -55 0 -30 5 -55 10 -55 6 0 10
-20 10 -45 0 -25 4 -45 9 -45 4 0 12 -36 15 -80 4 -44 12 -80 17 -80 5 0 9
-18 9 -40 0 -22 5 -40 10 -40 6 0 10 -11 10 -25 0 -14 5 -25 10 -25 6 0 10
-16 10 -35 0 -19 5 -35 10 -35 6 0 10 -13 10 -30 0 -16 4 -30 9 -30 5 0 13
-25 16 -55 4 -30 11 -55 16 -55 5 0 9 -9 9 -20 0 -11 5 -20 10 -20 6 0 10 -11
10 -25 0 -14 5 -25 10 -25 6 0 10 -13 10 -30 0 -16 5 -30 10 -30 6 0 10 -7 10
-15 0 -8 4 -15 9 -15 6 0 13 -20 17 -45 3 -25 10 -45 15 -45 5 0 9 -9 9 -20 0
-11 5 -20 10 -20 6 0 10 -9 10 -20 0 -11 5 -20 10 -20 6 0 10 -7 10 -15 0 -8
5 -15 10 -15 6 0 10 -9 10 -20 0 -11 4 -20 9 -20 5 0 12 -16 15 -35 4 -19 11
-35 16 -35 6 0 10 -9 10 -20 0 -11 5 -20 10 -20 6 0 10 -8 10 -18 0 -10 9 -24
20 -32 11 -8 20 -20 20 -27 0 -7 4 -13 9 -13 5 0 12 -18 16 -40 4 -26 13 -41
26 -45 10 -4 19 -14 19 -23 0 -10 9 -24 20 -32 11 -8 20 -22 20 -32 0 -10 5
-18 10 -18 6 0 10 -7 10 -15 0 -8 11 -25 25 -39 14 -14 25 -32 25 -40 0 -8 9
-18 20 -21 11 -3 20 -13 20 -21 0 -9 6 -22 13 -29 26 -30 37 -44 37 -50 0 -3
16 -21 35 -41 19 -19 35 -44 35 -54 0 -11 4 -20 9 -20 13 0 91 -76 91 -89 0
-14 367 -381 381 -381 6 0 30 -20 53 -45 24 -25 49 -45 56 -45 13 0 70 -57 70
-71 0 -5 9 -9 20 -9 10 0 30 -11 44 -25 14 -14 29 -25 33 -25 5 0 15 -9 23
-20 8 -11 22 -20 32 -20 10 0 18 -4 18 -9 0 -5 10 -13 23 -17 12 -4 29 -15 38
-25 9 -11 23 -19 30 -19 8 0 21 -9 29 -20 8 -11 20 -20 27 -20 7 0 13 -4 13
-10 0 -5 9 -10 19 -10 11 0 26 -7 35 -15 8 -8 22 -15 30 -15 9 0 16 -4 16 -10
0 -5 7 -10 15 -10 8 0 15 -4 15 -10 0 -5 9 -10 20 -10 11 0 20 -4 20 -10 0 -5
9 -10 19 -10 10 0 21 -7 25 -15 3 -8 15 -15 26 -15 11 0 20 -4 20 -10 0 -5 9
-10 20 -10 11 0 20 -4 20 -10 0 -5 7 -10 15 -10 8 0 15 -4 15 -10 0 -5 14 -10
30 -10 17 0 30 -4 30 -10 0 -5 9 -10 20 -10 11 0 20 -4 20 -10 0 -5 16 -12 35
-16 19 -3 35 -10 35 -15 0 -5 11 -9 25 -9 14 0 25 -4 25 -10 0 -5 9 -10 20
-10 11 0 20 -4 20 -10 0 -5 11 -10 25 -10 14 0 25 -4 25 -10 0 -5 9 -10 20
-10 11 0 20 -4 20 -9 0 -5 25 -12 55 -16 30 -3 55 -11 55 -16 0 -5 14 -9 30
-9 17 0 30 -4 30 -10 0 -5 11 -10 25 -10 14 0 25 -4 25 -10 0 -5 16 -10 35
-10 19 0 35 -4 35 -10 0 -5 18 -10 40 -10 22 0 40 -4 40 -9 0 -5 32 -12 70
-16 60 -6 70 -10 70 -26 0 -15 -7 -19 -35 -19 -19 0 -35 -4 -35 -10 0 -5 -16
-10 -35 -10 -19 0 -35 -4 -35 -10 0 -5 -20 -10 -45 -10 -25 0 -45 -4 -45 -9 0
-5 -54 -12 -120 -16 -66 -4 -120 -11 -120 -16 0 -5 -43 -9 -95 -9 -57 0 -95
-4 -95 -10 0 -6 -103 -10 -290 -10 -187 0 -290 4 -290 10 0 6 -37 10 -90 10
-49 0 -90 4 -90 9 0 5 -54 12 -120 16 -66 4 -120 11 -120 16 0 5 -4 9 -10 9
-5 0 -10 -7 -10 -15 0 -8 5 -15 10 -15 6 0 10 -13 10 -30 0 -16 4 -30 9 -30 5
0 13 -25 16 -55 4 -30 11 -55 16 -55 5 0 9 -7 9 -15 0 -8 5 -15 10 -15 6 0 10
-13 10 -30 0 -16 5 -30 10 -30 6 0 10 -9 10 -20 0 -11 5 -20 10 -20 6 0 10
-11 10 -25 0 -14 4 -25 9 -25 5 0 12 -16 15 -35 4 -19 11 -35 16 -35 6 0 10
-9 10 -20 0 -11 5 -20 10 -20 6 0 10 -9 10 -20 0 -11 5 -20 10 -20 6 0 10 -7
10 -15 0 -8 5 -15 10 -15 6 0 10 -9 10 -20 0 -11 4 -20 9 -20 5 0 12 -16 15
-35 4 -19 11 -35 16 -35 6 0 10 -9 10 -20 0 -11 5 -20 10 -20 6 0 10 -8 10
-18 0 -10 9 -24 20 -32 11 -8 20 -20 20 -27 0 -7 5 -13 10 -13 6 0 10 -9 10
-19 0 -11 7 -26 15 -35 8 -8 15 -18 15 -23 0 -5 9 -15 20 -23 11 -8 20 -22 20
-32 0 -10 5 -18 10 -18 6 0 10 -7 10 -15 0 -9 11 -26 25 -39 14 -13 25 -30 25
-37 0 -8 9 -21 20 -29 11 -8 20 -18 20 -23 0 -4 11 -19 25 -33 14 -14 25 -33
25 -42 0 -10 9 -24 21 -32 40 -28 59 -47 59 -59 0 -17 16 -36 80 -93 17 -14
30 -31 30 -37 0 -10 69 -83 238 -253 39 -40 82 -78 87 -78 6 0 27 -18 90 -77
19 -18 37 -33 40 -33 7 0 24 -14 60 -47 13 -13 27 -23 31 -23 3 0 18 -13 32
-28 15 -16 39 -32 55 -36 15 -3 27 -11 27 -16 0 -6 6 -10 13 -10 7 0 19 -9 27
-20 8 -11 21 -20 29 -20 7 0 21 -8 30 -19 9 -10 26 -21 38 -25 13 -4 23 -12
23 -17 0 -5 9 -9 20 -9 11 0 20 -4 20 -10 0 -5 6 -10 13 -10 7 0 19 -9 27 -20
8 -11 22 -20 32 -20 10 0 18 -4 18 -10 0 -5 9 -10 20 -10 11 0 23 -7 26 -15 4
-8 15 -15 25 -15 10 0 19 -4 19 -10 0 -5 9 -10 20 -10 11 0 20 -4 20 -10 0 -5
7 -10 15 -10 8 0 15 -4 15 -10 0 -5 9 -10 20 -10 11 0 20 -4 20 -9 0 -5 16
-12 35 -15 19 -4 35 -11 35 -16 0 -6 9 -10 20 -10 11 0 20 -4 20 -10 0 -5 9
-10 20 -10 11 0 20 -4 20 -10 0 -5 11 -10 25 -10 14 0 25 -4 25 -10 0 -5 9
-10 20 -10 11 0 20 -4 20 -9 0 -6 20 -13 45 -17 25 -3 45 -10 45 -15 0 -5 14
-9 30 -9 17 0 30 -4 30 -10 0 -5 7 -10 15 -10 8 0 15 -4 15 -10 0 -5 14 -10
30 -10 17 0 30 -4 30 -10 0 -5 11 -10 25 -10 14 0 25 -4 25 -9 0 -5 29 -13 65
-16 36 -4 65 -11 65 -16 0 -5 11 -9 25 -9 14 0 25 -4 25 -10 0 -5 18 -10 40
-10 22 0 40 -4 40 -10 0 -5 16 -10 35 -10 19 0 35 -4 35 -10 0 -5 16 -10 35
-10 19 0 35 -4 35 -9 0 -5 47 -12 105 -16 58 -4 105 -11 105 -16 0 -5 32 -9
70 -9 40 0 70 -4 70 -10 0 -6 40 -10 100 -10 60 0 100 -4 100 -10 0 -6 32 -10
75 -10 41 0 75 -3 75 -6 0 -10 -41 -44 -53 -44 -5 0 -22 -13 -37 -30 -15 -16
-35 -30 -43 -30 -9 0 -19 -9 -22 -20 -3 -11 -18 -23 -33 -27 -15 -3 -39 -19
-54 -35 -14 -15 -29 -28 -33 -28 -4 0 -15 -8 -24 -18 -9 -11 -28 -22 -43 -26
-16 -3 -28 -11 -28 -16 0 -6 -6 -10 -13 -10 -7 0 -19 -9 -27 -20 -8 -11 -21
-20 -29 -20 -7 0 -21 -8 -30 -19 -9 -10 -26 -21 -38 -25 -13 -4 -23 -12 -23
-17 0 -5 -8 -9 -18 -9 -10 0 -24 -9 -32 -20 -8 -11 -19 -20 -24 -20 -5 0 -16
-8 -25 -19 -9 -10 -30 -21 -47 -25 -16 -4 -36 -16 -44 -26 -8 -11 -22 -20 -32
-20 -10 0 -18 -4 -18 -10 0 -5 -9 -10 -19 -10 -11 0 -22 -9 -26 -19 -4 -13
-19 -22 -44 -26 -20 -3 -44 -15 -51 -26 -8 -10 -20 -19 -27 -19 -7 0 -13 -4
-13 -10 0 -5 -9 -10 -20 -10 -11 0 -20 -4 -20 -10 0 -5 -7 -10 -15 -10 -8 0
-15 -4 -15 -9 0 -5 -17 -12 -38 -16 -21 -3 -45 -15 -52 -26 -8 -10 -20 -19
-27 -19 -7 0 -13 -4 -13 -10 0 -5 -9 -10 -20 -10 -11 0 -20 -4 -20 -9 0 -5
-16 -12 -35 -15 -19 -4 -35 -11 -35 -16 0 -6 -9 -10 -20 -10 -11 0 -20 -4 -20
-10 0 -5 -9 -10 -20 -10 -11 0 -20 -4 -20 -10 0 -5 -7 -10 -15 -10 -8 0 -15
-4 -15 -10 0 -5 -9 -10 -20 -10 -11 0 -20 -4 -20 -9 0 -5 -16 -12 -35 -15 -19
-4 -35 -11 -35 -16 0 -6 -13 -10 -30 -10 -16 0 -30 -4 -30 -10 0 -5 -7 -10
-15 -10 -8 0 -15 -4 -15 -10 0 -5 -9 -10 -20 -10 -11 0 -20 -4 -20 -10 0 -5
-9 -10 -20 -10 -11 0 -20 -4 -20 -9 0 -5 -20 -12 -45 -15 -25 -4 -45 -11 -45
-17 0 -5 -9 -9 -20 -9 -11 0 -20 -4 -20 -10 0 -5 -11 -10 -25 -10 -14 0 -25
-4 -25 -10 0 -5 -9 -10 -20 -10 -11 0 -20 -4 -20 -10 0 -5 -11 -10 -25 -10
-14 0 -25 -4 -25 -9 0 -6 -20 -13 -45 -17 -25 -3 -45 -10 -45 -15 0 -5 -13 -9
-30 -9 -16 0 -30 -4 -30 -10 0 -5 -9 -10 -20 -10 -11 0 -20 -4 -20 -10 0 -5
-11 -10 -25 -10 -14 0 -25 -4 -25 -10 0 -5 -13 -10 -30 -10 -16 0 -30 -4 -30
-9 0 -5 -25 -13 -55 -16 -30 -4 -55 -11 -55 -16 0 -5 -11 -9 -25 -9 -14 0 -25
-4 -25 -10 0 -5 -13 -10 -30 -10 -16 0 -30 -4 -30 -10 0 -5 -16 -10 -35 -10
-19 0 -35 -4 -35 -10 0 -5 -11 -10 -25 -10 -14 0 -25 -4 -25 -9 0 -5 -29 -13
-65 -16 -36 -4 -65 -11 -65 -16 0 -5 -16 -9 -35 -9 -19 0 -35 -4 -35 -10 0 -5
-13 -10 -30 -10 -16 0 -30 -4 -30 -10 0 -5 -16 -10 -35 -10 -19 0 -35 -4 -35
-10 0 -5 -20 -10 -45 -10 -25 0 -45 -4 -45 -9 0 -5 -38 -12 -85 -16 -47 -4
-85 -11 -85 -16 0 -5 -16 -9 -35 -9 -19 0 -35 -4 -35 -10 0 -5 -25 -10 -55
-10 -30 0 -55 -4 -55 -10 0 -5 -20 -10 -45 -10 -25 0 -45 -4 -45 -10 0 -5 -25
-10 -55 -10 -30 0 -55 -4 -55 -9 0 -5 -59 -12 -130 -16 -72 -4 -130 -11 -130
-16 0 -5 -38 -9 -85 -9 -50 0 -85 -4 -85 -10 0 -6 -42 -10 -105 -10 -63 0
-105 -4 -105 -10 0 -6 -65 -10 -175 -10 -110 0 -175 -4 -175 -10 0 -6 -80 -10
-220 -10 -140 0 -220 4 -220 10 0 6 -68 10 -185 10 -117 0 -185 4 -185 10 0 6
-40 10 -100 10 -60 0 -100 4 -100 10 0 6 -28 10 -65 10 -36 0 -65 -3 -65 -6 0
-11 29 -34 44 -34 9 0 16 -4 16 -10 0 -5 7 -10 15 -10 8 0 15 -4 15 -10 0 -5
12 -13 28 -16 15 -4 34 -15 43 -26 9 -10 21 -18 28 -18 6 0 11 -4 11 -10 0 -5
8 -10 18 -10 10 0 24 -9 32 -20 8 -10 28 -22 44 -26 17 -4 38 -15 47 -25 9
-11 24 -19 33 -19 9 0 16 -4 16 -10 0 -5 7 -10 15 -10 8 0 15 -4 15 -10 0 -5
9 -10 20 -10 11 0 20 -4 20 -10 0 -5 11 -12 25 -16 14 -3 25 -10 25 -15 0 -5
9 -9 20 -9 11 0 20 -4 20 -10 0 -5 8 -10 18 -10 10 0 24 -9 32 -20 8 -11 20
-20 27 -20 7 0 13 -4 13 -9 0 -5 18 -12 40 -16 22 -4 40 -11 40 -16 0 -5 7 -9
15 -9 8 0 15 -4 15 -10 0 -5 9 -10 20 -10 11 0 20 -4 20 -10 0 -5 9 -10 20
-10 11 0 20 -4 20 -10 0 -5 7 -10 15 -10 8 0 15 -4 15 -9 0 -5 18 -12 40 -16
26 -4 41 -13 45 -26 4 -10 15 -19 26 -19 10 0 19 -4 19 -10 0 -5 9 -10 20 -10
11 0 20 -4 20 -10 0 -5 11 -10 25 -10 14 0 25 -4 25 -9 0 -5 18 -12 40 -16 22
-4 40 -11 40 -16 0 -5 7 -9 15 -9 8 0 15 -4 15 -10 0 -5 9 -10 20 -10 11 0 20
-4 20 -10 0 -5 9 -10 20 -10 11 0 20 -4 20 -10 0 -5 16 -12 35 -16 19 -3 35
-10 35 -15 0 -5 9 -9 20 -9 11 0 20 -4 20 -10 0 -5 11 -10 25 -10 14 0 25 -4
25 -10 0 -5 9 -10 20 -10 11 0 20 -4 20 -10 0 -5 7 -10 15 -10 8 0 15 -4 15
-9 0 -6 20 -13 45 -17 25 -3 45 -10 45 -15 0 -5 9 -9 20 -9 11 0 20 -4 20 -10
0 -5 14 -10 30 -10 17 0 30 -4 30 -10 0 -5 7 -10 15 -10 8 0 15 -4 15 -10 0
-5 9 -10 20 -10 11 0 20 -4 20 -9 0 -5 20 -12 45 -15 25 -4 45 -11 45 -17 0
-5 14 -9 30 -9 17 0 30 -4 30 -10 0 -5 7 -10 15 -10 8 0 15 -4 15 -10 0 -5 14
-10 30 -10 17 0 30 -4 30 -10 0 -5 11 -10 25 -10 14 0 25 -4 25 -9 0 -6 20
-13 45 -17 25 -3 45 -10 45 -15 0 -5 14 -9 30 -9 17 0 30 -4 30 -10 0 -5 11
-10 25 -10 14 0 25 -4 25 -10 0 -5 14 -10 30 -10 17 0 30 -4 30 -10 0 -5 9
-10 20 -10 11 0 20 -4 20 -9 0 -5 25 -13 55 -16 30 -4 55 -11 55 -16 0 -5 11
-9 25 -9 14 0 25 -4 25 -10 0 -5 16 -10 35 -10 19 0 35 -4 35 -10 0 -5 14 -10
30 -10 17 0 30 -4 30 -10 0 -5 11 -10 25 -10 14 0 25 -4 25 -9 0 -5 29 -13 65
-16 36 -4 65 -11 65 -16 0 -5 14 -9 30 -9 17 0 30 -4 30 -10 0 -5 16 -10 35
-10 19 0 35 -4 35 -10 0 -5 14 -10 30 -10 17 0 30 -4 30 -10 0 -5 16 -10 35
-10 19 0 35 -4 35 -9 0 -5 32 -12 70 -16 39 -4 70 -11 70 -16 0 -5 18 -9 40
-9 22 0 40 -4 40 -10 0 -5 16 -10 35 -10 19 0 35 -4 35 -10 0 -5 16 -10 35
-10 19 0 35 -4 35 -10 0 -5 23 -10 50 -10 28 0 50 -4 50 -9 0 -5 36 -13 80
-17 44 -3 80 -11 80 -15 0 -5 20 -9 45 -9 25 0 45 -4 45 -10 0 -5 20 -10 45
-10 25 0 45 -4 45 -10 0 -5 25 -10 55 -10 30 0 55 -4 55 -10 0 -5 25 -10 55
-10 30 0 55 -4 55 -9 0 -5 54 -12 120 -16 66 -4 120 -11 120 -16 0 -5 29 -9
65 -9 37 0 65 -4 65 -10 0 -6 32 -10 75 -10 43 0 75 -4 75 -10 0 -6 33 -10 80
-10 47 0 80 -4 80 -10 0 -6 40 -10 99 -10 58 0 101 -4 103 -10 2 -7 156 -13
431 -17 235 -3 427 -10 427 -15 0 -4 74 -8 165 -8 91 0 165 4 165 8 0 5 161
12 358 16 218 4 358 10 360 16 2 6 47 10 103 10 59 0 99 4 99 10 0 6 37 10 90
10 53 0 90 4 90 10 0 6 32 10 75 10 43 0 75 4 75 10 0 6 32 10 75 10 41 0 75
4 75 9 0 5 52 12 115 16 63 4 115 11 115 16 0 5 25 9 55 9 30 0 55 5 55 10 0
6 25 10 55 10 30 0 55 5 55 10 0 6 20 10 45 10 25 0 45 5 45 10 0 6 23 10 50
10 28 0 50 4 50 9 0 5 41 12 90 16 50 4 90 11 90 16 0 5 20 9 45 9 25 0 45 5
45 10 0 6 16 10 35 10 19 0 35 5 35 10 0 6 18 10 40 10 22 0 40 5 40 10 0 6
16 10 35 10 19 0 35 4 35 9 0 5 34 12 75 16 41 4 75 11 75 16 0 5 16 9 35 9
19 0 35 5 35 10 0 6 16 10 35 10 19 0 35 5 35 10 0 6 14 10 30 10 17 0 30 5
30 10 0 6 16 10 35 10 19 0 35 4 35 9 0 5 25 12 55 16 30 3 55 11 55 16 0 5
18 9 40 9 22 0 40 5 40 10 0 6 11 10 25 10 14 0 25 5 25 10 0 6 14 10 30 10
17 0 30 5 30 10 0 6 11 10 25 10 14 0 25 4 25 9 0 5 25 13 55 16 30 4 55 11
55 16 0 5 11 9 25 9 14 0 25 5 25 10 0 6 14 10 30 10 17 0 30 5 30 10 0 6 11
10 25 10 14 0 25 5 25 10 0 6 9 10 20 10 11 0 20 4 20 9 0 5 25 12 55 16 30 3
55 11 55 16 0 5 9 9 20 9 11 0 20 5 20 10 0 6 11 10 25 10 14 0 25 5 25 10 0
6 14 10 30 10 17 0 30 5 30 10 0 6 7 10 15 10 8 0 15 4 15 9 0 5 23 11 50 15
28 4 50 11 50 16 0 6 11 10 25 10 14 0 25 5 25 10 0 6 9 10 20 10 11 0 20 5
20 10 0 6 7 10 15 10 8 0 15 5 15 10 0 6 14 10 30 10 17 0 30 4 30 9 0 5 16
12 35 15 19 4 35 11 35 16 0 6 9 10 20 10 11 0 20 5 20 10 0 6 11 10 25 10 14
0 25 5 25 10 0 6 9 10 20 10 11 0 20 5 20 10 0 6 9 10 20 10 11 0 20 4 20 10
0 5 16 12 35 16 19 3 35 10 35 15 0 5 9 9 20 9 11 0 20 5 20 10 0 6 11 10 25
10 14 0 25 5 25 10 0 6 9 10 20 10 11 0 20 4 20 9 0 5 16 12 35 15 19 4 35 11
35 16 0 6 9 10 20 10 11 0 20 5 20 10 0 6 9 10 20 10 11 0 20 5 20 10 0 6 7
10 15 10 8 0 15 5 15 10 0 6 9 10 20 10 11 0 20 5 20 10 0 6 9 10 20 10 11 0
23 7 26 15 4 8 15 15 25 15 10 0 19 5 19 10 0 6 9 10 20 10 11 0 20 5 20 10 0
6 7 10 15 10 8 0 15 5 15 10 0 6 9 10 20 10 11 0 20 4 20 9 0 5 15 12 33 15
18 3 39 15 47 26 8 11 22 20 32 20 10 0 18 5 18 10 0 6 7 10 15 10 8 0 15 5
15 10 0 6 7 10 16 10 8 0 22 7 30 15 9 8 24 15 35 15 10 0 19 5 19 10 0 6 7
10 15 10 8 0 15 5 15 10 0 6 8 10 18 10 10 0 24 9 32 20 8 11 18 20 23 20 5 0
15 7 23 15 9 8 24 15 35 15 10 0 19 5 19 10 0 6 9 10 19 10 11 0 23 9 26 20 3
11 15 20 26 20 10 0 19 5 19 10 0 6 9 10 20 10 11 0 20 4 20 9 0 5 10 13 23
17 12 4 29 15 38 25 9 11 23 19 30 19 8 0 21 9 29 20 8 11 20 20 27 20 7 0 13
4 13 10 0 5 12 13 28 16 15 4 34 15 43 26 9 10 20 18 25 18 5 0 16 9 24 20 8
11 22 20 32 20 10 0 18 4 18 9 0 5 10 13 23 17 12 4 29 15 38 25 9 11 22 19
29 19 14 0 50 38 50 52 0 4 9 8 20 8 10 0 30 11 44 25 14 14 29 25 33 25 5 0
15 9 23 20 8 11 20 20 28 20 12 0 23 7 57 38 7 6 16 12 20 12 4 0 24 18 45 40
21 22 43 40 49 40 5 0 21 11 35 25 14 14 31 25 38 25 8 0 20 10 28 21 25 36
41 49 59 49 9 0 23 9 31 21 32 45 66 76 93 83 15 3 27 10 27 15 0 14 57 71 70
71 7 0 36 25 65 55 30 30 59 55 65 55 7 0 52 41 101 90 48 50 93 90 98 90 13
0 591 577 591 590 0 5 41 50 90 99 50 50 90 97 90 105 0 8 9 18 20 21 11 3 20
10 20 15 0 5 16 25 35 44 19 20 35 38 35 41 0 3 10 17 23 30 56 62 67 75 67
80 0 3 10 17 23 30 56 62 67 75 67 80 0 3 16 21 35 41 19 19 35 44 35 54 0 11
4 20 9 20 14 0 71 57 71 70 0 7 11 23 25 36 14 13 25 28 25 35 0 6 14 24 30
39 17 15 30 31 30 35 0 3 6 13 13 20 31 35 37 45 37 60 0 8 4 15 8 15 16 0 52
37 52 54 0 9 4 16 9 16 5 0 13 10 17 22 4 13 20 35 35 49 16 15 29 33 29 39 0
7 8 20 19 29 10 9 21 26 25 39 4 12 12 22 17 22 5 0 9 8 9 18 0 10 9 24 20 32
11 8 20 19 20 24 0 5 8 16 18 25 11 9 22 28 26 44 3 15 11 27 16 27 6 0 10 6
10 13 0 7 9 19 20 27 11 8 20 21 20 29 0 7 8 21 19 30 10 9 21 26 25 39 4 12
12 22 17 22 5 0 9 9 9 20 0 11 5 20 10 20 6 0 10 6 10 13 0 7 9 19 20 27 11 8
20 22 20 32 0 10 4 18 10 18 5 0 12 11 16 25 3 14 10 25 15 25 5 0 9 8 9 18 0
10 9 24 20 32 11 8 20 22 20 32 0 10 5 18 10 18 6 0 10 5 10 11 0 6 7 17 15
25 8 9 15 24 15 35 0 10 5 19 10 19 6 0 10 7 10 15 0 8 5 15 10 15 6 0 10 8
10 18 0 10 9 24 20 32 11 8 20 22 20 32 0 10 4 18 9 18 5 0 13 15 17 32 3 18
15 40 25 49 11 9 19 21 19 28 0 6 5 11 10 11 6 0 10 9 10 20 0 11 5 20 10 20
6 0 10 9 10 20 0 11 4 20 9 20 5 0 13 15 17 32 3 18 15 40 25 49 11 9 19 24
19 33 0 9 5 16 10 16 6 0 10 7 10 15 0 8 5 15 10 15 6 0 10 9 10 20 0 11 4 20
10 20 5 0 12 16 16 35 3 19 10 35 15 35 5 0 9 9 9 20 0 11 5 20 10 20 6 0 10
7 10 15 0 8 5 15 10 15 6 0 10 9 10 20 0 11 5 20 10 20 6 0 10 9 10 20 0 11 4
20 10 20 5 0 12 16 16 35 3 19 10 35 15 35 5 0 9 9 9 20 0 11 5 20 10 20 6 0
10 11 10 25 0 14 5 25 10 25 6 0 10 9 10 20 0 11 5 20 10 20 6 0 10 9 10 20 0
11 4 20 10 20 5 0 12 16 16 35 3 19 10 35 15 35 5 0 9 9 9 20 0 11 5 20 10 20
6 0 10 11 10 25 0 14 5 25 10 25 6 0 10 9 10 19 0 11 5 21 11 23 5 2 13 22 16
46 3 23 10 42 14 42 5 0 9 9 9 20 0 11 5 20 10 20 6 0 10 7 10 15 0 8 5 15 10
15 6 0 10 14 10 30 0 17 5 30 10 30 6 0 10 7 10 15 0 8 4 15 10 15 5 0 12 23
16 50 4 28 10 50 15 50 5 0 9 7 9 15 0 8 5 15 10 15 6 0 10 14 10 30 0 17 5
30 10 30 6 0 10 11 10 25 0 14 5 25 10 25 6 0 10 9 10 20 0 11 4 20 9 20 5 0
13 25 16 55 4 30 11 55 16 55 5 0 9 9 9 20 0 11 5 20 10 20 6 0 10 11 10 25 0
14 5 25 10 25 6 0 10 14 10 30 0 17 5 30 10 30 6 0 10 11 10 25 0 14 4 25 9
25 5 0 12 20 15 45 4 25 11 45 17 45 5 0 9 14 9 30 0 17 5 30 10 30 6 0 10 11
10 25 0 14 5 25 10 25 6 0 10 16 10 35 0 19 5 35 10 35 6 0 10 14 10 30 0 17
4 30 9 30 5 0 13 25 16 55 4 30 11 55 16 55 5 0 9 11 9 25 0 14 5 25 10 25 6
0 10 18 10 40 0 22 5 40 10 40 6 0 10 11 10 25 0 14 5 25 10 25 6 0 10 18 10
40 0 22 4 40 9 40 4 0 11 27 15 60 4 33 11 60 16 60 6 0 10 18 10 40 0 22 5
40 10 40 6 0 10 16 10 35 0 19 5 35 10 35 6 0 10 16 10 35 0 19 5 35 10 35 6
0 10 18 10 40 0 22 4 40 9 40 5 0 13 36 17 80 3 44 11 80 15 80 5 0 9 18 9 40
0 22 5 40 10 40 6 0 10 20 10 45 0 25 5 45 10 45 6 0 10 20 10 45 0 25 5 45
10 45 6 0 10 20 10 45 0 25 4 45 9 45 5 0 12 45 16 100 3 55 11 100 16 100 5
0 9 25 9 55 0 30 5 55 10 55 6 0 10 28 10 65 0 37 4 65 10 65 6 0 10 28 10 65
0 37 4 65 10 65 6 0 10 30 10 69 0 38 4 71 9 73 5 2 13 76 17 166 4 89 11 162
15 162 5 0 9 54 9 120 0 73 4 120 10 120 6 0 10 65 10 175 0 110 4 175 10 175
6 0 10 132 10 375 0 243 -4 375 -10 375 -5 0 -10 25 -10 55 0 46 3 55 18 55
10 0 24 9 32 20 8 11 18 20 23 20 5 0 15 6 22 13 35 31 45 37 60 37 8 0 15 4
15 9 0 18 56 68 83 75 15 3 27 10 27 15 0 13 36 51 50 51 6 0 27 16 46 35 18
19 39 35 44 35 6 0 35 25 65 55 29 30 58 55 65 55 7 0 25 15 41 33 16 17 33
36 38 41 5 4 25 24 45 42 20 19 36 39 36 44 0 6 7 10 15 10 17 0 33 11 68 48
23 23 69 70 109 109 23 23 32 32 101 100 19 20 44 44 55 55 11 11 36 36 56 55
20 18 36 43 36 53 0 11 4 20 10 20 8 0 69 59 106 102 6 7 21 20 33 28 11 8 21
21 21 28 0 8 25 38 55 67 30 30 55 59 55 65 0 6 20 30 45 54 25 25 45 50 45
56 0 14 38 50 51 50 5 0 12 12 15 28 4 15 20 39 36 54 15 14 28 29 28 32 0 4
11 18 25 32 14 14 25 34 25 44 0 11 4 20 8 20 15 0 52 37 52 51 0 8 9 21 20
29 11 8 20 20 20 27 0 7 11 23 25 37 14 14 25 31 25 38 0 8 9 20 20 28 11 8
20 18 20 23 0 5 7 15 15 23 22 22 18 34 -10 34 -14 0 -25 -4 -25 -10 0 -5 -9
-10 -20 -10 -11 0 -20 -4 -20 -10 0 -5 -7 -10 -15 -10 -8 0 -15 -4 -15 -9 0
-5 -22 -11 -50 -15 -27 -4 -50 -11 -50 -16 0 -6 -11 -10 -25 -10 -14 0 -25 -4
-25 -10 0 -5 -9 -10 -20 -10 -11 0 -20 -4 -20 -10 0 -5 -11 -10 -25 -10 -14 0
-25 -4 -25 -10 0 -5 -9 -10 -20 -10 -11 0 -20 -4 -20 -9 0 -5 -25 -13 -55 -16
-30 -4 -55 -11 -55 -16 0 -5 -11 -9 -25 -9 -14 0 -25 -4 -25 -10 0 -5 -9 -10
-20 -10 -11 0 -20 -4 -20 -10 0 -5 -13 -10 -30 -10 -16 0 -30 -4 -30 -10 0 -5
-11 -10 -25 -10 -14 0 -25 -4 -25 -9 0 -5 -29 -12 -65 -16 -36 -3 -65 -11 -65
-16 0 -5 -11 -9 -25 -9 -14 0 -25 -4 -25 -10 0 -5 -13 -10 -30 -10 -16 0 -30
-4 -30 -10 0 -5 -16 -10 -35 -10 -19 0 -35 -4 -35 -10 0 -5 -13 -10 -30 -10
-16 0 -30 -4 -30 -9 0 -5 -31 -12 -70 -16 -38 -4 -70 -11 -70 -16 0 -5 -18 -9
-40 -9 -22 0 -40 -4 -40 -10 0 -5 -16 -10 -35 -10 -19 0 -35 -4 -35 -10 0 -5
-20 -10 -45 -10 -25 0 -45 -4 -45 -10 0 -5 -16 -10 -35 -10 -19 0 -35 -4 -35
-9 0 -5 -47 -12 -105 -16 -58 -4 -105 -11 -105 -16 0 -5 -20 -9 -45 -9 -25 0
-45 -4 -45 -10 0 -5 -25 -10 -55 -10 -30 0 -55 -4 -55 -10 0 -6 -28 -10 -65
-10 -37 0 -65 -4 -65 -10 0 -5 -20 -10 -45 -10 -25 0 -45 3 -45 6 0 10 28 34
41 34 6 0 19 8 28 19 9 10 26 21 39 25 12 4 22 12 22 17 0 5 8 9 18 9 10 0 24
9 32 20 8 11 18 20 23 20 4 0 19 11 33 25 14 14 34 25 44 25 11 0 20 4 20 8 0
14 36 52 50 52 6 0 31 20 56 45 24 25 48 45 54 45 6 0 48 38 95 85 46 47 89
85 94 85 14 0 101 87 101 101 0 5 38 48 85 94 47 47 85 90 85 96 0 6 20 31 45
55 25 23 45 49 45 58 0 8 9 18 20 21 11 3 23 18 27 33 3 15 19 39 35 54 15 14
28 29 28 33 0 4 8 15 18 24 11 9 22 28 26 44 3 15 11 27 16 27 6 0 10 6 10 13
0 7 9 19 20 27 11 8 20 21 20 30 0 9 9 22 20 30 10 8 22 28 26 44 4 17 15 38
25 47 11 9 19 21 19 28 0 6 5 11 10 11 6 0 10 9 10 20 0 11 5 20 10 20 6 0 10
9 10 20 0 11 4 20 10 20 5 0 12 16 16 35 3 19 10 35 15 35 5 0 9 9 9 20 0 11
5 20 10 20 6 0 10 7 10 15 0 8 5 15 10 15 6 0 10 9 10 20 0 11 5 20 10 20 6 0
10 9 10 20 0 11 4 20 10 20 5 0 12 16 16 35 3 19 10 35 15 35 5 0 9 14 9 30 0
17 5 30 10 30 6 0 10 7 10 15 0 8 5 15 10 15 6 0 10 9 10 20 0 11 5 20 10 20
6 0 10 11 10 25 0 14 4 25 9 25 5 0 12 25 16 55 3 30 11 55 16 55 5 0 9 13 9
29 0 16 6 31 13 34 7 2 8 8 3 13 -5 5 -11 4 -13 -3 -3 -7 -11 -13 -19 -13 -8
0 -14 -4 -14 -10 0 -5 -7 -10 -16 -10 -9 0 -24 -8 -33 -19 -9 -10 -31 -22 -49
-25 -17 -4 -32 -12 -32 -17 0 -5 -8 -9 -18 -9 -10 0 -24 -9 -32 -20 -8 -11
-20 -20 -27 -20 -7 0 -13 -4 -13 -10 0 -5 -9 -10 -20 -10 -11 0 -20 -4 -20 -9
0 -5 -16 -12 -35 -15 -19 -4 -35 -11 -35 -16 0 -6 -9 -10 -20 -10 -11 0 -20
-4 -20 -10 0 -5 -9 -10 -20 -10 -11 0 -20 -4 -20 -10 0 -5 -7 -10 -15 -10 -8
0 -15 -4 -15 -10 0 -5 -9 -10 -20 -10 -11 0 -20 -4 -20 -9 0 -5 -16 -12 -35
-15 -19 -4 -35 -11 -35 -16 0 -6 -9 -10 -20 -10 -11 0 -20 -4 -20 -10 0 -5 -9
-10 -20 -10 -11 0 -20 -4 -20 -10 0 -5 -7 -10 -15 -10 -8 0 -15 -4 -15 -10 0
-5 -9 -10 -20 -10 -11 0 -20 -4 -20 -9 0 -5 -20 -12 -45 -15 -25 -4 -45 -11
-45 -17 0 -5 -9 -9 -20 -9 -11 0 -20 -4 -20 -10 0 -5 -11 -10 -25 -10 -14 0
-25 -4 -25 -10 0 -5 -9 -10 -20 -10 -11 0 -20 -4 -20 -10 0 -5 -9 -10 -20 -10
-11 0 -20 -4 -20 -9 0 -5 -20 -12 -45 -15 -25 -4 -45 -11 -45 -17 0 -5 -11 -9
-25 -9 -14 0 -25 -4 -25 -10 0 -5 -9 -10 -20 -10 -11 0 -20 -4 -20 -10 0 -5
-11 -10 -25 -10 -14 0 -25 -4 -25 -10 0 -5 -13 -10 -30 -10 -16 0 -30 -4 -30
-9 0 -5 -20 -12 -45 -15 -25 -4 -45 -11 -45 -17 0 -5 -13 -9 -30 -9 -16 0 -30
-4 -30 -10 0 -5 -11 -10 -25 -10 -14 0 -25 -4 -25 -10 0 -5 -13 -10 -30 -10
-16 0 -30 -4 -30 -10 0 -5 -11 -10 -25 -10 -14 0 -25 -4 -25 -9 0 -5 -29 -12
-65 -16 -36 -3 -65 -11 -65 -16 0 -5 -11 -9 -25 -9 -14 0 -25 -4 -25 -10 0 -5
-18 -10 -40 -10 -22 0 -40 -4 -40 -10 0 -5 -11 -10 -25 -10 -14 0 -25 -4 -25
-10 0 -5 -18 -10 -40 -10 -22 0 -40 -4 -40 -9 0 -5 -31 -12 -70 -16 -38 -4
-70 -11 -70 -16 0 -5 -20 -9 -45 -9 -25 0 -45 -4 -45 -10 0 -5 -18 -10 -40
-10 -22 0 -40 -4 -40 -10 0 -5 -20 -10 -45 -10 -25 0 -45 -4 -45 -10 0 -5 -14
-10 -30 -10 -25 0 -53 23 -180 150 -82 83 -154 150 -159 150 -6 0 -31 20 -55
45 -25 25 -48 45 -51 45 -4 0 -13 6 -20 13 -35 31 -45 37 -60 37 -8 0 -15 4
-15 8 0 16 -37 52 -54 52 -9 0 -16 4 -16 9 0 5 -10 13 -22 17 -13 4 -35 20
-49 35 -15 16 -34 29 -43 29 -9 0 -16 5 -16 10 0 6 -7 10 -15 10 -8 0 -15 4
-15 10 0 5 -12 13 -27 16 -16 4 -35 15 -44 26 -9 10 -21 18 -28 18 -6 0 -11 5
-11 10 0 6 -9 10 -20 10 -11 0 -20 5 -20 10 0 6 -9 10 -20 10 -11 0 -20 4 -20
9 0 5 -11 12 -25 15 -14 4 -25 11 -25 16 0 6 -9 10 -20 10 -11 0 -20 5 -20 10
0 6 -9 10 -20 10 -11 0 -20 5 -20 10 0 6 -7 10 -15 10 -8 0 -15 5 -15 10 0 6
-9 10 -20 10 -11 0 -20 4 -20 9 0 6 -20 13 -45 17 -25 3 -45 10 -45 15 0 5 -9
9 -20 9 -11 0 -20 5 -20 10 0 6 -7 10 -15 10 -8 0 -15 5 -15 10 0 6 -13 10
-30 10 -16 0 -30 5 -30 10 0 6 -9 10 -20 10 -11 0 -20 4 -20 9 0 5 -20 12 -45
15 -25 4 -45 11 -45 17 0 5 -11 9 -25 9 -14 0 -25 5 -25 10 0 6 -13 10 -30 10
-16 0 -30 5 -30 10 0 6 -11 10 -25 10 -14 0 -25 5 -25 10 0 6 -16 10 -35 10
-19 0 -35 4 -35 9 0 5 -29 13 -65 16 -36 4 -65 11 -65 16 0 5 -18 9 -40 9 -22
0 -40 5 -40 10 0 6 -16 10 -35 10 -19 0 -35 5 -35 10 0 6 -20 10 -45 10 -25 0
-45 5 -45 10 0 6 -24 10 -54 10 -30 0 -56 4 -58 9 -1 6 -72 13 -155 17 -84 4
-153 11 -153 15 0 5 -137 9 -305 9 -168 0 -305 -4 -305 -9z"/>
</g>
</svg>
