<svg id="圖層_1" data-name="圖層 1" xmlns="http://www.w3.org/2000/svg" viewBox="0 0 141.73 141.73"><defs><style>.cls-1{fill:#3e3a39;}.cls-2{fill:#fff;}</style></defs><rect class="cls-1" x="3.97" y="3.97" width="133.8" height="133.8" rx="30.65"/><path class="cls-2" d="M61.23,48.58H122.3V39.24H79A167.62,167.62,0,0,0,69.5,23l-9,2.47V29a97.39,97.39,0,0,1,6.5,10.28H21v9.34h29.2Q49.77,67.51,47.35,78A39.92,39.92,0,0,1,37.11,96.8a72.74,72.74,0,0,1-8.26,7.47,71.38,71.38,0,0,1-9.41,6.19l6.5,8.23c1-.61,2-1.23,2.91-1.85q26.81-17.46,30.38-43.2H99q-.91,17.14-2.14,24.84c-.23,1.49-.48,2.78-.74,3.91-.64,2.77-1.34,4.49-2.11,5.12q-1.62,1.32-8.52,1.32-6.67,0-15.57-.64l2.74,9.39q7,.48,13.17.48a51.27,51.27,0,0,0,10.29-.81,14.36,14.36,0,0,0,2.77-.83,12.08,12.08,0,0,0,5.59-4.67q1.88-3,3.33-15.48t2.42-31.81H60c.19-1.54.37-3.22.52-5Q61,54.63,61.23,48.58Z"/></svg>