<?xml version="1.0" standalone="no"?>
<!DOCTYPE svg PUBLIC "-//W3C//DTD SVG 20010904//EN"
 "http://www.w3.org/TR/2001/REC-SVG-20010904/DTD/svg10.dtd">
<svg version="1.0" xmlns="http://www.w3.org/2000/svg"
 width="980.000000pt" height="980.000000pt" viewBox="0 0 980.000000 980.000000"
 preserveAspectRatio="xMidYMid meet">
<metadata>
Created by potrace 1.16, written by Peter Selinger 2001-2019
</metadata>
<g transform="translate(0.000000,980.000000) scale(0.100000,-0.100000)"
fill="#000000" stroke="none">
<path d="M4775 8256 c-188 -36 -377 -167 -494 -341 -69 -104 -92 -177 -98
-310 -2 -69 31 -750 91 -1825 104 -1875 97 -1799 168 -1933 18 -34 60 -89 93
-123 96 -96 195 -134 355 -134 169 0 282 43 391 150 71 70 119 152 144 245 10
39 44 599 111 1818 106 1921 104 1845 50 1977 -42 105 -88 172 -186 270 -105
106 -201 164 -319 195 -88 23 -221 27 -306 11z"/>
<path d="M4797 2899 c-376 -49 -630 -392 -577 -779 23 -167 81 -290 190 -400
78 -77 166 -131 275 -167 70 -23 96 -26 215 -27 122 0 143 3 215 28 101 35
180 83 261 159 345 322 279 874 -131 1106 -68 38 -165 69 -255 81 -86 11 -100
11 -193 -1z"/>
</g>
</svg>
